<?xml version="1.0" encoding="UTF-8"?>
<svg version="1.1" xmlns="http://www.w3.org/2000/svg" width="800" height="531">
<path d="M0 0 C0.70447266 0.35078613 1.40894531 0.70157227 2.13476562 1.06298828 C12.36464238 6.25643501 21.1928455 12.68948614 30 20 C30.95519531 20.72574219 31.91039062 21.45148437 32.89453125 22.19921875 C33.58933594 22.79347656 34.28414062 23.38773438 35 24 C35 24.66 35 25.32 35 26 C35.66 26 36.32 26 37 26 C45.90258201 34.12393052 55.2179456 46.92994038 60 58 C60 58.66 60 59.32 60 60 C60.66 60.33 61.32 60.66 62 61 C64.73451914 66.21957337 66.74243489 71.76011191 68.15625 77.47265625 C68.35049561 78.23255859 68.54474121 78.99246094 68.74487305 79.77539062 C69.11732941 81.27610941 69.46103976 82.78431654 69.77270508 84.29882812 C70.30621042 86.72446865 70.30621042 86.72446865 72 90 C74.56502219 91.50579814 77.14722161 92.22731458 80 93 C81.72562264 94.72562264 81.1453672 97.03708403 81.16113281 99.39013672 C81.17074036 100.54158173 81.1803479 101.69302673 81.19024658 102.87936401 C81.1966214 104.76052414 81.1966214 104.76052414 81.203125 106.6796875 C81.20882507 107.95852814 81.21452515 109.23736877 81.22039795 110.55496216 C81.23091659 113.26695149 81.23675341 115.9789111 81.24023438 118.69091797 C81.24571747 122.16699537 81.26973724 125.64268071 81.29820633 129.11863518 C81.3213069 132.43064552 81.3232809 135.74260071 81.328125 139.0546875 C81.3404718 140.30474579 81.3528186 141.55480408 81.36553955 142.84274292 C81.36253845 144.00049225 81.35953735 145.15824158 81.35644531 146.35107422 C81.36009094 147.37175995 81.36373657 148.39244568 81.36749268 149.44406128 C81 152 81 152 79.70819092 153.84133911 C76.95130922 155.71132388 74.22291602 155.18242921 71 155 C70.81824219 155.60585937 70.63648438 156.21171875 70.44921875 156.8359375 C68.6328125 162.890625 66.81640625 168.9453125 65 175 C64.34 175 63.68 175 63 175 C62.731875 175.845625 62.46375 176.69125 62.1875 177.5625 C60.13858793 183.49356126 58.0312452 188.18490156 54 193 C52.77761696 194.67735071 51.57054577 196.36591637 50.375 198.0625 C49.48941406 199.31740234 49.48941406 199.31740234 48.5859375 200.59765625 C46.986311 202.90669663 46.986311 202.90669663 45.9375 205.1875 C44.56330997 207.84426739 42.3349547 209.16539273 40 211 C38.64172029 212.64639965 37.30745749 214.31295807 36 216 C32.90136714 219.30752946 29.47530332 222.07783759 25.875 224.8125 C25.30168945 225.24900879 24.72837891 225.68551758 24.13769531 226.13525391 C22.42951562 227.42945906 20.71605859 228.71626596 19 230 C18.08992187 230.68191406 17.17984375 231.36382812 16.2421875 232.06640625 C11.58229175 235.44811743 7.12074947 238.06397383 1.71484375 240.078125 C-0.36160638 240.94172028 -0.36160638 240.94172028 -1 244 C-0.34 244.33 0.32 244.66 1 245 C1 245.99 1 246.98 1 248 C1.66 248.33 2.32 248.66 3 249 C3.33 249.99 3.66 250.98 4 252 C4.66 252 5.32 252 6 252 C6 252.66 6 253.32 6 254 C6.63164062 254.10957031 7.26328125 254.21914063 7.9140625 254.33203125 C13.49731547 255.32157032 19.06682426 256.37811412 24.625 257.5 C26.40777344 257.85578125 26.40777344 257.85578125 28.2265625 258.21875 C29.14179688 258.4765625 30.05703125 258.734375 31 259 C31.33 259.66 31.66 260.32 32 261 C25.21471663 262.37575627 18.53937723 263.30302332 11.62890625 263.75390625 C9.06015795 263.91648692 9.06015795 263.91648692 6.88671875 264.5859375 C3.72023034 265.28086042 1.00910621 263.98374626 -2 263 C-1.9690625 264.2684375 -1.9690625 264.2684375 -1.9375 265.5625 C-2 269 -2 269 -2.5 272.4375 C-3.07673331 275.94715537 -3.07673331 275.94715537 -3 279.3125 C-3 283.1009523 -3.36730726 286.7322076 -3.78125 290.4921875 C-3.98855495 292.86879066 -4.03417849 295.17855007 -4 297.5625 C-4 298.696875 -4 299.83125 -4 301 C-4.33 301.33 -4.66 301.66 -5 302 C-5.07230993 304.81556784 -4.99623631 307.61792211 -4.9375 310.43359375 C-5 313 -5 313 -6 315 C1.02358383 317.12769344 8.06621692 319.17991071 15.125 321.1875 C16.08148438 321.46013672 17.03796875 321.73277344 18.0234375 322.01367188 C20.3487841 322.67639566 22.67430606 323.33849638 25 324 C24.34 324.99 23.68 325.98 23 327 C20.20605469 327.35644531 20.20605469 327.35644531 16.671875 327.328125 C14.75955078 327.32039062 14.75955078 327.32039062 12.80859375 327.3125 C12.1419873 327.3021875 11.47538086 327.291875 10.78857422 327.28125 C8.77161907 327.25033141 6.75544904 327.24030058 4.73828125 327.234375 C-0.96402724 327.18843495 -6.38460076 327.06421733 -12 326 C-12 325.34 -12 324.68 -12 324 C-12.61488281 323.91363281 -13.22976563 323.82726562 -13.86328125 323.73828125 C-16 323 -16 323 -17.23046875 321.35546875 C-19.67789783 315.81129267 -20.5441559 310.84623251 -20.82421875 304.796875 C-20.99293279 302.11244714 -21.41170727 299.62101153 -22 297 C-21.98839844 298.05058594 -21.97679687 299.10117187 -21.96484375 300.18359375 C-21.86898648 312.95999823 -21.86898648 312.95999823 -22.5625 318.3125 C-23.2578068 321.93624133 -23.2578068 321.93624133 -22 325 C-15.80439083 328.41857017 -8.95332942 329.39081749 -2.0625 330.6875 C-0.90169922 330.91244141 0.25910156 331.13738281 1.45507812 331.36914062 C4.30211061 331.91980123 7.15032792 332.4631976 10 333 C10 333.99 10 334.98 10 336 C8.33324219 335.98259766 8.33324219 335.98259766 6.6328125 335.96484375 C5.1302161 335.95452767 3.62761051 335.94550012 2.125 335.9375 C1.34358643 335.93274658 0.56217285 335.92799316 -0.24291992 335.9230957 C-4.33709405 335.92097327 -8.25570281 336.07465051 -12.3125 336.6875 C-19.29077802 337.52250763 -26.79502934 335.6734014 -32.75 331.9375 C-33.4925 331.298125 -34.235 330.65875 -35 330 C-35 329.34 -35 328.68 -35 328 C-35.66 327.67 -36.32 327.34 -37 327 C-37.4140625 324.05859375 -37.4140625 324.05859375 -37.625 320.4375 C-37.69976562 319.23996094 -37.77453125 318.04242188 -37.8515625 316.80859375 C-37.92503906 315.41833984 -37.92503906 315.41833984 -38 314 C-39.21643292 314.99483202 -39.21643292 314.99483202 -39.11352539 316.94946289 C-39.10828857 317.7821167 -39.10305176 318.61477051 -39.09765625 319.47265625 C-39.09443359 320.37177734 -39.09121094 321.27089844 -39.08789062 322.19726562 C-39.07951172 323.14279297 -39.07113281 324.08832031 -39.0625 325.0625 C-39.05573242 326.4865918 -39.05573242 326.4865918 -39.04882812 327.93945312 C-39.0370011 330.29303065 -39.02052025 332.64648477 -39 335 C-34.90354968 336.70948023 -30.73269699 338.11112256 -26.5 339.4375 C-25.80382568 339.65704346 -25.10765137 339.87658691 -24.39038086 340.1027832 C-18.77308253 341.83920185 -13.14634311 343.17073138 -7.37890625 344.32421875 C-6.59386719 344.54722656 -5.80882812 344.77023437 -5 345 C-4.67 345.66 -4.34 346.32 -4 347 C-8.53421406 347.21898302 -13.06867412 347.41542321 -17.60473633 347.59204102 C-19.14405696 347.65503153 -20.68314911 347.72391783 -22.22192383 347.79907227 C-30.70655792 348.20939699 -38.04533605 348.46522914 -46 345 C-47.093125 344.649375 -48.18625 344.29875 -49.3125 343.9375 C-54.39913929 340.27038795 -55.61474181 334.1364318 -56.6875 328.1875 C-56.790625 327.135625 -56.89375 326.08375 -57 325 C-57.65185145 321.18201293 -58.75782365 317.66618041 -60 314 C-60.11593506 314.57967529 -60.23187012 315.15935059 -60.35131836 315.7565918 C-61.56754557 321.83772786 -62.78377279 327.91886393 -64 334 C-64.12963135 334.87116455 -64.2592627 335.7423291 -64.39282227 336.63989258 C-65.57746881 341.24462846 -70.07436007 343.44855493 -73.9375 345.75 C-79.66905352 348.0894096 -85.34721394 348.10736545 -91.46484375 347.87890625 C-92.14301651 347.85529526 -92.82118927 347.83168427 -93.51991272 347.80735779 C-95.65936691 347.73155017 -97.7983804 347.647177 -99.9375 347.5625 C-101.39906788 347.50919595 -102.86065645 347.45645633 -104.32226562 347.40429688 C-107.88177298 347.27604979 -111.44093817 347.14012555 -115 347 C-114.67 346.34 -114.34 345.68 -114 345 C-111.48730469 344.17797852 -111.48730469 344.17797852 -108.171875 343.37890625 C-106.97949219 343.08306641 -105.78710938 342.78722656 -104.55859375 342.48242188 C-102.03518642 341.87292195 -99.51174929 341.26354539 -96.98828125 340.65429688 C-95.79074219 340.35716797 -94.59320313 340.06003906 -93.359375 339.75390625 C-91.71146973 339.35667358 -91.71146973 339.35667358 -90.03027344 338.95141602 C-86.9669192 337.98961361 -84.62551852 336.83768532 -82 335 C-81.67 334.34 -81.34 333.68 -81 333 C-80.34 333 -79.68 333 -79 333 C-79.24556641 331.80503906 -79.24556641 331.80503906 -79.49609375 330.5859375 C-80.10791538 326.23204401 -80.10799591 322.0136058 -80.0625 317.625 C-80.05798828 316.79355469 -80.05347656 315.96210938 -80.04882812 315.10546875 C-80.03713164 313.07028103 -80.01919935 311.03513077 -80 309 C-81.04027055 312.12081164 -81.00995251 314.06014462 -80.875 317.3125 C-80.82865746 323.16710707 -82.13948644 326.49546252 -85.625 331.1875 C-91.60941186 335.75455115 -99.60996266 336.9489462 -107 337 C-107.61738037 336.83733643 -108.23476074 336.67467285 -108.87084961 336.50708008 C-111.10640817 335.97465775 -113.03358084 335.88595415 -115.328125 335.90234375 C-116.52695312 335.90717773 -116.52695312 335.90717773 -117.75 335.91210938 C-118.575 335.92048828 -119.4 335.92886719 -120.25 335.9375 C-121.09046875 335.94201172 -121.9309375 335.94652344 -122.796875 335.95117188 C-124.86461401 335.96292039 -126.93231624 335.98085478 -129 336 C-129 335.01 -129 334.02 -129 333 C-128.17274414 332.82871582 -127.34548828 332.65743164 -126.49316406 332.48095703 C-123.41344055 331.84053713 -120.33481406 331.19513912 -117.25683594 330.54638672 C-115.92652299 330.26705337 -114.59579556 329.98968619 -113.26464844 329.71435547 C-111.34721832 329.31739871 -109.43139776 328.91269231 -107.515625 328.5078125 C-105.78747559 328.14647217 -105.78747559 328.14647217 -104.02441406 327.77783203 C-100.74366008 327.04711009 -100.74366008 327.04711009 -97 325 C-97 314.44 -97 303.88 -97 293 C-97.73778684 302.99151842 -97.73778684 302.99151842 -98 313 C-99.79965771 318.21900737 -101.55490815 322.30840705 -106.67114258 324.82055664 C-114.03891893 327.63284014 -121.26984862 327.33728482 -129.0625 327.1875 C-130.41860486 327.17241956 -131.77472602 327.15873712 -133.13085938 327.14648438 C-136.42099602 327.11135836 -139.71028183 327.0621664 -143 327 C-143 326.01 -143 325.02 -143 324 C-142.40574219 323.83918945 -141.81148438 323.67837891 -141.19921875 323.51269531 C-138.46370046 322.76712831 -135.7319141 322.00866239 -133 321.25 C-132.06542969 320.99734375 -131.13085938 320.7446875 -130.16796875 320.484375 C-124.37752752 318.86467116 -119.28745782 316.86819646 -114 314 C-113.9904126 313.32888184 -113.9808252 312.65776367 -113.97094727 311.96630859 C-113.94807943 310.3655599 -113.92521159 308.7648112 -113.90234375 307.1640625 C-113.98327573 304.54186628 -114.19098286 302.01862679 -114.47265625 299.4140625 C-115.20266281 292.48126324 -115.37448114 285.53416118 -115.60546875 278.5703125 C-115.78668421 273.63375342 -115.99568195 268.85420393 -117 264 C-117.96099609 264.12568359 -117.96099609 264.12568359 -118.94140625 264.25390625 C-124.19995076 264.87301954 -128.82111354 265.21207981 -134 264 C-134.33 263.34 -134.66 262.68 -135 262 C-136.5159375 262.3403125 -136.5159375 262.3403125 -138.0625 262.6875 C-142.8444048 263.06701625 -144.80501486 262.14029854 -149 260 C-149 259.67 -149 259.34 -149 259 C-148.03175293 258.78065796 -148.03175293 258.78065796 -147.04394531 258.55688477 C-144.11252666 257.89254582 -141.18126194 257.22753005 -138.25 256.5625 C-136.72632813 256.21735352 -136.72632813 256.21735352 -135.171875 255.86523438 C-134.1921875 255.64287109 -133.2125 255.42050781 -132.203125 255.19140625 C-130.85202637 254.88505249 -130.85202637 254.88505249 -129.47363281 254.57250977 C-128.65733398 254.38358154 -127.84103516 254.19465332 -127 254 C-125.88383301 253.7987854 -125.88383301 253.7987854 -124.74511719 253.59350586 C-124.16922852 253.39764893 -123.59333984 253.20179199 -123 253 C-121.77851979 250.2552429 -121.77851979 250.2552429 -121 247 C-120.33333333 245 -119.66666667 243 -119 241 C-119.99 240.67 -120.98 240.34 -122 240 C-122 239.34 -122 238.68 -122 238 C-122.9075 237.71125 -123.815 237.4225 -124.75 237.125 C-127.32202908 236.23468224 -129.61346766 235.28505587 -132 234 C-132 233.34 -132 232.68 -132 232 C-132.721875 231.938125 -133.44375 231.87625 -134.1875 231.8125 C-137.85956016 230.75168262 -139.39427842 228.73934833 -142 226 C-142.97066406 225.53207031 -142.97066406 225.53207031 -143.9609375 225.0546875 C-146.29523134 223.84729414 -147.41034662 222.59494444 -149.0625 220.5625 C-152.05241998 217.01197003 -155.24455081 213.74024153 -158.5625 210.5 C-173.47424463 195.71587729 -184.70791345 174.28633177 -190 154 C-190.61488281 154.03480469 -191.22976563 154.06960937 -191.86328125 154.10546875 C-192.67152344 154.13253906 -193.47976563 154.15960938 -194.3125 154.1875 C-195.11300781 154.22230469 -195.91351563 154.25710937 -196.73828125 154.29296875 C-199 154 -199 154 -200.62184143 152.82702637 C-202.52839135 150.29951099 -202.35127863 148.62148192 -202.31225586 145.47460938 C-202.30125099 143.77769958 -202.30125099 143.77769958 -202.2900238 142.04650879 C-202.25280968 140.21364319 -202.25280968 140.21364319 -202.21484375 138.34375 C-202.18941246 136.46302795 -202.18941246 136.46302795 -202.16346741 134.54431152 C-202.12291979 131.89089367 -202.07595842 129.23847268 -202.01879883 126.58544922 C-201.94677249 123.1858673 -201.90644215 119.78675921 -201.87511349 116.38658905 C-201.84021817 113.14280869 -201.776025 109.89962488 -201.71484375 106.65625 C-201.70420395 105.4343396 -201.69356415 104.2124292 -201.68260193 102.95349121 C-201.65320023 101.82221802 -201.62379852 100.69094482 -201.59350586 99.52539062 C-201.5755748 98.5285022 -201.55764374 97.53161377 -201.53916931 96.5045166 C-201 94 -201 94 -199.16603088 92.13513184 C-196.16188703 90.56077786 -194.21169363 91.19707659 -191 92 C-190.82984375 91.24976562 -190.6596875 90.49953125 -190.484375 89.7265625 C-187.38958438 76.65601062 -181.76522912 65.06220267 -176 53 C-175.34 53 -174.68 53 -174 53 C-173.690625 52.05125 -173.38125 51.1025 -173.0625 50.125 C-172 47 -172 47 -171 45 C-170.34 45 -169.68 45 -169 45 C-168.60167969 44.15888672 -168.60167969 44.15888672 -168.1953125 43.30078125 C-164.57830738 36.33863741 -160.00101069 30.57847653 -153.9375 25.62890625 C-152.12007013 24.10094606 -150.59327209 22.50508879 -149 20.75 C-141.03284506 12.65493202 -130.35312323 6.39499908 -120.33203125 1.21875 C-117.98210317 0.04321134 -117.98210317 0.04321134 -115.84375 -1.4375 C-108.23638312 -5.61737191 -99.30168058 -7.59956831 -91 -10 C-89.96504395 -10.30333252 -89.96504395 -10.30333252 -88.90917969 -10.61279297 C-60.3182089 -18.58365547 -26.06442308 -13.07349004 0 0 Z M-97 273 C-96 275 -96 275 -96 275 Z M-23 274 C-22 276 -22 276 -22 276 Z M-97 276 C-97 277.65 -97 279.3 -97 281 C-96.67 281 -96.34 281 -96 281 C-96 279.35 -96 277.7 -96 276 C-96.33 276 -96.66 276 -97 276 Z M-23 277 C-22 279 -22 279 -22 279 Z M-97 282 C-96 284 -96 284 -96 284 Z M-40 286 C-39 288 -39 288 -39 288 Z M-23 287 C-23 289.31 -23 291.62 -23 294 C-22.34 293.34 -21.68 292.68 -21 292 C-21.32041397 289.39719432 -21.32041397 289.39719432 -22 287 C-22.33 287 -22.66 287 -23 287 Z M-40 291 C-39 293 -39 293 -39 293 Z M-40 294 C-40 297.96 -40 301.92 -40 306 C-39.01 306.495 -39.01 306.495 -38 307 C-37.92345464 302.48382401 -37.89771304 298.40914783 -39 294 C-39.33 294 -39.66 294 -40 294 Z M-80 296 C-80.93786082 301.05009595 -80.93786082 301.05009595 -80 306 C-78.76732652 304.99163938 -78.76732652 304.99163938 -78.90234375 302.93359375 C-78.91394531 302.10988281 -78.92554688 301.28617187 -78.9375 300.4375 C-78.95103516 299.19806641 -78.95103516 299.19806641 -78.96484375 297.93359375 C-78.97644531 297.29550781 -78.98804688 296.65742188 -79 296 C-79.33 296 -79.66 296 -80 296 Z M-40 307 C-39.67 307.99 -39.34 308.98 -39 310 C-39 309.01 -39 308.02 -39 307 C-39.33 307 -39.66 307 -40 307 Z M-60 309 C-59 313 -59 313 -59 313 Z " fill="#FE723E" transform="translate(462,22)"/>
<path d="M0 0 C0.70447266 0.35078613 1.40894531 0.70157227 2.13476562 1.06298828 C12.36464238 6.25643501 21.1928455 12.68948614 30 20 C30.95519531 20.72574219 31.91039062 21.45148437 32.89453125 22.19921875 C33.58933594 22.79347656 34.28414062 23.38773438 35 24 C35 24.66 35 25.32 35 26 C35.66 26 36.32 26 37 26 C45.90258201 34.12393052 55.2179456 46.92994038 60 58 C60 58.66 60 59.32 60 60 C60.66 60.33 61.32 60.66 62 61 C64.73451914 66.21957337 66.74243489 71.76011191 68.15625 77.47265625 C68.35049561 78.23255859 68.54474121 78.99246094 68.74487305 79.77539062 C69.11732941 81.27610941 69.46103976 82.78431654 69.77270508 84.29882812 C70.30621042 86.72446865 70.30621042 86.72446865 72 90 C74.56502219 91.50579814 77.14722161 92.22731458 80 93 C81.72562264 94.72562264 81.1453672 97.03708403 81.16113281 99.39013672 C81.17074036 100.54158173 81.1803479 101.69302673 81.19024658 102.87936401 C81.1966214 104.76052414 81.1966214 104.76052414 81.203125 106.6796875 C81.20882507 107.95852814 81.21452515 109.23736877 81.22039795 110.55496216 C81.23091659 113.26695149 81.23675341 115.9789111 81.24023438 118.69091797 C81.24571747 122.16699537 81.26973724 125.64268071 81.29820633 129.11863518 C81.3213069 132.43064552 81.3232809 135.74260071 81.328125 139.0546875 C81.3404718 140.30474579 81.3528186 141.55480408 81.36553955 142.84274292 C81.36253845 144.00049225 81.35953735 145.15824158 81.35644531 146.35107422 C81.36009094 147.37175995 81.36373657 148.39244568 81.36749268 149.44406128 C81 152 81 152 79.70819092 153.84133911 C76.95130922 155.71132388 74.22291602 155.18242921 71 155 C70.81824219 155.60585937 70.63648438 156.21171875 70.44921875 156.8359375 C68.6328125 162.890625 66.81640625 168.9453125 65 175 C64.34 175 63.68 175 63 175 C62.731875 175.845625 62.46375 176.69125 62.1875 177.5625 C60.13858793 183.49356126 58.0312452 188.18490156 54 193 C52.77761696 194.67735071 51.57054577 196.36591637 50.375 198.0625 C49.48941406 199.31740234 49.48941406 199.31740234 48.5859375 200.59765625 C46.986311 202.90669663 46.986311 202.90669663 45.9375 205.1875 C44.56330997 207.84426739 42.3349547 209.16539273 40 211 C38.64172029 212.64639965 37.30745749 214.31295807 36 216 C32.90136714 219.30752946 29.47530332 222.07783759 25.875 224.8125 C25.30168945 225.24900879 24.72837891 225.68551758 24.13769531 226.13525391 C22.42951562 227.42945906 20.71605859 228.71626596 19 230 C18.08992187 230.68191406 17.17984375 231.36382812 16.2421875 232.06640625 C3.93196544 241 3.93196544 241 -2 241 C-2.18101366 228.19227803 -1.78673059 215.40301065 -1.21264648 202.60888672 C-1.11197941 200.18927581 -1.02817955 197.76890814 -0.96069336 195.34814453 C-0.85997982 191.81245644 -0.70339851 188.28304025 -0.53515625 184.75 C-0.51598648 183.67387451 -0.49681671 182.59774902 -0.47706604 181.48901367 C-0.0461357 174.14394063 -0.0461357 174.14394063 2.98953247 170.82446289 C5.25624225 169.06315821 7.57866808 167.53734309 10 166 C17.09945413 159.75071913 20.24502222 150.79035132 21.44921875 141.5546875 C21.81849291 130.78206893 18.08796345 121.15115797 11 113 C9.59972463 112.17968943 8.18236767 111.38789148 6.75 110.625 C4.41034536 109.04606483 3.21557823 107.87467664 2.53173828 105.10009766 C2.08514344 101.8681056 1.85921004 98.63761521 1.64208984 95.38330078 C0.76495829 82.79658386 -4.17911554 73.73587468 -12 64 C-12.63035156 63.12408203 -12.63035156 63.12408203 -13.2734375 62.23046875 C-20.84853006 52.04975924 -34.906519 45.72590091 -47 43 C-50.63768019 42.60953707 -54.21914878 42.56887948 -57.875 42.625 C-58.84244141 42.63587646 -59.80988281 42.64675293 -60.80664062 42.65795898 C-77.69447904 43.03415915 -92.39136885 49.13849468 -104.3671875 61.08984375 C-108.2500384 65.38171901 -111.22354047 69.9384897 -114 75 C-114.86625 76.4540625 -114.86625 76.4540625 -115.75 77.9375 C-118.67817212 85.1115217 -120.05351703 92.01566524 -120.0625 99.75 C-120.27453457 103.62654516 -120.41402685 105.36427441 -123.0703125 108.24609375 C-124.82432078 109.54720139 -126.60805497 110.80910507 -128.41796875 112.03125 C-132.57001587 115.19710741 -134.75882858 119.35865513 -137 124 C-137.37125 124.72703125 -137.7425 125.4540625 -138.125 126.203125 C-140.96518884 135.28158576 -140.46892726 147.38050214 -136.3125 155.875 C-135.26272424 157.61728518 -134.16461696 159.33229075 -133 161 C-132.59394531 161.6084375 -132.18789063 162.216875 -131.76953125 162.84375 C-130.12292852 165.04671338 -128.41172884 166.75597126 -126.04418945 168.15919495 C-122.72074721 170.16196915 -120.42817223 171.70684413 -119.17871094 175.48043823 C-118.78501039 178.55340501 -118.63219754 181.55494315 -118.5625 184.65234375 C-118.50723145 185.78466934 -118.45196289 186.91699493 -118.39501953 188.08363342 C-118.22739614 191.70107484 -118.11332811 195.31799309 -118 198.9375 C-117.89536828 201.33674109 -117.78732894 203.73583613 -117.67578125 206.13476562 C-117.16091378 217.75507182 -116.82447944 229.36810602 -117 241 C-118.65 240.67 -120.3 240.34 -122 240 C-122 239.34 -122 238.68 -122 238 C-122.9075 237.71125 -123.815 237.4225 -124.75 237.125 C-127.32202908 236.23468224 -129.61346766 235.28505587 -132 234 C-132 233.34 -132 232.68 -132 232 C-132.721875 231.938125 -133.44375 231.87625 -134.1875 231.8125 C-137.85956016 230.75168262 -139.39427842 228.73934833 -142 226 C-142.97066406 225.53207031 -142.97066406 225.53207031 -143.9609375 225.0546875 C-146.29523134 223.84729414 -147.41034662 222.59494444 -149.0625 220.5625 C-152.05241998 217.01197003 -155.24455081 213.74024153 -158.5625 210.5 C-173.47424463 195.71587729 -184.70791345 174.28633177 -190 154 C-190.61488281 154.03480469 -191.22976563 154.06960937 -191.86328125 154.10546875 C-192.67152344 154.13253906 -193.47976563 154.15960938 -194.3125 154.1875 C-195.11300781 154.22230469 -195.91351563 154.25710937 -196.73828125 154.29296875 C-199 154 -199 154 -200.62184143 152.82702637 C-202.52839135 150.29951099 -202.35127863 148.62148192 -202.31225586 145.47460938 C-202.30125099 143.77769958 -202.30125099 143.77769958 -202.2900238 142.04650879 C-202.25280968 140.21364319 -202.25280968 140.21364319 -202.21484375 138.34375 C-202.18941246 136.46302795 -202.18941246 136.46302795 -202.16346741 134.54431152 C-202.12291979 131.89089367 -202.07595842 129.23847268 -202.01879883 126.58544922 C-201.94677249 123.1858673 -201.90644215 119.78675921 -201.87511349 116.38658905 C-201.84021817 113.14280869 -201.776025 109.89962488 -201.71484375 106.65625 C-201.70420395 105.4343396 -201.69356415 104.2124292 -201.68260193 102.95349121 C-201.65320023 101.82221802 -201.62379852 100.69094482 -201.59350586 99.52539062 C-201.5755748 98.5285022 -201.55764374 97.53161377 -201.53916931 96.5045166 C-201 94 -201 94 -199.16603088 92.13513184 C-196.16188703 90.56077786 -194.21169363 91.19707659 -191 92 C-190.82984375 91.24976562 -190.6596875 90.49953125 -190.484375 89.7265625 C-187.38958438 76.65601062 -181.76522912 65.06220267 -176 53 C-175.34 53 -174.68 53 -174 53 C-173.690625 52.05125 -173.38125 51.1025 -173.0625 50.125 C-172 47 -172 47 -171 45 C-170.34 45 -169.68 45 -169 45 C-168.60167969 44.15888672 -168.60167969 44.15888672 -168.1953125 43.30078125 C-164.57830738 36.33863741 -160.00101069 30.57847653 -153.9375 25.62890625 C-152.12007013 24.10094606 -150.59327209 22.50508879 -149 20.75 C-141.03284506 12.65493202 -130.35312323 6.39499908 -120.33203125 1.21875 C-117.98210317 0.04321134 -117.98210317 0.04321134 -115.84375 -1.4375 C-108.23638312 -5.61737191 -99.30168058 -7.59956831 -91 -10 C-89.96504395 -10.30333252 -89.96504395 -10.30333252 -88.90917969 -10.61279297 C-60.3182089 -18.58365547 -26.06442308 -13.07349004 0 0 Z " fill="#D8F1FA" transform="translate(462,22)"/>
<path d="M0 0 C0.33 0 0.66 0 1 0 C1.495 2.97 1.495 2.97 2 6 C4.475 6.495 4.475 6.495 7 7 C6.67 7.66 6.34 8.32 6 9 C5.34 9 4.68 9 4 9 C4.495 11.97 4.495 11.97 5 15 C6.32 15 7.64 15 9 15 C9.66 14.34 10.32 13.68 11 13 C11.495 16.465 11.495 16.465 12 20 C12.66 19.01 13.32 18.02 14 17 C14.66 17 15.32 17 16 17 C16.66 18.32 17.32 19.64 18 21 C18.99 21 19.98 21 21 21 C23.04296875 22.3125 23.04296875 22.3125 25.1875 24 C25.90292969 24.556875 26.61835938 25.11375 27.35546875 25.6875 C27.89816406 26.120625 28.44085938 26.55375 29 27 C30.32 26.34 31.64 25.68 33 25 C33.99 26.98 33.99 26.98 35 29 C35.721875 28.690625 36.44375 28.38125 37.1875 28.0625 C42.27748691 26.13961606 42.27748691 26.13961606 45 26 C46.35368596 27.31266518 47.68799596 28.64567325 49 30 C52.01811422 29.82246387 52.83735215 29.16264785 55 27 C55.99 27.99 56.98 28.98 58 30 C59.0725 29.690625 60.145 29.38125 61.25 29.0625 C63.82866222 28.33187904 66.39512102 27.62517096 69 27 C69.495 28.485 69.495 28.485 70 30 C72.49361571 28.79618552 74.68143083 27.54571278 77 26 C77.99 26.99 77.99 26.99 79 28 C79.99 28 80.98 28 82 28 C83.32 28 84.64 28 86 28 C86.495 26.515 86.495 26.515 87 25 C89.0625 23.3125 89.0625 23.3125 91 22 C91.99 22.66 92.98 23.32 94 24 C94.433125 23.34 94.86625 22.68 95.3125 22 C96.1478125 21.01 96.1478125 21.01 97 20 C97.99 20 98.98 20 100 20 C100 18.35 100 16.7 100 15 C100.99 15.495 100.99 15.495 102 16 C103.77084833 16.9442592 103.77084833 16.9442592 106 17 C109.31434821 15.42935224 109.31434821 15.42935224 112 13 C112 11.68 112 10.36 112 9 C112.66 9 113.32 9 114 9 C114 6.03 114 3.06 114 0 C114.33 0 114.66 0 115 0 C115.04898438 0.85464844 115.09796875 1.70929688 115.1484375 2.58984375 C115.26058594 4.24693359 115.26058594 4.24693359 115.375 5.9375 C115.47941406 7.59072266 115.47941406 7.59072266 115.5859375 9.27734375 C115.72257813 10.17582031 115.85921875 11.07429688 116 12 C116.99 12.495 116.99 12.495 118 13 C118 13.99 118 14.98 118 16 C118.66 16.33 119.32 16.66 120 17 C120.33 17.99 120.66 18.98 121 20 C121.66 20 122.32 20 123 20 C123 20.66 123 21.32 123 22 C123.63164062 22.10957031 124.26328125 22.21914063 124.9140625 22.33203125 C130.49731547 23.32157032 136.06682426 24.37811412 141.625 25.5 C142.81351563 25.7371875 144.00203125 25.974375 145.2265625 26.21875 C146.14179688 26.4765625 147.05703125 26.734375 148 27 C148.33 27.66 148.66 28.32 149 29 C142.21471663 30.37575627 135.53937723 31.30302332 128.62890625 31.75390625 C126.06015795 31.91648692 126.06015795 31.91648692 123.88671875 32.5859375 C120.72023034 33.28086042 118.00910621 31.98374626 115 31 C115.0309375 32.2684375 115.0309375 32.2684375 115.0625 33.5625 C115 37 115 37 114.5 40.4375 C113.92326669 43.94715537 113.92326669 43.94715537 114 47.3125 C114 51.1009523 113.63269274 54.7322076 113.21875 58.4921875 C113.01144505 60.86879066 112.96582151 63.17855007 113 65.5625 C113 66.696875 113 67.83125 113 69 C112.67 69.33 112.34 69.66 112 70 C111.92769007 72.81556784 112.00376369 75.61792211 112.0625 78.43359375 C112 81 112 81 111 83 C118.02358383 85.12769344 125.06621692 87.17991071 132.125 89.1875 C133.08148438 89.46013672 134.03796875 89.73277344 135.0234375 90.01367188 C137.3487841 90.67639566 139.67430606 91.33849638 142 92 C141.34 92.99 140.68 93.98 140 95 C137.20605469 95.35644531 137.20605469 95.35644531 133.671875 95.328125 C132.39699219 95.32296875 131.12210938 95.3178125 129.80859375 95.3125 C129.1419873 95.3021875 128.47538086 95.291875 127.78857422 95.28125 C125.77161907 95.25033141 123.75544904 95.24030058 121.73828125 95.234375 C116.03597276 95.18843495 110.61539924 95.06421733 105 94 C105 93.34 105 92.68 105 92 C104.38511719 91.91363281 103.77023437 91.82726562 103.13671875 91.73828125 C101 91 101 91 99.76953125 89.35546875 C97.32210217 83.81129267 96.4558441 78.84623251 96.17578125 72.796875 C96.00706721 70.11244714 95.58829273 67.62101153 95 65 C95.01160156 66.05058594 95.02320313 67.10117187 95.03515625 68.18359375 C95.13101352 80.95999823 95.13101352 80.95999823 94.4375 86.3125 C93.7421932 89.93624133 93.7421932 89.93624133 95 93 C101.19560917 96.41857017 108.04667058 97.39081749 114.9375 98.6875 C116.09830078 98.91244141 117.25910156 99.13738281 118.45507812 99.36914062 C121.30211061 99.91980123 124.15032792 100.4631976 127 101 C127 101.99 127 102.98 127 104 C125.88882813 103.98839844 124.77765625 103.97679687 123.6328125 103.96484375 C122.1302161 103.95452767 120.62761051 103.94550012 119.125 103.9375 C118.34358643 103.93274658 117.56217285 103.92799316 116.75708008 103.9230957 C112.66290595 103.92097327 108.74429719 104.07465051 104.6875 104.6875 C97.70922198 105.52250763 90.20497066 103.6734014 84.25 99.9375 C83.5075 99.298125 82.765 98.65875 82 98 C82 97.34 82 96.68 82 96 C81.34 95.67 80.68 95.34 80 95 C79.5859375 92.05859375 79.5859375 92.05859375 79.375 88.4375 C79.26285156 86.64119141 79.26285156 86.64119141 79.1484375 84.80859375 C79.09945312 83.88175781 79.05046875 82.95492187 79 82 C77.78356708 82.99483202 77.78356708 82.99483202 77.88647461 84.94946289 C77.89171143 85.7821167 77.89694824 86.61477051 77.90234375 87.47265625 C77.90556641 88.37177734 77.90878906 89.27089844 77.91210938 90.19726562 C77.92048828 91.14279297 77.92886719 92.08832031 77.9375 93.0625 C77.94201172 94.01189453 77.94652344 94.96128906 77.95117188 95.93945312 C77.9629989 98.29303065 77.97947975 100.64648477 78 103 C82.09645032 104.70948023 86.26730301 106.11112256 90.5 107.4375 C91.19617432 107.65704346 91.89234863 107.87658691 92.60961914 108.1027832 C98.22691747 109.83920185 103.85365689 111.17073138 109.62109375 112.32421875 C110.40613281 112.54722656 111.19117188 112.77023437 112 113 C112.33 113.66 112.66 114.32 113 115 C108.46578594 115.21898302 103.93132588 115.41542321 99.39526367 115.59204102 C97.85594304 115.65503153 96.31685089 115.72391783 94.77807617 115.79907227 C86.29344208 116.20939699 78.95466395 116.46522914 71 113 C69.906875 112.649375 68.81375 112.29875 67.6875 111.9375 C62.60086071 108.27038795 61.38525819 102.1364318 60.3125 96.1875 C60.209375 95.135625 60.10625 94.08375 60 93 C59.34814855 89.18201293 58.24217635 85.66618041 57 82 C56.82609741 82.86951294 56.82609741 82.86951294 56.64868164 83.7565918 C55.43245443 89.83772786 54.21622721 95.91886393 53 102 C52.87036865 102.87116455 52.7407373 103.7423291 52.60717773 104.63989258 C51.42253119 109.24462846 46.92563993 111.44855493 43.0625 113.75 C37.33094648 116.0894096 31.65278606 116.10736545 25.53515625 115.87890625 C24.51789711 115.84348976 24.51789711 115.84348976 23.48008728 115.80735779 C21.34063309 115.73155017 19.2016196 115.647177 17.0625 115.5625 C15.60093212 115.50919595 14.13934355 115.45645633 12.67773438 115.40429688 C9.11822702 115.27604979 5.55906183 115.14012555 2 115 C2.33 114.34 2.66 113.68 3 113 C5.51269531 112.17797852 5.51269531 112.17797852 8.828125 111.37890625 C10.02050781 111.08306641 11.21289062 110.78722656 12.44140625 110.48242188 C14.96481358 109.87292195 17.48825071 109.26354539 20.01171875 108.65429688 C21.20925781 108.35716797 22.40679687 108.06003906 23.640625 107.75390625 C24.73922852 107.48908447 25.83783203 107.2242627 26.96972656 106.95141602 C30.0330808 105.98961361 32.37448148 104.83768532 35 103 C35.33 102.34 35.66 101.68 36 101 C36.66 101 37.32 101 38 101 C37.83628906 100.20335937 37.67257812 99.40671875 37.50390625 98.5859375 C36.89208462 94.23204401 36.89200409 90.0136058 36.9375 85.625 C36.94201172 84.79355469 36.94652344 83.96210938 36.95117188 83.10546875 C36.96286836 81.07028103 36.98080065 79.03513077 37 77 C35.95972945 80.12081164 35.99004749 82.06014462 36.125 85.3125 C36.17134254 91.16710707 34.86051356 94.49546252 31.375 99.1875 C25.39058814 103.75455115 17.39003734 104.9489462 10 105 C9.38261963 104.83733643 8.76523926 104.67467285 8.12915039 104.50708008 C5.89359183 103.97465775 3.96641916 103.88595415 1.671875 103.90234375 C0.47304688 103.90717773 0.47304688 103.90717773 -0.75 103.91210938 C-1.575 103.92048828 -2.4 103.92886719 -3.25 103.9375 C-4.09046875 103.94201172 -4.9309375 103.94652344 -5.796875 103.95117188 C-7.86461401 103.96292039 -9.93231624 103.98085478 -12 104 C-12 103.01 -12 102.02 -12 101 C-11.17274414 100.82871582 -10.34548828 100.65743164 -9.49316406 100.48095703 C-6.41344055 99.84053713 -3.33481406 99.19513912 -0.25683594 98.54638672 C1.07347701 98.26705337 2.40420444 97.98968619 3.73535156 97.71435547 C5.65278168 97.31739871 7.56860224 96.91269231 9.484375 96.5078125 C10.63647461 96.26691895 11.78857422 96.02602539 12.97558594 95.77783203 C16.25633992 95.04711009 16.25633992 95.04711009 20 93 C20 82.44 20 71.88 20 61 C19.26221316 70.99151842 19.26221316 70.99151842 19 81 C17.20034229 86.21900737 15.44509185 90.30840705 10.32885742 92.82055664 C2.96108107 95.63284014 -4.26984862 95.33728482 -12.0625 95.1875 C-13.41860486 95.17241956 -14.77472602 95.15873712 -16.13085938 95.14648438 C-19.42099602 95.11135836 -22.71028183 95.0621664 -26 95 C-26 94.01 -26 93.02 -26 92 C-25.10861328 91.75878418 -25.10861328 91.75878418 -24.19921875 91.51269531 C-21.46370046 90.76712831 -18.7319141 90.00866239 -16 89.25 C-15.06542969 88.99734375 -14.13085938 88.7446875 -13.16796875 88.484375 C-7.37752752 86.86467116 -2.28745782 84.86819646 3 82 C3.0095874 81.32888184 3.0191748 80.65776367 3.02905273 79.96630859 C3.05192057 78.3655599 3.07478841 76.7648112 3.09765625 75.1640625 C3.01672427 72.54186628 2.80901714 70.01862679 2.52734375 67.4140625 C1.79733719 60.48126324 1.62551886 53.53416118 1.39453125 46.5703125 C1.21331579 41.63375342 1.00431805 36.85420393 0 32 C-0.64066406 32.08378906 -1.28132813 32.16757812 -1.94140625 32.25390625 C-7.19995076 32.87301954 -11.82111354 33.21207981 -17 32 C-17.33 31.34 -17.66 30.68 -18 30 C-19.5159375 30.3403125 -19.5159375 30.3403125 -21.0625 30.6875 C-25.8444048 31.06701625 -27.80501486 30.14029854 -32 28 C-32 27.67 -32 27.34 -32 27 C-31.03175293 26.78065796 -31.03175293 26.78065796 -30.04394531 26.55688477 C-27.11252666 25.89254582 -24.18126194 25.22753005 -21.25 24.5625 C-20.23421875 24.33240234 -19.2184375 24.10230469 -18.171875 23.86523438 C-16.70234375 23.53168945 -16.70234375 23.53168945 -15.203125 23.19140625 C-14.30239258 22.98717041 -13.40166016 22.78293457 -12.47363281 22.57250977 C-11.65733398 22.38358154 -10.84103516 22.19465332 -10 22 C-8.88189941 21.7987854 -8.88189941 21.7987854 -7.74121094 21.59350586 C-7.16661133 21.39764893 -6.59201172 21.20179199 -6 21 C-4.85771342 18.24236568 -4.85771342 18.24236568 -4 15 C-3.484375 14.071875 -2.96875 13.14375 -2.4375 12.1875 C-0.61307161 8.14202835 -0.28297254 4.39095325 0 0 Z M23 25 C23.66 25.66 24.32 26.32 25 27 C25 26.34 25 25.68 25 25 C24.34 25 23.68 25 23 25 Z M20 41 C21 43 21 43 21 43 Z M94 42 C95 44 95 44 95 44 Z M20 44 C20 45.65 20 47.3 20 49 C20.33 49 20.66 49 21 49 C21 47.35 21 45.7 21 44 C20.67 44 20.34 44 20 44 Z M94 45 C95 47 95 47 95 47 Z M20 50 C21 52 21 52 21 52 Z M77 54 C78 56 78 56 78 56 Z M94 55 C94 57.31 94 59.62 94 62 C94.66 61.34 95.32 60.68 96 60 C95.67958603 57.39719432 95.67958603 57.39719432 95 55 C94.67 55 94.34 55 94 55 Z M77 59 C78 61 78 61 78 61 Z M77 62 C77 65.96 77 69.92 77 74 C77.99 74.495 77.99 74.495 79 75 C79.07654536 70.48382401 79.10228696 66.40914783 78 62 C77.67 62 77.34 62 77 62 Z M37 64 C36.06213918 69.05009595 36.06213918 69.05009595 37 74 C38.23267348 72.99163938 38.23267348 72.99163938 38.09765625 70.93359375 C38.08605469 70.10988281 38.07445312 69.28617187 38.0625 68.4375 C38.04896484 67.19806641 38.04896484 67.19806641 38.03515625 65.93359375 C38.02355469 65.29550781 38.01195312 64.65742188 38 64 C37.67 64 37.34 64 37 64 Z M77 75 C77.33 75.99 77.66 76.98 78 78 C78 77.01 78 76.02 78 75 C77.67 75 77.34 75 77 75 Z M57 77 C58 81 58 81 58 81 Z " fill="#FB7240" transform="translate(345,254)"/>
<path d="M0 0 C0.88171875 0.66515625 0.88171875 0.66515625 1.78125 1.34375 C2.58433594 1.9315625 3.38742187 2.519375 4.21484375 3.125 C7.11084789 5.62869917 9.13917034 8.21516391 11.34375 11.34375 C12.45943359 12.890625 12.45943359 12.890625 13.59765625 14.46875 C19.49321301 24.11146258 20.34832961 34.01622875 20.171875 45.078125 C20.16439198 46.45102097 20.15870883 47.8239278 20.15472412 49.19683838 C20.13962928 52.76772839 20.10049335 56.33794209 20.0559082 59.90856934 C20.01460103 63.56916155 19.99663838 67.22986568 19.9765625 70.890625 C19.93397817 78.04193924 19.86593003 85.1927999 19.78125 92.34375 C19.12125 92.34375 18.46125 92.34375 17.78125 92.34375 C17.69875 93.16875 17.61625 93.99375 17.53125 94.84375 C15.16547807 105.88401899 7.67806424 114.76469886 -1.609375 120.84375 C-11.38155118 126.4612884 -23.03423885 130.19525895 -34.2578125 127.65625 C-41.65131192 125.57845157 -47.93824462 122.75677767 -54.21875 118.34375 C-54.85425781 117.90417969 -55.48976563 117.46460938 -56.14453125 117.01171875 C-61.99515505 112.51024102 -67.02268069 106.01994868 -68.8671875 98.80859375 C-69.09393755 95.5747062 -68.96792572 93.37386661 -67.03125 90.7109375 C-64.09057351 88.03063341 -61.19272834 86.34375 -57.21875 86.34375 C-50.61266471 87.93410387 -48.64107678 91.34942265 -45.046875 96.89453125 C-41.59180413 101.5234403 -36.87103147 104.26611877 -31.21875 105.34375 C-23.861168 106.04066382 -18.42886694 105.42711456 -12.21875 101.34375 C-11.31125 100.76625 -10.40375 100.18875 -9.46875 99.59375 C-5.14930693 95.27430693 -2.40132137 89.34571441 -2.12109375 83.203125 C-2.13269531 82.50703125 -2.14429688 81.8109375 -2.15625 81.09375 C-2.176875 79.85625 -2.1975 78.61875 -2.21875 77.34375 C-2.98058594 77.74207031 -2.98058594 77.74207031 -3.7578125 78.1484375 C-4.44617188 78.50164062 -5.13453125 78.85484375 -5.84375 79.21875 C-6.51664062 79.56679688 -7.18953125 79.91484375 -7.8828125 80.2734375 C-19.28008826 85.49560064 -31.45387803 85.37516189 -43.21875 81.34375 C-57.28003674 74.70237389 -65.88939851 64.84245709 -71.21875 50.34375 C-75.04648198 39.04768763 -72.22698382 26.89401059 -67.21875 16.34375 C-60.62026743 4.51926924 -50.97096389 -2.45361091 -38.21875 -6.65625 C-25.11875389 -9.91557918 -11.18181896 -7.52231457 0 0 Z M-45.15625 21.34375 C-49.99710215 28.38498948 -52.20498156 33.73421499 -51.21875 42.34375 C-50.22228454 45.84617811 -49.08101172 49.20468677 -47.21875 52.34375 C-46.22875 52.67375 -45.23875 53.00375 -44.21875 53.34375 C-43.97125 53.941875 -43.72375 54.54 -43.46875 55.15625 C-41.12590899 59.25622177 -36.58749437 60.88750188 -32.21875 62.34375 C-23.86035555 63.23429431 -17.06868878 62.44275452 -10.21875 57.34375 C-4.45061894 51.61842511 -1.75980714 46.1230881 -0.84375 38.03125 C-1.46701675 31.90246032 -3.81388791 26.45104314 -7.21875 21.34375 C-7.87875 21.34375 -8.53875 21.34375 -9.21875 21.34375 C-9.71375 19.85875 -9.71375 19.85875 -10.21875 18.34375 C-12.24245947 17.13816998 -12.24245947 17.13816998 -14.65625 16.21875 C-15.45933594 15.88617188 -16.26242187 15.55359375 -17.08984375 15.2109375 C-17.79238281 14.92476563 -18.49492187 14.63859375 -19.21875 14.34375 C-19.87875 14.01375 -20.53875 13.68375 -21.21875 13.34375 C-30.40753753 12.22705707 -38.89477409 14.12903448 -45.15625 21.34375 Z " fill="#030101" transform="translate(454.21875,396.65625)"/>
<path d="M0 0 C16.88957753 -0.71476269 30.46525638 4.36518718 43.390625 15.44140625 C50.00772718 21.92973249 55.35850495 29.48039478 59 38 C59.515625 39.20011719 60.03125 40.40023437 60.5625 41.63671875 C62.00622884 45.50063294 62.34243794 49.0063533 62.51660156 53.10375977 C62.68530182 60.76967901 62.68530182 60.76967901 65.9140625 67.4375 C68.22472907 69.09150832 68.22472907 69.09150832 70.6796875 70.4765625 C74.89409519 73.24359785 76.81061364 77.5791237 79 82 C79.3403125 82.64710938 79.680625 83.29421875 80.03125 83.9609375 C83.8489409 92.33864808 82.74809479 101.64749442 80.0625 110.1875 C76.30642737 119.71561645 69.47850577 127.78352185 60 132 C49.18822786 135.95199992 39.79900999 136.06853458 29 132 C19.0517384 127.13489125 19.0517384 127.13489125 17 122 C16.34 122 15.68 122 15 122 C7.28169488 111.76485626 5.93740591 101.55189267 7 89 C8.62402624 82.12557074 12.19969958 76.15232245 17 71 C18.05445313 70.38253906 19.10890625 69.76507813 20.1953125 69.12890625 C22.5748537 67.18284736 22.96826525 66.21675609 23.42138672 63.12182617 C23.43857856 59.47429078 23.25827589 55.8883212 23 52.25 C22.94199219 51.0125 22.88398438 49.775 22.82421875 48.5 C22.35652298 39.87972497 21.42252122 31.79392645 18 23.8125 C16.50923631 20.24690475 15.16485968 16.68872232 14 13 C13.34 13 12.68 13 12 13 C10.44921875 11.35546875 10.44921875 11.35546875 8.6875 9.1875 C6.02432354 6.02846014 3.65197184 3.99198464 0 2 C0 1.34 0 0.68 0 0 Z " fill="#FE6841" transform="translate(402,64)"/>
<path d="M0 0 C0.70447266 0.35078613 1.40894531 0.70157227 2.13476562 1.06298828 C12.36464238 6.25643501 21.1928455 12.68948614 30 20 C30.95519531 20.72574219 31.91039062 21.45148437 32.89453125 22.19921875 C33.58933594 22.79347656 34.28414062 23.38773438 35 24 C35 24.66 35 25.32 35 26 C35.66 26 36.32 26 37 26 C45.90258201 34.12393052 55.2179456 46.92994038 60 58 C60 58.66 60 59.32 60 60 C60.66 60.33 61.32 60.66 62 61 C64.73451914 66.21957337 66.74243489 71.76011191 68.15625 77.47265625 C68.35049561 78.23255859 68.54474121 78.99246094 68.74487305 79.77539062 C69.11732941 81.27610941 69.46103976 82.78431654 69.77270508 84.29882812 C70.30621042 86.72446865 70.30621042 86.72446865 72 90 C74.56502219 91.50579814 77.14722161 92.22731458 80 93 C81.72562264 94.72562264 81.1453672 97.03708403 81.16113281 99.39013672 C81.17074036 100.54158173 81.1803479 101.69302673 81.19024658 102.87936401 C81.1966214 104.76052414 81.1966214 104.76052414 81.203125 106.6796875 C81.20882507 107.95852814 81.21452515 109.23736877 81.22039795 110.55496216 C81.23091659 113.26695149 81.23675341 115.9789111 81.24023438 118.69091797 C81.24571747 122.16699537 81.26973724 125.64268071 81.29820633 129.11863518 C81.3213069 132.43064552 81.3232809 135.74260071 81.328125 139.0546875 C81.3404718 140.30474579 81.3528186 141.55480408 81.36553955 142.84274292 C81.36253845 144.00049225 81.35953735 145.15824158 81.35644531 146.35107422 C81.36009094 147.37175995 81.36373657 148.39244568 81.36749268 149.44406128 C81 152 81 152 79.70819092 153.84133911 C76.95130922 155.71132388 74.22291602 155.18242921 71 155 C70.81824219 155.60585937 70.63648438 156.21171875 70.44921875 156.8359375 C68.6328125 162.890625 66.81640625 168.9453125 65 175 C64.34 175 63.68 175 63 175 C62.731875 175.845625 62.46375 176.69125 62.1875 177.5625 C60.13858793 183.49356126 58.0312452 188.18490156 54 193 C52.77761696 194.67735071 51.57054577 196.36591637 50.375 198.0625 C49.48941406 199.31740234 49.48941406 199.31740234 48.5859375 200.59765625 C46.986311 202.90669663 46.986311 202.90669663 45.9375 205.1875 C44.56330997 207.84426739 42.3349547 209.16539273 40 211 C38.64172029 212.64639965 37.30745749 214.31295807 36 216 C32.90136714 219.30752946 29.47530332 222.07783759 25.875 224.8125 C25.30168945 225.24900879 24.72837891 225.68551758 24.13769531 226.13525391 C22.42951562 227.42945906 20.71605859 228.71626596 19 230 C18.08992187 230.68191406 17.17984375 231.36382812 16.2421875 232.06640625 C3.93196544 241 3.93196544 241 -2 241 C-2.625 238.375 -2.625 238.375 -2 235 C2.12273406 231.64159304 6.75751213 229.04114829 12 228 C12 227.34 12 226.68 12 226 C12.99 226 13.98 226 15 226 C15 225.34 15 224.68 15 224 C16.36328125 222.84375 16.36328125 222.84375 18.3125 221.5 C26.83148713 215.28792443 34.16632738 208.3157738 40.44140625 199.8359375 C40.95574219 199.23007813 41.47007812 198.62421875 42 198 C42.66 198 43.32 198 44 198 C44.11408203 197.21882813 44.11408203 197.21882813 44.23046875 196.421875 C45.32199232 192.98662316 47.32049832 190.21640633 49.3125 187.25 C54.50599115 179.3156411 58.18952939 171.9148309 61.0703125 162.83203125 C62 160 62 160 62.984375 157.74609375 C73.61995211 128.9891295 69.14865115 94.33577829 57.04150391 66.82177734 C53.10067866 58.48888732 48.10346393 50.94952057 42.6875 43.51171875 C41 41 41 41 41 39 C40.40832031 38.74734375 39.81664062 38.4946875 39.20703125 38.234375 C36.73986939 36.85451102 35.46288171 35.43638893 33.6875 33.25 C30.81108055 29.82569113 27.79552851 26.98856968 24.28515625 24.2265625 C23.86105469 23.82179687 23.43695313 23.41703125 23 23 C23 22.34 23 21.68 23 21 C22.278125 20.7525 21.55625 20.505 20.8125 20.25 C17.74086887 18.88483061 15.5895248 17.1247383 13 15 C11.68861096 14.29114106 10.36222983 13.60543548 9 13 C9 12.34 9 11.68 9 11 C8.49082031 10.91234375 7.98164063 10.8246875 7.45703125 10.734375 C3.9730971 9.69307195 0.89141088 7.93715969 -2.3125 6.25 C-20.30049029 -2.97853126 -38.30433006 -6.18764232 -58.38134766 -6.24023438 C-60.5996729 -6.24988976 -62.81704917 -6.28097461 -65.03515625 -6.3125 C-78.45531081 -6.41398041 -90.78580007 -4.20523122 -103.4375 0.4375 C-104.25669922 0.72431641 -105.07589844 1.01113281 -105.91992188 1.30664062 C-109.90393333 2.73199612 -113.70406384 4.29463792 -117.47265625 6.22265625 C-121 8 -121 8 -123 8 C-123 8.66 -123 9.32 -123 10 C-124.093125 10.474375 -125.18625 10.94875 -126.3125 11.4375 C-131.33901846 13.91485553 -135.35729449 17.43343714 -139.58203125 21.07421875 C-142 23 -142 23 -145 24 C-145 24.66 -145 25.32 -145 26 C-146.3984375 27.3046875 -146.3984375 27.3046875 -148.375 28.875 C-157.9811354 37.08943381 -164.74130426 47.14137198 -171 58 C-171.50660156 58.84949219 -172.01320313 59.69898437 -172.53515625 60.57421875 C-175.10161282 64.98134096 -176.83682555 69.03007281 -178 74 C-178.66 74 -179.32 74 -180 74 C-180.103125 75.155 -180.20625 76.31 -180.3125 77.5 C-180.68610238 80.56887668 -181.25278356 82.62646361 -182.4375 85.5625 C-184.92583374 91.74085061 -185.29631106 98.42998118 -186 105 C-186.1134375 106.01449219 -186.226875 107.02898437 -186.34375 108.07421875 C-188.92787001 134.38199605 -184.69964947 161.07955441 -170.3203125 183.64453125 C-169 186 -169 186 -169 189 C-168.34 189 -167.68 189 -167 189 C-163 195.75 -163 195.75 -163 198 C-162.01 198.33 -161.02 198.66 -160 199 C-158.50303472 200.69941201 -157.07374919 202.45912886 -155.6875 204.25 C-153.11233495 207.49420303 -150.69608504 210.49442465 -147.4375 213.0625 C-146.2309375 214.0215625 -146.2309375 214.0215625 -145 215 C-145 215.66 -145 216.32 -145 217 C-144.47277344 217.226875 -143.94554687 217.45375 -143.40234375 217.6875 C-139.56125401 219.78604659 -136.26433265 222.62913365 -132.86523438 225.3671875 C-129.70475997 227.86016381 -126.83384432 229.73877271 -123 231 C-123 231.66 -123 232.32 -123 233 C-122.38125 233.144375 -121.7625 233.28875 -121.125 233.4375 C-119 234 -119 234 -117 235 C-117 236.98 -117 238.96 -117 241 C-118.65 240.67 -120.3 240.34 -122 240 C-122 239.34 -122 238.68 -122 238 C-122.9075 237.71125 -123.815 237.4225 -124.75 237.125 C-127.32202908 236.23468224 -129.61346766 235.28505587 -132 234 C-132 233.34 -132 232.68 -132 232 C-132.721875 231.938125 -133.44375 231.87625 -134.1875 231.8125 C-137.85956016 230.75168262 -139.39427842 228.73934833 -142 226 C-142.97066406 225.53207031 -142.97066406 225.53207031 -143.9609375 225.0546875 C-146.29523134 223.84729414 -147.41034662 222.59494444 -149.0625 220.5625 C-152.05241998 217.01197003 -155.24455081 213.74024153 -158.5625 210.5 C-173.47424463 195.71587729 -184.70791345 174.28633177 -190 154 C-190.61488281 154.03480469 -191.22976563 154.06960937 -191.86328125 154.10546875 C-192.67152344 154.13253906 -193.47976563 154.15960938 -194.3125 154.1875 C-195.11300781 154.22230469 -195.91351563 154.25710937 -196.73828125 154.29296875 C-199 154 -199 154 -200.62184143 152.82702637 C-202.52839135 150.29951099 -202.35127863 148.62148192 -202.31225586 145.47460938 C-202.30125099 143.77769958 -202.30125099 143.77769958 -202.2900238 142.04650879 C-202.25280968 140.21364319 -202.25280968 140.21364319 -202.21484375 138.34375 C-202.18941246 136.46302795 -202.18941246 136.46302795 -202.16346741 134.54431152 C-202.12291979 131.89089367 -202.07595842 129.23847268 -202.01879883 126.58544922 C-201.94677249 123.1858673 -201.90644215 119.78675921 -201.87511349 116.38658905 C-201.84021817 113.14280869 -201.776025 109.89962488 -201.71484375 106.65625 C-201.70420395 105.4343396 -201.69356415 104.2124292 -201.68260193 102.95349121 C-201.65320023 101.82221802 -201.62379852 100.69094482 -201.59350586 99.52539062 C-201.5755748 98.5285022 -201.55764374 97.53161377 -201.53916931 96.5045166 C-201 94 -201 94 -199.16603088 92.13513184 C-196.16188703 90.56077786 -194.21169363 91.19707659 -191 92 C-190.82984375 91.24976562 -190.6596875 90.49953125 -190.484375 89.7265625 C-187.38958438 76.65601062 -181.76522912 65.06220267 -176 53 C-175.34 53 -174.68 53 -174 53 C-173.690625 52.05125 -173.38125 51.1025 -173.0625 50.125 C-172 47 -172 47 -171 45 C-170.34 45 -169.68 45 -169 45 C-168.60167969 44.15888672 -168.60167969 44.15888672 -168.1953125 43.30078125 C-164.57830738 36.33863741 -160.00101069 30.57847653 -153.9375 25.62890625 C-152.12007013 24.10094606 -150.59327209 22.50508879 -149 20.75 C-141.03284506 12.65493202 -130.35312323 6.39499908 -120.33203125 1.21875 C-117.98210317 0.04321134 -117.98210317 0.04321134 -115.84375 -1.4375 C-108.23638312 -5.61737191 -99.30168058 -7.59956831 -91 -10 C-89.96504395 -10.30333252 -89.96504395 -10.30333252 -88.90917969 -10.61279297 C-60.3182089 -18.58365547 -26.06442308 -13.07349004 0 0 Z " fill="#B5CFEF" transform="translate(462,22)"/>
<path d="M0 0 C10.99871331 10.29147897 15.06066995 24.67859831 15.6796875 39.3046875 C15.91834987 50.64476615 15.83645537 61.99436839 15.76171875 73.3359375 C15.10171875 73.3359375 14.44171875 73.3359375 13.76171875 73.3359375 C13.39046875 74.5115625 13.39046875 74.5115625 13.01171875 75.7109375 C11.76171875 78.3359375 11.76171875 78.3359375 10.07421875 79.6484375 C6.77680271 80.62875038 4.18628688 80.69641836 0.76171875 80.3359375 C-1.9296734 78.54167607 -3.96062298 76.61359577 -6.23828125 74.3359375 C-7.02203125 74.9546875 -7.80578125 75.5734375 -8.61328125 76.2109375 C-12.86616199 79.0164509 -17.25620301 79.66249796 -22.23828125 80.3359375 C-23.26566406 80.48289062 -24.29304688 80.62984375 -25.3515625 80.78125 C-38.66404696 82.27990095 -49.74278078 78.59655893 -60.48046875 70.68359375 C-62.42578125 69.0859375 -62.42578125 69.0859375 -65.23828125 66.3359375 C-65.23828125 65.6759375 -65.23828125 65.0159375 -65.23828125 64.3359375 C-65.89828125 64.3359375 -66.55828125 64.3359375 -67.23828125 64.3359375 C-68.01080366 62.96188577 -68.78120445 61.58664116 -69.55078125 60.2109375 C-70.19466797 59.06238281 -70.19466797 59.06238281 -70.8515625 57.890625 C-71.30917969 57.04757812 -71.76679688 56.20453125 -72.23828125 55.3359375 C-72.7590625 54.3975 -73.27984375 53.4590625 -73.81640625 52.4921875 C-79.03916711 40.89880624 -77.47968029 28.8730375 -73.23828125 17.3359375 C-70.47402584 11.45342123 -67.1429336 6.64246151 -62.23828125 2.3359375 C-61.74972656 1.85640625 -61.26117188 1.376875 -60.7578125 0.8828125 C-43.56924992 -15.28505159 -18.05650622 -13.42420881 0 0 Z M-47.48828125 16.4609375 C-52.75094614 21.96281443 -55.50842553 27.67696812 -55.86328125 35.3359375 C-55.51947821 42.37485232 -53.41342284 48.25041684 -48.30078125 53.21875 C-40.38398408 59.42623869 -33.16829835 60.21410228 -23.23828125 59.3359375 C-16.59522126 57.65925463 -11.94478633 52.94189808 -8.23828125 47.3359375 C-7.03562695 44.67406266 -6.53074969 42.23403387 -6.23828125 39.3359375 C-6.15707031 38.54058594 -6.07585937 37.74523437 -5.9921875 36.92578125 C-5.66669277 30.54411184 -7.21909509 25.9160405 -10.23828125 20.3359375 C-10.89828125 20.3359375 -11.55828125 20.3359375 -12.23828125 20.3359375 C-12.49480469 19.73136719 -12.75132812 19.12679688 -13.015625 18.50390625 C-15.11032238 14.78966649 -18.4236353 13.06455049 -22.23828125 11.3359375 C-32.01248995 9.12834208 -39.21719314 11.05291835 -47.48828125 16.4609375 Z " fill="#030201" transform="translate(308.23828125,399.6640625)"/>
<path d="M0 0 C11.04256144 10.21216082 15.31340511 21.34304264 17 36 C17.32616892 45.68069345 13.62877778 54.26043055 8 62 C7.42507813 62.95132813 6.85015625 63.90265625 6.2578125 64.8828125 C0.87773416 72.31067153 -9.9365487 79.20866342 -19 81 C-34.12333557 82.55265302 -46.7211114 80.32814793 -59 71 C-59.60328125 70.6184375 -60.2065625 70.236875 -60.828125 69.84375 C-69.13149677 64.00894821 -73.68987826 51.51495685 -76 42 C-77.6246879 30.33178687 -73.72514264 17.45501027 -67 8 C-50.23742176 -12.58719502 -21.34813254 -16.55279494 0 0 Z M-49 19 C-53.31247739 24.88594887 -55.37065629 30.67673036 -55 38 C-53.91034519 44.93228013 -51.4331114 50.46473328 -46 55 C-38.78301051 60.15125699 -31.71369222 61.16331706 -23 60 C-15.84381849 58.17186624 -11.25267269 52.77875141 -7 47 C-4.26960509 41.76674309 -4.24710506 35.78003716 -5 30 C-7.74288432 21.46522156 -12.64914814 16.51010684 -20.25 12.125 C-30.55317844 9.03404647 -41.63874026 10.66139787 -49 19 Z " fill="#020101" transform="translate(556,399)"/>
<path d="M0 0 C8.08134625 4.83170437 12.27245533 10.4970535 15.21484375 19.32421875 C16.10603819 30.65511949 15.4578903 38.06169093 7.96484375 47.01171875 C-0.12300288 53.8128625 -6.24234757 56.74062075 -16.87890625 56.59765625 C-25.23676831 55.81129826 -32.38364738 51.68599586 -37.78515625 45.32421875 C-43.09543098 36.63227653 -45.37672179 28.21460724 -43.32421875 18.0390625 C-40.62226449 10.04445667 -35.14456165 3.42514012 -27.78515625 -0.67578125 C-19.53387132 -4.7160656 -8.17995721 -3.87901465 0 0 Z " fill="#FDFCFC" transform="translate(372.78515625,134.67578125)"/>
<path d="M0 0 C6.42349945 3.97949866 10.62399638 9.86362292 13 17 C14.39267212 25.41507877 14.31418396 34.06845526 9.35546875 41.27734375 C8.90816406 41.84582031 8.46085937 42.41429687 8 43 C7.0409375 44.3921875 7.0409375 44.3921875 6.0625 45.8125 C0.03542656 52.20485062 -7.23707773 55.11634648 -15.875 55.4375 C-24.21724785 55.19554325 -31.31722778 52.47833146 -37.46484375 46.78125 C-44.79280988 38.27857174 -45.92605764 28.88599987 -45.26953125 18.06738281 C-44.43235008 11.64596061 -40.23420385 6.92737163 -35.6875 2.625 C-24.88699362 -5.65774127 -11.9978494 -6.76203879 0 0 Z " fill="#FDFCFC" transform="translate(462,136)"/>
<path d="M0 0 C2.2091516 1.81930132 3.00469063 3.16467067 4.125 5.75 C4.785 6.08 5.445 6.41 6.125 6.75 C5.71458626 11.98277523 5.04861463 15.13614442 1.125 18.75 C-2.6021434 20.18351669 -5.83144823 20.74654351 -9.8125 21.0625 C-15.73083652 21.71753919 -20.11541826 24.942862 -24.1875 29.125 C-28.50042312 35.83399152 -29.30726062 41.04295005 -29.28125 48.8828125 C-29.29208618 49.83767548 -29.30292236 50.79253845 -29.31408691 51.77633667 C-29.35974742 55.83700876 -29.37144024 59.89761328 -29.38623047 63.95849609 C-29.40193095 66.93349861 -29.43492246 69.90796981 -29.46875 72.8828125 C-29.46572876 73.79749298 -29.46270752 74.71217346 -29.45959473 75.65457153 C-29.51651447 80.48430259 -29.66474125 83.87109453 -32.875 87.75 C-36.43511057 90.12340705 -39.62377676 91.10293174 -43.875 90.75 C-46.95884805 89.08233968 -49.28790422 86.92419155 -50.875 83.75 C-50.97961661 82.29182353 -51.02366114 80.8290588 -51.03613281 79.3671875 C-51.04574036 78.45864014 -51.0553479 77.55009277 -51.06524658 76.61401367 C-51.06949646 75.62763916 -51.07374634 74.64126465 -51.078125 73.625 C-51.08667511 72.09999878 -51.08667511 72.09999878 -51.09539795 70.54418945 C-51.1048604 68.38542728 -51.11138685 66.22665058 -51.11523438 64.06787109 C-51.1248791 60.79107697 -51.15586547 57.51492643 -51.1875 54.23828125 C-51.19403623 52.13802455 -51.19928426 50.03776336 -51.203125 47.9375 C-51.2154718 46.96731934 -51.2278186 45.99713867 -51.24053955 44.99755859 C-51.19810815 31.79541384 -46.12993413 20.21527355 -36.875 10.75 C-27.67205988 3.13665863 -12.14677849 -5.28120804 0 0 Z " fill="#020101" transform="translate(380.875,390.25)"/>
<path d="M0 0 C1.96484375 1.31640625 1.96484375 1.31640625 4.77734375 3.69140625 C4.77734375 4.35140625 4.77734375 5.01140625 4.77734375 5.69140625 C5.43734375 5.69140625 6.09734375 5.69140625 6.77734375 5.69140625 C13.56567426 14.00097709 17.31254423 23.47997191 16.71484375 34.25390625 C15.21346622 45.23766821 11.02700087 54.81294256 2.16015625 61.734375 C-3.19807861 65.33374329 -7.86028017 67.64839378 -14.22265625 68.69140625 C-16.01703125 69.09359375 -16.01703125 69.09359375 -17.84765625 69.50390625 C-28.40548798 70.67467571 -37.96662549 66.44571393 -46.28515625 60.50390625 C-52.94036725 54.72063466 -58.09729208 45.88787978 -58.7265625 37.0546875 C-58.77126891 35.3715741 -58.78995631 33.68760644 -58.78515625 32.00390625 C-58.78273926 31.1219458 -58.78032227 30.23998535 -58.77783203 29.33129883 C-58.4956296 19.2706899 -54.575647 11.3893062 -47.70703125 4.078125 C-45.34911997 1.87533946 -43.04703812 0.26654229 -40.22265625 -1.30859375 C-39.56136719 -1.68113281 -38.90007812 -2.05367188 -38.21875 -2.4375 C-26.19632525 -8.27580102 -11.29659753 -6.65089661 0 0 Z M-38.22265625 6.69140625 C-39.10953125 7.28953125 -39.99640625 7.88765625 -40.91015625 8.50390625 C-47.72347225 14.9489349 -51.29934346 22.17324658 -51.66015625 31.56640625 C-51.39005446 40.5022737 -48.32936024 47.43205977 -42.22265625 53.93359375 C-35.21607299 60.09172357 -28.23068231 62.02379356 -19.09765625 61.90234375 C-11.3571276 61.33442453 -4.67965045 58.22865037 0.77734375 52.69140625 C7.3356571 43.40996714 8.78974422 35.86457456 7.77734375 24.69140625 C6.05718225 17.32372657 1.03870682 10.4473532 -5.3125 6.33984375 C-15.23273099 1.20423068 -28.83215147 -0.07631415 -38.22265625 6.69140625 Z " fill="#FE6445" transform="translate(380.22265625,129.30859375)"/>
<path d="M0 0 C0.598125 0.350625 1.19625 0.70125 1.8125 1.0625 C2.1875 3.3125 2.1875 3.3125 1.8125 6.0625 C-3.16047297 10.0625 -3.16047297 10.0625 -6.1875 10.0625 C-6.1875 10.7225 -6.1875 11.3825 -6.1875 12.0625 C-8.0859375 13.7890625 -8.0859375 13.7890625 -10.5625 15.6875 C-11.37460937 16.31914063 -12.18671875 16.95078125 -13.0234375 17.6015625 C-15.1875 19.0625 -15.1875 19.0625 -17.1875 19.0625 C-17.1875 19.7225 -17.1875 20.3825 -17.1875 21.0625 C-17.991875 21.68125 -18.79625 22.3 -19.625 22.9375 C-25.02058763 27.21008255 -30.11767781 33.92285562 -33.1875 40.0625 C-33.8475 40.0625 -34.5075 40.0625 -35.1875 40.0625 C-35.29578125 40.61421875 -35.4040625 41.1659375 -35.515625 41.734375 C-36.3160787 44.50804014 -37.56174145 46.77372906 -38.9375 49.3125 C-41.41735763 54.19453297 -43.35601745 59.04282658 -45 64.25 C-45.20657227 64.8903418 -45.41314453 65.53068359 -45.62597656 66.19042969 C-48.51590499 75.71505095 -48.39671236 85.43169424 -48.4375 95.3125 C-48.458125 96.54613281 -48.47875 97.77976562 -48.5 99.05078125 C-48.58174482 118.48561189 -41.5779963 136.44912333 -30.38671875 152.22265625 C-29.1875 154.0625 -29.1875 154.0625 -28.1875 157.0625 C-30.1675 159.0425 -30.1675 159.0425 -32.1875 161.0625 C-36.69502545 159.56343764 -38.58052242 155.97462249 -40.9375 152.125 C-41.37070557 151.42060791 -41.80391113 150.71621582 -42.25024414 149.99047852 C-57.28180931 124.79090684 -61.8973484 96.06597897 -54.97729492 67.46459961 C-52.25491668 56.98980073 -48.29105173 47.12782393 -42.38671875 38.015625 C-41.03252155 35.97574111 -41.03252155 35.97574111 -40.1875 33.0625 C-39.5275 33.0625 -38.8675 33.0625 -38.1875 33.0625 C-37.94257813 32.33675781 -37.69765625 31.61101562 -37.4453125 30.86328125 C-35.15675308 25.76732751 -30.99423752 22.07900911 -27.1875 18.0625 C-26.25744141 17.03576172 -26.25744141 17.03576172 -25.30859375 15.98828125 C-20.72722127 11.11005958 -6.98353678 -2.99294433 0 0 Z " fill="#FEFEFE" transform="translate(349.1875,49.9375)"/>
<path d="M0 0 C1.73934203 5.2180261 -0.92940555 10.09399692 -3 15 C-6.32225995 20.77905722 -10.46860558 25.70893232 -17.09765625 27.59765625 C-22.08260103 28.47835833 -25.70837742 27.97781283 -30.0859375 25.4140625 C-37.06616429 20.25724189 -41.20399578 13.50460822 -43 5 C-42.59375 2.671875 -42.59375 2.671875 -42 1 C-41.57589844 1.54269531 -41.15179688 2.08539063 -40.71484375 2.64453125 C-37.08173466 7.07612585 -33.85957366 10.93368183 -28 12 C-20.0893624 12.74575223 -12.51094868 13.09695478 -6 8 C-3.61611084 5.56391207 -3.61611084 5.56391207 -2 3 C-1.34 2.01 -0.68 1.02 0 0 Z " fill="#0B0908" transform="translate(424,225)"/>
<path d="M0 0 C1.299375 0.86625 1.299375 0.86625 2.625 1.75 C3.17542969 2.11351562 3.72585938 2.47703125 4.29296875 2.8515625 C5.86447935 3.90882592 7.40288887 5.01485578 8.9375 6.125 C14.46342363 9.50821855 20.54734478 11.08090164 27 10 C33.49518144 7.85205462 39.52126668 5.10904999 45 1 C44.59672868 6.84743421 43.89943885 10.38224347 40 15 C32.48934083 21.33016832 25.70368828 21.75389365 16 21 C9.70184677 19.35872302 5.61393483 15.26635897 2 10 C0.1785394 6.52266613 -0.22328622 3.90750883 0 0 Z " fill="#FCF9F8" transform="translate(380,217)"/>
<path d="M0 0 C0.99 0.33 1.98 0.66 3 1 C3 1.99 3 2.98 3 4 C3.66 4.33 4.32 4.66 5 5 C5.33 5.99 5.66 6.98 6 8 C6.66 8 7.32 8 8 8 C8 8.66 8 9.32 8 10 C8.63164062 10.10957031 9.26328125 10.21914063 9.9140625 10.33203125 C15.49731547 11.32157032 21.06682426 12.37811412 26.625 13.5 C27.81351562 13.7371875 29.00203125 13.974375 30.2265625 14.21875 C31.14179688 14.4765625 32.05703125 14.734375 33 15 C33.495 15.99 33.495 15.99 34 17 C27.21471663 18.37575627 20.53937723 19.30302332 13.62890625 19.75390625 C11.06033293 19.91817047 11.06033293 19.91817047 8.8828125 20.578125 C5.66107247 21.30000866 3.02859089 20.08572126 0 19 C-1.58696844 15.82606311 -1.1431447 12.41825795 -1.125 8.9375 C-1.12886719 8.19177734 -1.13273437 7.44605469 -1.13671875 6.67773438 C-1.12663501 1.12663501 -1.12663501 1.12663501 0 0 Z " fill="#F86544" transform="translate(460,266)"/>
<path d="M0 0 C0.22245975 2.24864725 0.42746557 4.49902623 0.625 6.75 C0.74101562 8.00296875 0.85703125 9.2559375 0.9765625 10.546875 C1.01026597 15.51251956 1.01026597 15.51251956 -1 18 C-6.46999274 20.20999706 -12.3336275 20.4467334 -18 19 C-18.33 18.34 -18.66 17.68 -19 17 C-20.5159375 17.3403125 -20.5159375 17.3403125 -22.0625 17.6875 C-26.8444048 18.06701625 -28.80501486 17.14029854 -33 15 C-33 14.67 -33 14.34 -33 14 C-32.35450195 13.85377197 -31.70900391 13.70754395 -31.04394531 13.55688477 C-28.11252666 12.89254582 -25.18126194 12.22753005 -22.25 11.5625 C-21.23421875 11.33240234 -20.2184375 11.10230469 -19.171875 10.86523438 C-18.1921875 10.64287109 -17.2125 10.42050781 -16.203125 10.19140625 C-15.30239258 9.98717041 -14.40166016 9.78293457 -13.47363281 9.57250977 C-11.30915943 9.07155338 -9.15320538 8.54708994 -7 8 C-6.9175 7.4225 -6.835 6.845 -6.75 6.25 C-5.66186883 2.98560649 -3.65852651 0 0 0 Z " fill="#F96443" transform="translate(346,267)"/>
<path d="M0 0 C3.2856634 2.42853382 4.70758271 4.12274814 6 8 C6 11.62603173 5.20839025 13.16064111 3 16 C-0.7373856 18.4915904 -2.57331583 18.45793285 -7 18 C-9.875 16.4375 -9.875 16.4375 -12 14 C-13.14888518 10.05070721 -13.43129396 7.97041141 -11.75 4.1875 C-8.25986481 -0.17516899 -5.39027785 -0.65055077 0 0 Z " fill="#0F0B0A" transform="translate(362,147)"/>
<path d="M0 0 C2.09765625 0.69921875 2.09765625 0.69921875 4.72265625 2.76171875 C6.58195546 6.73385796 6.41996601 9.55943852 5.09765625 13.69921875 C3.53515625 16.19921875 3.53515625 16.19921875 1.09765625 17.69921875 C-3.83566503 18.40397893 -5.74672278 18.46963273 -9.90234375 15.69921875 C-12.12006554 12.37263606 -12.66517073 10.56164998 -12.375 6.640625 C-10.74356521 -0.06039228 -5.97344628 -1.08698772 0 0 Z " fill="#0D0A09" transform="translate(449.90234375,147.30078125)"/>
<path d="M0 0 C2.03125 0.703125 2.03125 0.703125 4.15625 2.828125 C5.28664786 6.54228941 5.00151945 8.96065713 4.03125 12.703125 C2.32412715 15.54832976 0.94644409 15.72872678 -2.28125 16.703125 C-5.96875 16.703125 -5.96875 16.703125 -9.40625 14.703125 C-11.96875 11.703125 -11.96875 11.703125 -12.65625 8.203125 C-11.96875 4.703125 -11.96875 4.703125 -10.03125 1.703125 C-6.28873018 -0.74096958 -4.30812488 -0.77546248 0 0 Z " fill="#FFA376" transform="translate(380.96875,85.296875)"/>
<path d="M0 0 C0.66 0.66 1.32 1.32 2 2 C1.53846154 8.46153846 1.53846154 8.46153846 -1 11 C-3.9375 10.9375 -3.9375 10.9375 -7 10 C-8.875 7.4375 -8.875 7.4375 -10 5 C-7.07639721 -0.1827504 -5.94826701 -1.63577343 0 0 Z " fill="#FFFFFF" transform="translate(365,39)"/>
<path d="M0 0 C-0.99 0.66 -1.98 1.32 -3 2 C-2.34 2.33 -1.68 2.66 -1 3 C-1 3.66 -1 4.32 -1 5 C-3.97 4.01 -6.94 3.02 -10 2 C-10 1.67 -10 1.34 -10 1 C-6.59437148 0.22157062 -3.49234244 -0.09978121 0 0 Z " fill="#E5714E" transform="translate(323,280)"/>
<path d="" fill="#C47464" transform="translate(0,0)"/>
<path d="" fill="#C47464" transform="translate(0,0)"/>
<path d="" fill="#C47464" transform="translate(0,0)"/>
<path d="" fill="#C47464" transform="translate(0,0)"/>
<path d="" fill="#C47464" transform="translate(0,0)"/>
</svg>
