<?xml version="1.0" encoding="UTF-8"?>
<svg version="1.1" xmlns="http://www.w3.org/2000/svg" width="96" height="96">
<path d="M0 0 C0.87911545 0.00202423 1.7582309 0.00404846 2.66398621 0.00613403 C3.56312241 0.00517731 4.46225861 0.00422058 5.38864136 0.00323486 C7.29609751 0.00255279 9.20355597 0.00440895 11.11100769 0.00857544 C14.02780915 0.0139047 16.94445531 0.00864104 19.86125183 0.00222778 C21.71216363 0.00288893 23.56307533 0.00417084 25.41398621 0.00613403 C26.72355034 0.00309769 26.72355034 0.00309769 28.05957031 0 C28.87689133 0.00315216 29.69421234 0.00630432 30.53630066 0.009552 C31.2527626 0.0103476 31.96922455 0.01114319 32.70739746 0.01196289 C34.82961388 0.14466221 36.69226298 0.57427382 38.73820496 1.13894653 C39.44718933 1.26914185 40.15617371 1.39933716 40.88664246 1.53347778 C47.23734012 2.72562629 51.51574895 4.73128586 55.98820496 9.57644653 C63.33104564 20.32846325 61.93558285 36.36935798 61.98820496 48.82644653 C62.00198181 50.62372192 62.00198181 50.62372192 62.01603699 52.45730591 C61.9258479 78.82137933 61.9258479 78.82137933 54.24992371 86.65847778 C43.77519146 95.67766411 30.49835213 94.46246494 17.40226746 94.39968872 C14.74318136 94.3889666 12.08477064 94.39963777 9.42570496 94.41238403 C-15.98766868 94.43447746 -15.98766868 94.43447746 -24.26179504 88.13894653 C-25.69929504 85.38894653 -25.69929504 85.38894653 -26.26179504 83.13894653 C-26.92179504 83.13894653 -27.58179504 83.13894653 -28.26179504 83.13894653 C-28.75572895 81.85285448 -29.23082273 80.55953025 -29.69929504 79.26394653 C-30.09954895 78.18500122 -30.09954895 78.18500122 -30.50788879 77.08425903 C-32.93078558 67.61864152 -32.47949475 57.56917937 -32.50202942 47.86331177 C-32.51173431 45.34222393 -32.54284218 42.82195349 -32.57429504 40.30105591 C-32.72845184 17.0436858 -32.72845184 17.0436858 -26.38679504 9.01394653 C-21.72544128 4.36407393 -16.15058972 1.22536419 -9.44929504 1.07644653 C-8.72742004 1.09707153 -8.00554504 1.11769653 -7.26179504 1.13894653 C-5.35260123 -0.77024728 -2.539969 0.00991056 0 0 Z " fill="#0C2D29" transform="translate(33.26179504394531,0.861053466796875)"/>
<path d="M0 0 C0.87911545 0.00202423 1.7582309 0.00404846 2.66398621 0.00613403 C3.56312241 0.00517731 4.46225861 0.00422058 5.38864136 0.00323486 C7.29609751 0.00255279 9.20355597 0.00440895 11.11100769 0.00857544 C14.02780915 0.0139047 16.94445531 0.00864104 19.86125183 0.00222778 C21.71216363 0.00288893 23.56307533 0.00417084 25.41398621 0.00613403 C26.72355034 0.00309769 26.72355034 0.00309769 28.05957031 0 C28.87689133 0.00315216 29.69421234 0.00630432 30.53630066 0.009552 C31.2527626 0.0103476 31.96922455 0.01114319 32.70739746 0.01196289 C34.82961388 0.14466221 36.69226298 0.57427382 38.73820496 1.13894653 C39.44718933 1.26914185 40.15617371 1.39933716 40.88664246 1.53347778 C47.23734012 2.72562629 51.51574895 4.73128586 55.98820496 9.57644653 C63.33104564 20.32846325 61.93558285 36.36935798 61.98820496 48.82644653 C62.00198181 50.62372192 62.00198181 50.62372192 62.01603699 52.45730591 C61.9258479 78.82137933 61.9258479 78.82137933 54.24992371 86.65847778 C43.77519146 95.67766411 30.49835213 94.46246494 17.40226746 94.39968872 C14.74318136 94.3889666 12.08477064 94.39963777 9.42570496 94.41238403 C-15.98766868 94.43447746 -15.98766868 94.43447746 -24.26179504 88.13894653 C-25.69929504 85.38894653 -25.69929504 85.38894653 -26.26179504 83.13894653 C-26.92179504 83.13894653 -27.58179504 83.13894653 -28.26179504 83.13894653 C-28.75572895 81.85285448 -29.23082273 80.55953025 -29.69929504 79.26394653 C-30.09954895 78.18500122 -30.09954895 78.18500122 -30.50788879 77.08425903 C-32.93078558 67.61864152 -32.47949475 57.56917937 -32.50202942 47.86331177 C-32.51173431 45.34222393 -32.54284218 42.82195349 -32.57429504 40.30105591 C-32.72845184 17.0436858 -32.72845184 17.0436858 -26.38679504 9.01394653 C-21.72544128 4.36407393 -16.15058972 1.22536419 -9.44929504 1.07644653 C-8.72742004 1.09707153 -8.00554504 1.11769653 -7.26179504 1.13894653 C-5.35260123 -0.77024728 -2.539969 0.00991056 0 0 Z M-16.19929504 14.88894653 C-20.04455039 20.94813677 -20.57086044 26.84850537 -20.56257629 33.81863403 C-20.56686142 34.63083405 -20.57114655 35.44303406 -20.57556152 36.27984619 C-20.58127523 37.98921786 -20.58182705 39.69861384 -20.57746887 41.4079895 C-20.57431236 43.99972747 -20.59779251 46.59031831 -20.62312317 49.18191528 C-20.62539708 50.85248678 -20.62609923 52.5230613 -20.62507629 54.19363403 C-20.63428604 54.9564267 -20.64349579 55.71921936 -20.65298462 56.50512695 C-20.59733409 63.09438402 -19.61167236 69.72723034 -14.88679504 74.57644653 C-9.00721514 78.07619648 -4.33065311 78.44658503 2.38664246 78.43972778 C3.31739594 78.44401291 4.24814941 78.44829803 5.20710754 78.45271301 C7.1722177 78.45844475 9.13734906 78.45896511 11.10246277 78.45462036 C14.09599859 78.45146467 17.0885415 78.47491926 20.08195496 78.50027466 C21.99601622 78.50254832 23.91008012 78.50325084 25.82414246 78.50222778 C26.7129007 78.51143753 27.60165894 78.52064728 28.51734924 78.53013611 C35.03659905 78.48203633 39.85328765 77.47806867 45.05070496 73.26394653 C51.43492298 65.22456088 49.92055554 52.90810087 49.92570496 43.20144653 C49.93795105 41.99037231 49.95019714 40.7792981 49.96281433 39.53152466 C50.04862396 25.37672946 50.04862396 25.37672946 43.73820496 13.13894653 C37.97547533 8.74107392 31.36312362 8.9754134 24.37492371 8.93582153 C23.58350479 8.93012146 22.79208588 8.92442139 21.97668457 8.91854858 C20.30841898 8.90914152 18.64013516 8.90258177 16.97184753 8.89871216 C14.44376096 8.88901579 11.91649154 8.857956 9.38859558 8.82644653 C-4.5380893 8.30470941 -4.5380893 8.30470941 -16.19929504 14.88894653 Z " fill="#339887" transform="translate(33.26179504394531,0.861053466796875)"/>
<path d="M0 0 C5.88166008 6.38580237 6.29223871 11.63872577 6 20 C4.68 20.66 3.36 21.32 2 22 C1.505 20.515 1.505 20.515 1 19 C-1.04537283 21.04537283 -0.20937967 25.31180493 -0.24609375 28.12890625 C-0.2790644 29.82096809 -0.31227544 31.51302525 -0.34570312 33.20507812 C-0.39289353 35.87537024 -0.43725038 38.545648 -0.47680664 41.21606445 C-0.51685506 43.7913936 -0.5683526 46.36630996 -0.62109375 48.94140625 C-0.6295079 49.72818253 -0.63792206 50.5149588 -0.64659119 51.32557678 C-0.76036742 56.50065712 -1.5834106 61.01767194 -3 66 C-3.33 64.68 -3.66 63.36 -4 62 C-5.72082924 63.72082924 -6.77008306 65.91448866 -8 68 C-8.66 67.67 -9.32 67.34 -10 67 C-8.99088542 65.20963542 -7.98177083 63.41927083 -6.97265625 61.62890625 C-4.03327392 53.68431064 -4.81692577 44.40508516 -4.8125 36.0625 C-4.80025391 34.85142578 -4.78800781 33.64035156 -4.77539062 32.39257812 C-4.69276539 18.24227809 -4.69276539 18.24227809 -11 6 C-16.21261013 2.35117291 -23.24388771 2.83154462 -29.36328125 2.796875 C-30.15470016 2.79117493 -30.94611908 2.78547485 -31.76152039 2.77960205 C-33.42978598 2.77019498 -35.09806979 2.76363524 -36.76635742 2.75976562 C-39.29444399 2.75006925 -41.82171342 2.71900946 -44.34960938 2.6875 C-57.83869645 2.23951065 -57.83869645 2.23951065 -69.4375 8.25 C-72.81792582 14.19954945 -73.3008127 20.01459478 -73.265625 26.6796875 C-73.26753845 27.49188751 -73.2694519 28.30408752 -73.27142334 29.14089966 C-73.27277741 30.85028393 -73.26913567 32.55967876 -73.26074219 34.26904297 C-73.2500594 36.86059129 -73.26064955 39.45144211 -73.2734375 42.04296875 C-73.27211522 43.71354317 -73.26955143 45.38411717 -73.265625 47.0546875 C-73.27169769 48.1988765 -73.27169769 48.1988765 -73.27789307 49.36618042 C-73.23152781 54.79024865 -72.35790454 59.75353305 -71 65 C-73.51663465 62.81162204 -74.48663797 61.29899456 -75 58 C-75.09664581 56.61340988 -75.1477682 55.22314186 -75.16113281 53.83325195 C-75.17074036 53.02173172 -75.1803479 52.21021149 -75.19024658 51.37409973 C-75.19449646 50.50427963 -75.19874634 49.63445953 -75.203125 48.73828125 C-75.20882507 47.83305222 -75.21452515 46.92782318 -75.22039795 45.99516296 C-75.22983573 44.07955082 -75.23637708 42.16392253 -75.24023438 40.24829102 C-75.24990732 37.34036299 -75.28092875 34.43315192 -75.3125 31.52539062 C-75.31903401 29.65885834 -75.32428292 27.79232102 -75.328125 25.92578125 C-75.3404718 25.06608231 -75.3528186 24.20638336 -75.36553955 23.32063293 C-75.34401441 17.38702521 -74.19222304 12.50779696 -72 7 C-72.66 6.67 -73.32 6.34 -74 6 C-72.68 5.34 -71.36 4.68 -70 4 C-70.185625 3.401875 -70.37125 2.80375 -70.5625 2.1875 C-71 0 -71 0 -70 -3 C-66.94152152 -3.54372951 -64.11227195 -4 -61 -4 C-60.67 -2.35 -60.34 -0.7 -60 1 C-48.12 0.67 -36.24 0.34 -24 0 C-24.495 -1.98 -24.495 -1.98 -25 -4 C-24 -6 -24 -6 -22.24609375 -6.67578125 C-14.72443187 -7.76151679 -6.07738424 -4.20741986 0 0 Z " fill="#389785" transform="translate(87,8)"/>
<path d="M0 0 C1.56047445 0.00015913 3.12095416 0.00585397 4.68139648 0.01586914 C5.5012352 0.01728409 6.32107391 0.01869904 7.16575623 0.02015686 C9.79470406 0.0257725 12.42356797 0.0383276 15.05249023 0.05102539 C16.8304838 0.05603838 18.60847869 0.06060163 20.38647461 0.06469727 C24.75434569 0.07574701 29.12215371 0.09302208 33.48999023 0.11352539 C32.82999023 1.76352539 32.16999023 3.41352539 31.48999023 5.11352539 C33.46999023 5.77352539 35.44999023 6.43352539 37.48999023 7.11352539 C37.48999023 7.44352539 37.48999023 7.77352539 37.48999023 8.11352539 C23.62999023 8.44352539 9.76999023 8.77352539 -4.51000977 9.11352539 C-4.84000977 7.46352539 -5.17000977 5.81352539 -5.51000977 4.11352539 C-8.15000977 4.11352539 -10.79000977 4.11352539 -13.51000977 4.11352539 C-13.18000977 5.10352539 -12.85000977 6.09352539 -12.51000977 7.11352539 C-13.17000977 7.11352539 -13.83000977 7.11352539 -14.51000977 7.11352539 C-14.84000977 8.10352539 -15.17000977 9.09352539 -15.51000977 10.11352539 C-16.50000977 10.11352539 -17.49000977 10.11352539 -18.51000977 10.11352539 C-18.57188477 10.73227539 -18.63375977 11.35102539 -18.69750977 11.98852539 C-19.51000977 14.11352539 -19.51000977 14.11352539 -22.07250977 15.36352539 C-22.87688477 15.61102539 -23.68125977 15.85852539 -24.51000977 16.11352539 C-24.16214268 18.08889284 -24.16214268 18.08889284 -23.51000977 20.11352539 C-22.85000977 20.44352539 -22.19000977 20.77352539 -21.51000977 21.11352539 C-22.17000977 21.44352539 -22.83000977 21.77352539 -23.51000977 22.11352539 C-24.50000977 21.78352539 -25.49000977 21.45352539 -26.51000977 21.11352539 C-26.51000977 21.77352539 -26.51000977 22.43352539 -26.51000977 23.11352539 C-27.17000977 23.11352539 -27.83000977 23.11352539 -28.51000977 23.11352539 C-27.66007667 15.83047799 -26.06371426 11.04708918 -20.51000977 6.11352539 C-15.5563083 2.52209183 -10.60746585 0.93931236 -4.51000977 1.11352539 C-3.51000977 0.11352539 -3.51000977 0.11352539 0 0 Z " fill="#368F7E" transform="translate(30.510009765625,0.886474609375)"/>
<path d="M0 0 C2.62195076 1.68073767 3.66412668 2.88508717 4.5625 5.8671875 C5.19438897 9.35574117 5.20702043 11.48244893 3.875 14.8125 C1.68318613 17.36961619 0.13095521 18.71915469 -3 20 C-7.30969005 20 -9.39820214 19.44480711 -12.875 16.875 C-15.47092206 13.36287015 -16.07654977 11.36333675 -16 7 C-14.41305494 3.88488563 -12.94813665 1.77882653 -10.25 -0.4375 C-6.69202379 -1.32699405 -3.5178081 -0.97516241 0 0 Z " fill="#FCFCFC" transform="translate(53,35)"/>
<path d="M0 0 C0.33 0 0.66 0 1 0 C1.39429745 6.44019167 0.24961874 11.10763304 -3.75 16.25 C-9.78243981 20.94189763 -15.38772424 21.44962519 -22.7734375 21.3984375 C-23.69661774 21.40130768 -24.61979797 21.40417786 -25.57095337 21.40713501 C-27.515733 21.40916812 -29.46053342 21.4036912 -31.40527344 21.39111328 C-34.35919682 21.37508575 -37.31174444 21.39096882 -40.265625 21.41015625 C-42.16406548 21.40817297 -44.06250512 21.40432754 -45.9609375 21.3984375 C-46.83309906 21.40451019 -47.70526062 21.41058289 -48.60385132 21.4168396 C-54.41601276 21.35122192 -59.72028398 20.559687 -65 18 C-67.5625 15.3125 -67.5625 15.3125 -69 13 C-66.68604481 14.15697759 -64.43002472 15.32931905 -62.1875 16.625 C-58.55720626 18.19100906 -55.91293257 18.23477595 -52 18 C-52.58007812 17.90203125 -53.16015625 17.8040625 -53.7578125 17.703125 C-59.09646432 16.68120485 -62.68885232 15.31626744 -67 12 C-66.67 11.34 -66.34 10.68 -66 10 C-65.071875 10.639375 -64.14375 11.27875 -63.1875 11.9375 C-59.54681711 14.29323599 -57.07948095 15.12163847 -52.83911133 15.16113281 C-52.00426712 15.17074036 -51.16942291 15.1803479 -50.3092804 15.19024658 C-48.95929207 15.1966214 -48.95929207 15.1966214 -47.58203125 15.203125 C-46.65081955 15.20882507 -45.71960785 15.21452515 -44.76017761 15.22039795 C-42.7873142 15.22984662 -40.81443501 15.2363814 -38.84155273 15.24023438 C-35.8413486 15.24990699 -32.84183928 15.28091801 -29.84179688 15.3125 C-27.92187905 15.31903371 -26.00195634 15.32428273 -24.08203125 15.328125 C-23.19216019 15.3404718 -22.30228912 15.3528186 -21.38545227 15.36553955 C-15.54883349 15.34494683 -11.39535654 14.187541 -6 12 C-5.01 12.495 -5.01 12.495 -4 13 C-2.14038586 8.7494534 -1.06795435 4.50066475 0 0 Z " fill="#3B9280" transform="translate(83,63)"/>
<path d="M0 0 C0.33 1.65 0.66 3.3 1 5 C14.53 5 28.06 5 42 5 C42 5.33 42 5.66 42 6 C40.86570557 6.01458252 39.73141113 6.02916504 38.56274414 6.04418945 C34.31878525 6.1025494 30.0753362 6.17977728 25.83178711 6.26245117 C24.00179372 6.29552431 22.17170263 6.32360999 20.34155273 6.34643555 C17.69733387 6.38030807 15.05399621 6.43263641 12.41015625 6.48828125 C11.20021751 6.49786613 11.20021751 6.49786613 9.96583557 6.50764465 C3.30668454 6.67660671 -3.4069582 7.60642296 -8.4375 12.25 C-11.81792582 18.19954945 -12.3008127 24.01459478 -12.265625 30.6796875 C-12.26753845 31.49188751 -12.2694519 32.30408752 -12.27142334 33.14089966 C-12.27277741 34.85028393 -12.26913567 36.55967876 -12.26074219 38.26904297 C-12.2500594 40.86059129 -12.26064955 43.45144211 -12.2734375 46.04296875 C-12.27211522 47.71354317 -12.26955143 49.38411717 -12.265625 51.0546875 C-12.27169769 52.1988765 -12.27169769 52.1988765 -12.27789307 53.36618042 C-12.23152781 58.79024865 -11.35790454 63.75353305 -10 69 C-12.51663465 66.81162204 -13.48663797 65.29899456 -14 62 C-14.09664581 60.61340988 -14.1477682 59.22314186 -14.16113281 57.83325195 C-14.17074036 57.02173172 -14.1803479 56.21021149 -14.19024658 55.37409973 C-14.19449646 54.50427963 -14.19874634 53.63445953 -14.203125 52.73828125 C-14.20882507 51.83305222 -14.21452515 50.92782318 -14.22039795 49.99516296 C-14.22983573 48.07955082 -14.23637708 46.16392253 -14.24023438 44.24829102 C-14.24990732 41.34036299 -14.28092875 38.43315192 -14.3125 35.52539062 C-14.31903401 33.65885834 -14.32428292 31.79232102 -14.328125 29.92578125 C-14.3404718 29.06608231 -14.3528186 28.20638336 -14.36553955 27.32063293 C-14.34401441 21.38702521 -13.19222304 16.50779696 -11 11 C-11.66 10.67 -12.32 10.34 -13 10 C-11.68 9.34 -10.36 8.68 -9 8 C-9.185625 7.401875 -9.37125 6.80375 -9.5625 6.1875 C-10 4 -10 4 -9 1 C-6.04335481 -0.4783226 -3.25770263 -0.06032783 0 0 Z " fill="#90CABE" transform="translate(26,4)"/>
<path d="M0 0 C7.51199386 0.88376398 13.92940668 2.66621297 19.1875 8.375 C20.93945588 10.91231541 22.14363933 13.04166316 23 16 C22.67 16.99 22.34 17.98 22 19 C20.02 17.35 18.04 15.7 16 14 C15.01 15.32 14.02 16.64 13 18 C12.34 17.01 11.68 16.02 11 15 C7.45730913 11.77221498 4.61866179 9.49427293 0 8 C0.99 7.67 1.98 7.34 3 7 C3 6.01 3 5.02 3 4 C2.01 3.34 1.02 2.68 0 2 C0 1.34 0 0.68 0 0 Z " fill="#389D8A" transform="translate(70,2)"/>
<path d="M0 0 C0.33 0 0.66 0 1 0 C1.01458252 1.23564697 1.02916504 2.47129395 1.04418945 3.74438477 C1.10237196 8.34981528 1.17960345 12.95476706 1.26245117 17.55981445 C1.29560684 19.54899294 1.32366765 21.53826339 1.34643555 23.52758789 C1.380154 26.39509084 1.43247823 29.26175817 1.48828125 32.12890625 C1.49467117 33.01147598 1.5010611 33.89404572 1.50764465 34.80335999 C1.66010452 41.27590401 2.69081485 46.15200498 6.875 51.3125 C12.42874018 55.72282309 19.18940448 56.06868985 26.0546875 56.31640625 C27.16328125 56.35830078 28.271875 56.40019531 29.4140625 56.44335938 C30.55617188 56.48267578 31.69828125 56.52199219 32.875 56.5625 C34.0403125 56.60568359 35.205625 56.64886719 36.40625 56.69335938 C39.27072625 56.79901629 42.13528321 56.90111799 45 57 C45 57.33 45 57.66 45 58 C40.55260587 58.07449251 36.1055481 58.12876257 31.65771484 58.16479492 C30.14658273 58.17982543 28.63549382 58.20025564 27.12451172 58.22631836 C24.94487813 58.26295689 22.76582425 58.27978338 20.5859375 58.29296875 C19.2767334 58.3086792 17.9675293 58.32438965 16.61865234 58.34057617 C10.79626905 57.79259178 6.1110632 55.1110632 2 51 C-0.83700149 44.8444915 -1.42305616 39.78843855 -1.328125 33.06640625 C-1.32625183 32.14786362 -1.32437866 31.22932098 -1.32244873 30.28294373 C-1.31576752 28.35761846 -1.30193224 26.43230585 -1.28125 24.50708008 C-1.24983456 21.54691081 -1.24024817 18.58727331 -1.234375 15.62695312 C-1.22521448 13.75259761 -1.21484177 11.87824753 -1.203125 10.00390625 C-1.19887512 9.11546524 -1.19462524 8.22702423 -1.19024658 7.31166077 C-1.11722179 1.11722179 -1.11722179 1.11722179 0 0 Z " fill="#328979" transform="translate(11,24)"/>
<path d="M0 0 C5.94 0 11.88 0 18 0 C18 0.66 18 1.32 18 2 C20.475 2.495 20.475 2.495 23 3 C22.67 4.32 22.34 5.64 22 7 C14.41 7 6.82 7 -1 7 C-0.67 4.69 -0.34 2.38 0 0 Z " fill="#319083" transform="translate(38,1)"/>
<path d="M0 0 C-0.42459673 2.25247061 -0.86518028 4.50193165 -1.3125 6.75 C-1.55613281 8.00296875 -1.79976562 9.2559375 -2.05078125 10.546875 C-2.94043372 13.7833062 -3.783282 15.54111953 -6 18 C-6.27972656 17.46890625 -6.55945312 16.9378125 -6.84765625 16.390625 C-9.87349312 11.0589253 -12.45319814 8.6102597 -18 6 C-14.79691229 3.23791712 -11.97246396 2.26387677 -7.875 1.3125 C-6.29332031 0.93544922 -6.29332031 0.93544922 -4.6796875 0.55078125 C-2 0 -2 0 0 0 Z " fill="#F8F9F9" transform="translate(70,22)"/>
<path d="M0 0 C2 1 2 1 3.375 3.3125 C5.87284156 7.44354566 8.54891455 10.09239195 13 12 C8.06033192 16.34690791 2.43314933 17.31381216 -4 17 C-3.58411954 10.80481527 -2.39748106 5.73310689 0 0 Z " fill="#F8F9F9" transform="translate(30,49)"/>
<path d="M0 0 C-0.33 1.65 -0.66 3.3 -1 5 C-0.0925 5.515625 0.815 6.03125 1.75 6.5625 C6.1346572 9.49597042 8.36593462 13.34845385 9.6015625 18.515625 C10.16861202 23.47452868 10.10432032 28.38873077 10.0625 33.375 C10.05798828 34.39722656 10.05347656 35.41945312 10.04882812 36.47265625 C10.037103 38.98183194 10.02069176 41.4908849 10 44 C9.67 44 9.34 44 9 44 C8.95101562 42.74445312 8.90203125 41.48890625 8.8515625 40.1953125 C8.84043001 23.55575509 8.84043001 23.55575509 2 9 C-1.07630837 6.84658414 -4.31932466 6.50191027 -8 6 C-7.34 5.67 -6.68 5.34 -6 5 C-6 4.34 -6 3.68 -6 3 C-7.65 3 -9.3 3 -11 3 C-12.125 -0.75 -12.125 -0.75 -11 -3 C-6.74131841 -5.29313624 -3.62465004 -2.30025868 0 0 Z " fill="#65B7A6" transform="translate(74,5)"/>
<path d="M0 0 C2 1.5 2 1.5 3 3 C0.0173094 4.52448631 -2.818202 5.93940067 -6 7 C-7.71226052 9.8201938 -8.8059395 12.92955871 -10 16 C-11.5 15 -11.5 15 -13 13 C-13.63025284 8.11554047 -13.74637221 6.11955831 -11 2 C-6.88044169 -0.74637221 -4.88445953 -0.63025284 0 0 Z " fill="#809190" transform="translate(41,25)"/>
<path d="M0 0 C-0.33 0.66 -0.66 1.32 -1 2 C-3.64 2 -6.28 2 -9 2 C-8.67 2.99 -8.34 3.98 -8 5 C-8.66 5 -9.32 5 -10 5 C-10.33 5.99 -10.66 6.98 -11 8 C-11.99 8 -12.98 8 -14 8 C-14.061875 8.61875 -14.12375 9.2375 -14.1875 9.875 C-15 12 -15 12 -17.5625 13.25 C-18.366875 13.4975 -19.17125 13.745 -20 14 C-19.65213292 15.97536745 -19.65213292 15.97536745 -19 18 C-18.34 18.33 -17.68 18.66 -17 19 C-17.66 19.33 -18.32 19.66 -19 20 C-19.99 19.67 -20.98 19.34 -22 19 C-22 19.66 -22 20.32 -22 21 C-22.66 21 -23.32 21 -24 21 C-23.1500669 13.7169526 -21.55370449 8.93356379 -16 4 C-11.01662217 0.38705107 -6.08673554 -1.79021633 0 0 Z " fill="#20826B" transform="translate(26,3)"/>
<path d="M0 0 C2.82295068 2.41752691 2.98618369 2.89292361 3.5 6.875 C3.36746613 10.30194717 2.98795983 11.01616823 0.8125 13.9375 C-2.08398851 16.06159157 -3.43135013 17 -7 17 C-10.3125 15.5625 -10.3125 15.5625 -13 14 C-11 12 -11 12 -7.625 10.375 C-3.25463783 7.98453051 -1.76140371 4.50744304 0 0 Z " fill="#819291" transform="translate(64,48)"/>
<path d="M0 0 C0.2475 0.53625 0.495 1.0725 0.75 1.625 C3.98844522 7.77804592 6.20752741 10.77487967 13 13 C17.03485575 13.78545838 20.94964838 14.16828628 25.0546875 14.31640625 C26.16328125 14.35830078 27.271875 14.40019531 28.4140625 14.44335938 C29.55617188 14.48267578 30.69828125 14.52199219 31.875 14.5625 C33.0403125 14.60568359 34.205625 14.64886719 35.40625 14.69335938 C38.27072625 14.79901629 41.13528321 14.90111799 44 15 C44 15.33 44 15.66 44 16 C39.55260587 16.07449251 35.1055481 16.12876257 30.65771484 16.16479492 C29.14658273 16.17982543 27.63549382 16.20025564 26.12451172 16.22631836 C23.94487813 16.26295689 21.76582425 16.27978338 19.5859375 16.29296875 C18.2767334 16.3086792 16.9675293 16.32438965 15.61865234 16.34057617 C9.59729341 15.77386482 5.45579617 12.94656232 1 9 C-0.4783226 6.04335481 -0.06032783 3.25770263 0 0 Z " fill="#2D7B6C" transform="translate(12,66)"/>
<path d="M0 0 C5.98506586 2.50537641 9.41901902 5.90990081 12.375 11.6875 C13 14 13 14 12 17 C8.33455245 14.32521395 6.17874513 11.96135478 4 8 C1.98416297 4.93242192 0.40726673 3.40990347 -3 2 C-2.01 1.34 -1.02 0.68 0 0 Z " fill="#1A7A5E" transform="translate(80,4)"/>
<path d="M0 0 C1.98 0 3.96 0 6 0 C6 0.66 6 1.32 6 2 C7.65 2.33 9.3 2.66 11 3 C10.67 4.32 10.34 5.64 10 7 C6.04 7 2.08 7 -2 7 C-2 6.34 -2 5.68 -2 5 C-1.01 4.67 -0.02 4.34 1 4 C0.67 2.68 0.34 1.36 0 0 Z " fill="#38A18F" transform="translate(50,1)"/>
<path d="M0 0 C3.27642756 0.25866533 4.60820723 0.55416685 6.8125 3.0625 C7.204375 3.701875 7.59625 4.34125 8 5 C5.06171403 7.50298434 2.82097239 8.46930939 -1 9 C-1.09765625 2.84765625 -1.09765625 2.84765625 -1 1 C-0.67 0.67 -0.34 0.34 0 0 Z " fill="#309782" transform="translate(27,1)"/>
<path d="M0 0 C1.9375 0.375 1.9375 0.375 4 1 C4.33 1.66 4.66 2.32 5 3 C5.99 2.67 6.98 2.34 8 2 C8.66 3.65 9.32 5.3 10 7 C9.34 7 8.68 7 8 7 C8.6496875 7.6496875 8.6496875 7.6496875 9.3125 8.3125 C10.875 9.875 12.4375 11.4375 14 13 C9.02639643 11.72768281 6.32703078 9.91415386 3 6 C3 5.34 3 4.68 3 4 C2.34 4 1.68 4 1 4 C0.67 2.68 0.34 1.36 0 0 Z " fill="#115A40" transform="translate(4,80)"/>
<path d="M0 0 C0 0.66 0 1.32 0 2 C0.69867188 1.97679688 1.39734375 1.95359375 2.1171875 1.9296875 C3.02726562 1.91164063 3.93734375 1.89359375 4.875 1.875 C6.23238281 1.84019531 6.23238281 1.84019531 7.6171875 1.8046875 C10 2 10 2 12 4 C4.74 4 -2.52 4 -10 4 C-6.70320317 0.70320317 -4.71687256 0 0 0 Z " fill="#0CCBC8" transform="translate(47,91)"/>
<path d="M0 0 C1.32 0.33 2.64 0.66 4 1 C3.49820698 5.34887281 0.93852884 7.9247954 -2 11 C-4.3125 11.875 -4.3125 11.875 -6 12 C-6 11.01 -6 10.02 -6 9 C-5.01 8.67 -4.02 8.34 -3 8 C-1.98245132 6.1346755 -1.98245132 6.1346755 -1.3125 3.9375 C-1.06113281 3.20402344 -0.80976562 2.47054687 -0.55078125 1.71484375 C-0.36902344 1.14894531 -0.18726562 0.58304687 0 0 Z " fill="#00625D" transform="translate(87,79)"/>
<path d="M0 0 C0.94875 0.350625 1.8975 0.70125 2.875 1.0625 C3.205 2.7125 3.535 4.3625 3.875 6.0625 C0.39169784 5.41744404 -2.21932866 4.08032732 -5.125 2.0625 C-5.125 1.4025 -5.125 0.7425 -5.125 0.0625 C-3.125 -0.9375 -3.125 -0.9375 0 0 Z " fill="#1C8F84" transform="translate(17.125,86.9375)"/>
<path d="M0 0 C6.75 0.75 6.75 0.75 9 3 C8.01 3 7.02 3 6 3 C5.67 4.98 5.34 6.96 5 9 C3.35 8.67 1.7 8.34 0 8 C0.99 7.67 1.98 7.34 3 7 C3 6.01 3 5.02 3 4 C2.01 3.34 1.02 2.68 0 2 C0 1.34 0 0.68 0 0 Z " fill="#247E6D" transform="translate(70,2)"/>
<path d="M0 0 C4.06815373 1.84916079 7.0094833 3.66442368 10 7 C9.67 7.66 9.34 8.32 9 9 C8.38125 8.505 7.7625 8.01 7.125 7.5 C5.16119096 5.80777227 5.16119096 5.80777227 3 6 C2.34 5.34 1.68 4.68 1 4 C-0.31747324 3.30251417 -1.64914193 2.63040043 -3 2 C-2.01 1.34 -1.02 0.68 0 0 Z " fill="#0A4841" transform="translate(80,4)"/>
<path d="M0 0 C2.64 0 5.28 0 8 0 C7.34 1.65 6.68 3.3 6 5 C6.66 5.33 7.32 5.66 8 6 C6.125 6.625 6.125 6.625 4 7 C3.34 6.34 2.68 5.68 2 5 C2.99 5 3.98 5 5 5 C5 4.34 5 3.68 5 3 C3.35 2.67 1.7 2.34 0 2 C0 1.34 0 0.68 0 0 Z " fill="#2C887B" transform="translate(56,1)"/>
<path d="M0 0 C0 0.33 0 0.66 0 1 C-1.87387477 1.3396019 -3.74916697 1.67138691 -5.625 2 C-6.66914062 2.185625 -7.71328125 2.37125 -8.7890625 2.5625 C-11.90574865 2.98715797 -14.85930812 3.07545206 -18 3 C-18 2.67 -18 2.34 -18 2 C-11.50023898 -0.71975816 -6.95047184 -1.21357445 0 0 Z " fill="#074536" transform="translate(80,92)"/>
<path d="M0 0 C2 3 2 3 2.5 5.125 C2.665 5.74375 2.83 6.3625 3 7 C3.66 7.33 4.32 7.66 5 8 C4.01 8.495 4.01 8.495 3 9 C2.01 8.67 1.02 8.34 0 8 C0 8.66 0 9.32 0 10 C-0.66 10 -1.32 10 -2 10 C-1.34 6.7 -0.68 3.4 0 0 Z " fill="#166F5A" transform="translate(4,14)"/>
<path d="M0 0 C2.97 0.99 5.94 1.98 9 3 C9 3.33 9 3.66 9 4 C4.71 3.67 0.42 3.34 -4 3 C-2.68 2.67 -1.36 2.34 0 2 C0 1.34 0 0.68 0 0 Z " fill="#106B4E" transform="translate(26,91)"/>
<path d="M0 0 C1.5625 1.25 1.5625 1.25 3 3 C2.625 5.0625 2.625 5.0625 2 7 C2.33 7.66 2.66 8.32 3 9 C1.68 9 0.36 9 -1 9 C-1.09765625 2.84765625 -1.09765625 2.84765625 -1 1 C-0.67 0.67 -0.34 0.34 0 0 Z " fill="#16766D" transform="translate(2,26)"/>
<path d="M0 0 C1.98 0.495 1.98 0.495 4 1 C3.67 2.32 3.34 3.64 3 5 C1.68 5 0.36 5 -1 5 C-0.67 3.35 -0.34 1.7 0 0 Z " fill="#167B6F" transform="translate(87,79)"/>
<path d="M0 0 C1.65 0.33 3.3 0.66 5 1 C4.67 1.66 4.34 2.32 4 3 C1.35139573 3.59355614 -1.29197322 3.74209269 -4 4 C-4.33 3.34 -4.66 2.68 -5 2 C-3.35 2 -1.7 2 0 2 C0 1.34 0 0.68 0 0 Z " fill="#14A28A" transform="translate(63,91)"/>
<path d="M0 0 C0.66 0 1.32 0 2 0 C2 2.64 2 5.28 2 8 C1.34 8 0.68 8 0 8 C0 7.34 0 6.68 0 6 C-0.66 5.67 -1.32 5.34 -2 5 C-1.34 3.35 -0.68 1.7 0 0 Z " fill="#2A9D94" transform="translate(92,61)"/>
<path d="M0 0 C1.65 0 3.3 0 5 0 C5.33 1.32 5.66 2.64 6 4 C4.35 4 2.7 4 1 4 C0.67 2.68 0.34 1.36 0 0 Z " fill="#2C9186" transform="translate(50,1)"/>
<path d="M0 0 C-0.33 0.66 -0.66 1.32 -1 2 C-3.97 2 -6.94 2 -10 2 C-6.64608848 -1.35391152 -4.35183427 -1.05855428 0 0 Z " fill="#0B4739" transform="translate(26,3)"/>
<path d="M0 0 C1.33333333 2.66666667 2.66666667 5.33333333 4 8 C3.34 8.66 2.68 9.32 2 10 C-0.4294516 6.3558226 -0.16179575 4.28758728 0 0 Z " fill="#318574" transform="translate(12,66)"/>
<path d="M0 0 C1.32 0 2.64 0 4 0 C4 1.65 4 3.3 4 5 C2.35 4.67 0.7 4.34 -1 4 C-0.67 2.68 -0.34 1.36 0 0 Z " fill="#33A78E" transform="translate(63,2)"/>
</svg>
