<?xml version="1.0" encoding="UTF-8"?>
<svg version="1.1" xmlns="http://www.w3.org/2000/svg" width="600" height="600">
<path d="M0 0 C198 0 396 0 600 0 C600 198 600 396 600 600 C402 600 204 600 0 600 C0 402 0 204 0 0 Z " fill="#F9FBFD" transform="translate(0,0)"/>
<path d="M0 0 C2.19160218 0.58026311 4.38810579 1.12878984 6.59082031 1.66503906 C14.55667202 3.66055792 21.9106841 6.193941 29.36425781 9.62597656 C30.59474854 10.18115967 30.59474854 10.18115967 31.85009766 10.74755859 C45.08667321 16.74301718 57.42201817 23.33854315 69.36425781 31.62597656 C68.72488281 32.10292969 68.08550781 32.57988281 67.42675781 33.07128906 C63.15440209 36.63521845 59.28666472 40.55946702 55.36425781 44.50097656 C54.57019531 45.29117188 53.77613281 46.08136719 52.95800781 46.89550781 C49.63317128 50.22588574 46.37057242 53.52083725 43.42675781 57.19628906 C42.74613281 57.99808594 42.06550781 58.79988281 41.36425781 59.62597656 C40.70425781 59.62597656 40.04425781 59.62597656 39.36425781 59.62597656 C39.13697998 60.17995117 38.90970215 60.73392578 38.67553711 61.3046875 C36.98163657 64.3033109 34.84202874 66.35392117 32.38378906 68.76660156 C31.89271164 69.25247742 31.40163422 69.73835327 30.89567566 70.23895264 C29.32740134 71.78947959 27.75262299 73.33316812 26.17675781 74.87597656 C24.1173122 76.89853754 22.06114982 78.92435145 20.00878906 80.95410156 C19.51061676 81.44668457 19.01244446 81.93926758 18.49917603 82.44677734 C15.16272929 85.76950932 12.03038494 89.20840094 8.97631836 92.7890625 C5.52260122 96.7245112 1.70837842 100.31987906 -2.03027344 103.98144531 C-5.18017994 107.09222254 -8.21460178 110.23957036 -11.10449219 113.59472656 C-15.36714132 118.53824878 -20.01774386 123.05813146 -24.67480469 127.62597656 C-27.93980689 130.8531602 -31.10231008 134.10562722 -34.09667969 137.58691406 C-37.9297696 142.0374728 -42.07261882 146.1368483 -46.26074219 150.25097656 C-50.96671444 154.87467657 -55.51753646 159.46601128 -59.63574219 164.62597656 C-53.54542754 162.06954819 -47.82355985 159.1250795 -42.11621094 155.79785156 C-39.63574219 154.62597656 -39.63574219 154.62597656 -35.63574219 154.62597656 C-35.63574219 153.96597656 -35.63574219 153.30597656 -35.63574219 152.62597656 C-34.88703857 152.25424316 -34.13833496 151.88250977 -33.36694336 151.49951172 C-14.80316026 142.28146256 -14.80316026 142.28146256 3.58862305 132.72680664 C13.26779797 127.59318506 23.02620758 122.61265263 32.77441406 117.61181641 C40.19386914 113.80459687 47.60697298 109.98633893 55.00097656 106.12988281 C56.35333313 105.42566198 57.70570897 104.72147814 59.05810547 104.01733398 C60.98001833 103.01653397 62.90116771 102.0144019 64.82000732 101.00772095 C66.56339144 100.09311268 68.3094566 99.18362029 70.05566406 98.27441406 C71.52821655 97.50363525 71.52821655 97.50363525 73.03051758 96.71728516 C75.36425781 95.62597656 75.36425781 95.62597656 77.36425781 95.62597656 C77.36425781 94.96597656 77.36425781 94.30597656 77.36425781 93.62597656 C78.31042969 93.15289062 79.25660156 92.67980469 80.23144531 92.19238281 C80.86155518 91.87720703 81.49166504 91.56203125 82.14086914 91.23730469 C83.5543796 90.53079615 84.9682877 89.82508269 86.38256836 89.12011719 C90.37438894 87.12878417 94.35749661 85.12220625 98.32910156 83.09082031 C99.13814941 82.67952881 99.94719727 82.2682373 100.78076172 81.84448242 C102.35970597 81.04149579 103.93627607 80.23382103 105.51025391 79.42114258 C106.23164551 79.05561279 106.95303711 78.69008301 107.69628906 78.31347656 C108.33284424 77.98734375 108.96939941 77.66121094 109.62524414 77.32519531 C111.36425781 76.62597656 111.36425781 76.62597656 114.36425781 76.62597656 C115.64770508 77.91674805 115.64770508 77.91674805 116.93066406 79.74707031 C117.41180664 80.42753418 117.89294922 81.10799805 118.38867188 81.80908203 C118.89624023 82.55303223 119.40380859 83.29698242 119.92675781 84.06347656 C120.45108398 84.82031738 120.97541016 85.5771582 121.515625 86.35693359 C125.23312766 91.79408972 128.74677924 97.3409299 132.11425781 103.00097656 C132.54424072 103.71954834 132.97422363 104.43812012 133.41723633 105.1784668 C136.36425781 110.25094912 136.36425781 110.25094912 136.36425781 113.62597656 C131.93735735 115.0388985 127.50821387 116.44447332 123.0769043 117.84350586 C121.57204544 118.31971884 120.067801 118.79787826 118.56420898 119.27807617 C116.39370676 119.97088149 114.22103737 120.65648607 112.04785156 121.34082031 C111.05210365 121.66118507 111.05210365 121.66118507 110.03623962 121.98802185 C107.00877902 122.93452748 104.16409257 123.64941147 101.0090332 124.01879883 C97.04769205 124.67871278 93.84508963 125.95969529 90.15899658 127.50213623 C84.91688849 129.61013021 79.51650397 131.256353 74.13769531 132.97753906 C72.84726881 133.39327245 71.55694251 133.80931697 70.26670837 134.22564697 C66.80952414 135.3402442 63.3509696 136.45052974 59.89212418 137.55995941 C56.26508433 138.72414999 52.63932915 139.89232823 49.01342773 141.06005859 C42.31334604 143.21719105 35.61214478 145.37082199 28.91048145 147.52303505 C22.04341048 149.72855772 15.17765423 151.93815508 8.31209564 154.14838028 C-12.99353061 161.00681933 -34.3027494 167.85306774 -55.63574219 174.62597656 C-33.43295752 174.88442588 -11.32680785 174.48966795 10.85375977 173.47802734 C27.08345977 172.74063171 43.31448397 172.18431339 59.55324936 171.68717957 C80.66058908 171.04078121 101.75648314 170.29696637 122.84741211 169.23535156 C134.02899603 168.68617386 145.16965235 168.52644087 156.36425781 168.62597656 C159.03308285 182.14802342 159.62914564 195.50529108 159.67675781 209.25097656 C159.68037323 210.05613708 159.68398865 210.86129761 159.68771362 211.69085693 C159.71510733 226.95614245 159.23221882 243.02209354 154.36425781 257.62597656 C155.02425781 257.95597656 155.68425781 258.28597656 156.36425781 258.62597656 C153.03312657 275.03970703 148.18546584 289.79087154 140.39941406 304.64111328 C139.40083987 306.5558322 138.42715311 308.48138759 137.45800781 310.41113281 C129.92716738 325.21466888 120.31364924 338.19133646 109.36425781 350.62597656 C108.77386719 351.32722656 108.18347656 352.02847656 107.57519531 352.75097656 C98.03171303 364.03391128 87.3286466 373.97283299 75.36425781 382.62597656 C74.70361328 383.10389648 74.04296875 383.58181641 73.36230469 384.07421875 C43.09211005 405.6734122 9.17805883 418.94471044 -27.63574219 423.62597656 C-28.3539917 423.72096436 -29.07224121 423.81595215 -29.81225586 423.91381836 C-38.0788043 424.88198841 -46.38578457 424.91213408 -54.69824219 424.93847656 C-55.49032074 424.94109497 -56.28239929 424.94371338 -57.09848022 424.94641113 C-71.24542346 424.95139665 -84.7923994 423.6833189 -98.63574219 420.62597656 C-99.35375 420.47112793 -100.07175781 420.3162793 -100.81152344 420.15673828 C-105.15967705 419.18869521 -109.39007248 417.96931544 -113.63574219 416.62597656 C-114.34875488 416.40635254 -115.06176758 416.18672852 -115.79638672 415.96044922 C-137.14024097 409.30260915 -157.39977922 399.57396352 -175.63574219 386.62597656 C-176.68375 385.88992188 -177.73175781 385.15386719 -178.81152344 384.39550781 C-197.62931114 370.71210986 -213.9010444 354.3895411 -227.63574219 335.62597656 C-228.04743652 335.06539551 -228.45913086 334.50481445 -228.88330078 333.92724609 C-241.02576644 317.14900344 -251.61155406 297.38758595 -257.69824219 277.56347656 C-257.94936768 276.75330078 -258.20049316 275.943125 -258.45922852 275.10839844 C-264.7004255 254.50025777 -268.17752193 233.5083233 -268.02685547 211.97460938 C-268.01078922 209.25892636 -268.02680869 206.54473981 -268.04589844 203.82910156 C-268.06577106 187.71222067 -266.42021952 171.6586632 -262.19824219 156.06347656 C-261.98361328 155.24105469 -261.76898438 154.41863281 -261.54785156 153.57128906 C-254.19818041 125.87371529 -241.03459892 100.30591375 -223.63574219 77.62597656 C-222.96800781 76.74296875 -222.30027344 75.85996094 -221.61230469 74.95019531 C-213.64130123 64.67533642 -204.69356768 54.88297235 -194.63574219 46.62597656 C-193.80429688 45.89507812 -192.97285156 45.16417969 -192.11621094 44.41113281 C-163.6363602 19.74937424 -128.49126108 3.7074679 -91.63574219 -3.37402344 C-90.04052734 -3.695 -90.04052734 -3.695 -88.41308594 -4.02246094 C-59.58740374 -9.37635615 -28.19555104 -7.51659959 0 0 Z " fill="#FEFEFE" transform="translate(355.6357421875,36.3740234375)"/>
<path d="M0 0 C2.19160218 0.58026311 4.38810579 1.12878984 6.59082031 1.66503906 C14.55667202 3.66055792 21.9106841 6.193941 29.36425781 9.62597656 C30.59474854 10.18115967 30.59474854 10.18115967 31.85009766 10.74755859 C45.08667321 16.74301718 57.42201817 23.33854315 69.36425781 31.62597656 C68.72488281 32.10292969 68.08550781 32.57988281 67.42675781 33.07128906 C63.15440209 36.63521845 59.28666472 40.55946702 55.36425781 44.50097656 C54.57019531 45.29117188 53.77613281 46.08136719 52.95800781 46.89550781 C48.8721757 50.98814965 44.97043929 55.10370866 41.36425781 59.62597656 C38.22985276 58.97232705 35.71682549 57.87792492 32.89941406 56.36816406 C20.36705762 49.79350953 7.95730691 44.56949863 -5.63574219 40.62597656 C-6.96955933 40.23381958 -6.96955933 40.23381958 -8.33032227 39.83374023 C-37.31751333 31.58120454 -69.73491687 32.06176064 -98.65917969 40.08154297 C-100.54163951 40.60005648 -102.43232079 41.0884433 -104.32324219 41.57519531 C-121.66227199 46.43373595 -139.30648248 54.67447793 -153.63574219 65.62597656 C-154.16603027 66.02075195 -154.69631836 66.41552734 -155.24267578 66.82226562 C-168.42566717 76.65047246 -180.74765673 87.41780402 -190.63574219 100.62597656 C-191.03212891 101.14740234 -191.42851562 101.66882813 -191.83691406 102.20605469 C-208.14879863 123.76013617 -219.17567169 148.05158313 -224.88574219 174.43847656 C-225.04913086 175.19056396 -225.21251953 175.94265137 -225.38085938 176.7175293 C-228.27669961 190.88337464 -227.84607219 205.24187887 -227.63574219 219.62597656 C-227.61898437 220.92148437 -227.60222656 222.21699219 -227.58496094 223.55175781 C-226.72008775 243.78979049 -220.49807009 264.55257174 -211.63574219 282.62597656 C-211.03067164 283.90810247 -210.42653789 285.19067081 -209.82324219 286.47363281 C-202.68263648 301.44970471 -193.57659736 314.20937813 -182.63574219 326.62597656 C-182.02085937 327.36332031 -181.40597656 328.10066406 -180.77246094 328.86035156 C-171.83311658 339.52782693 -160.90689285 347.62513277 -149.63574219 355.62597656 C-149.64734375 354.73394531 -149.65894531 353.84191406 -149.67089844 352.92285156 C-149.67992187 351.75238281 -149.68894531 350.58191406 -149.69824219 349.37597656 C-149.70984375 348.21582031 -149.72144531 347.05566406 -149.73339844 345.86035156 C-149.6515566 343.14974993 -149.31983115 341.20137029 -148.63574219 338.62597656 C-148.41591989 336.37890415 -148.23090232 334.12826418 -148.07324219 331.87597656 C-147.94755859 330.12027344 -147.94755859 330.12027344 -147.81933594 328.32910156 C-147.75875 327.43707031 -147.69816406 326.54503906 -147.63574219 325.62597656 C-143.4543067 326.26329573 -140.06883227 327.68286229 -136.26074219 329.50097656 C-132.41034355 331.32968618 -128.55159058 333.09676931 -124.631073 334.76947021 C-120.95980044 336.34538346 -117.30709362 337.96363055 -113.65136719 339.57519531 C-111.89228384 340.34935483 -110.13316815 341.12344086 -108.37402344 341.89746094 C-105.64958596 343.09653389 -102.9253347 344.29602114 -100.20166016 345.49682617 C-89.64047823 350.15207126 -79.06482806 354.75772057 -68.39825439 359.16740417 C-62.74104914 361.52066961 -62.74104914 361.52066961 -61.63574219 362.62597656 C-61.47859565 364.25854414 -61.38488805 365.89732994 -61.31933594 367.53613281 C-61.25649414 369.02016602 -61.25649414 369.02016602 -61.19238281 370.53417969 C-61.15306641 371.57509766 -61.11375 372.61601562 -61.07324219 373.68847656 C-61.03005859 374.73326172 -60.986875 375.77804687 -60.94238281 376.85449219 C-60.83592994 379.4448454 -60.73391459 382.03529842 -60.63574219 384.62597656 C-32.73273842 384.66897987 -5.97554945 380.947423 19.36425781 368.62597656 C19.9967041 368.32530273 20.62915039 368.02462891 21.28076172 367.71484375 C46.74096382 355.61009202 69.30977815 338.24782768 86.36425781 315.62597656 C86.92628906 314.88089844 87.48832031 314.13582031 88.06738281 313.36816406 C102.56347763 293.38522962 111.70218447 271.27333599 118.36425781 247.62597656 C122.74488262 248.37153591 126.87318631 249.70976166 131.07128906 251.12988281 C131.79668381 251.37262436 132.52207855 251.61536591 133.26945496 251.86546326 C135.57284832 252.63697534 137.8748108 253.412661 140.17675781 254.18847656 C141.74372232 254.71414386 143.31077866 255.23953748 144.87792969 255.76464844 C148.70777636 257.0485914 152.53634576 258.33627781 156.36425781 259.62597656 C152.8493392 275.6056018 148.01008937 290.12536494 140.39941406 304.64111328 C139.40083987 306.5558322 138.42715311 308.48138759 137.45800781 310.41113281 C129.92716738 325.21466888 120.31364924 338.19133646 109.36425781 350.62597656 C108.77386719 351.32722656 108.18347656 352.02847656 107.57519531 352.75097656 C98.03171303 364.03391128 87.3286466 373.97283299 75.36425781 382.62597656 C74.70361328 383.10389648 74.04296875 383.58181641 73.36230469 384.07421875 C43.09211005 405.6734122 9.17805883 418.94471044 -27.63574219 423.62597656 C-28.3539917 423.72096436 -29.07224121 423.81595215 -29.81225586 423.91381836 C-38.0788043 424.88198841 -46.38578457 424.91213408 -54.69824219 424.93847656 C-55.49032074 424.94109497 -56.28239929 424.94371338 -57.09848022 424.94641113 C-71.24542346 424.95139665 -84.7923994 423.6833189 -98.63574219 420.62597656 C-99.35375 420.47112793 -100.07175781 420.3162793 -100.81152344 420.15673828 C-105.15967705 419.18869521 -109.39007248 417.96931544 -113.63574219 416.62597656 C-114.34875488 416.40635254 -115.06176758 416.18672852 -115.79638672 415.96044922 C-137.14024097 409.30260915 -157.39977922 399.57396352 -175.63574219 386.62597656 C-176.68375 385.88992188 -177.73175781 385.15386719 -178.81152344 384.39550781 C-197.62931114 370.71210986 -213.9010444 354.3895411 -227.63574219 335.62597656 C-228.04743652 335.06539551 -228.45913086 334.50481445 -228.88330078 333.92724609 C-241.02576644 317.14900344 -251.61155406 297.38758595 -257.69824219 277.56347656 C-257.94936768 276.75330078 -258.20049316 275.943125 -258.45922852 275.10839844 C-264.7004255 254.50025777 -268.17752193 233.5083233 -268.02685547 211.97460938 C-268.01078922 209.25892636 -268.02680869 206.54473981 -268.04589844 203.82910156 C-268.06577106 187.71222067 -266.42021952 171.6586632 -262.19824219 156.06347656 C-261.98361328 155.24105469 -261.76898438 154.41863281 -261.54785156 153.57128906 C-254.19818041 125.87371529 -241.03459892 100.30591375 -223.63574219 77.62597656 C-222.96800781 76.74296875 -222.30027344 75.85996094 -221.61230469 74.95019531 C-213.64130123 64.67533642 -204.69356768 54.88297235 -194.63574219 46.62597656 C-193.80429688 45.89507812 -192.97285156 45.16417969 -192.11621094 44.41113281 C-163.6363602 19.74937424 -128.49126108 3.7074679 -91.63574219 -3.37402344 C-90.04052734 -3.695 -90.04052734 -3.695 -88.41308594 -4.02246094 C-59.58740374 -9.37635615 -28.19555104 -7.51659959 0 0 Z " fill="#6B6768" transform="translate(355.6357421875,36.3740234375)"/>
<path d="M0 0 C1.98 0 3.96 0 6 0 C6 1.98 6 3.96 6 6 C6.66 6 7.32 6 8 6 C9.18426347 7.13011039 10.3603054 8.27004326 11.49423218 9.45065308 C13.12030239 11.12378412 14.80219028 12.71992697 16.50512695 14.31469727 C20.04854158 17.64376313 23.55438695 21.00974955 27.04907227 24.38989258 C28.55646227 25.83679838 30.07442567 27.27276969 31.6027832 28.69750977 C44.3728369 40.6256726 44.3728369 40.6256726 45.97802734 46.70263672 C45.98019588 49.65574409 45.76630379 52.15561875 45 55 C42.69 55 40.38 55 38 55 C38 68.2 38 81.4 38 95 C40.31 95 42.62 95 45 95 C45 101.93 45 108.86 45 116 C42.03 116 39.06 116 36 116 C36.12117188 117.36092773 36.24234375 118.72185547 36.3671875 120.12402344 C36.81974441 125.22268715 37.26535731 130.32193893 37.70898438 135.42138672 C37.90113076 137.61914163 38.0951048 139.81673761 38.29101562 142.01416016 C38.57394313 145.19132052 38.85006895 148.36901385 39.125 151.546875 C39.21249512 152.5130072 39.29999023 153.4791394 39.39013672 154.47454834 C39.97410643 161.32958316 40.09520715 168.1218499 40 175 C34.91238077 173.41635258 30.11611088 171.37534563 25.25390625 169.21875 C24.41338715 168.84857758 23.57286804 168.47840515 22.70687866 168.09701538 C19.99102631 166.90039678 17.27677729 165.70018637 14.5625 164.5 C11.77789652 163.27221401 8.99287747 162.04537411 6.20783997 160.818573 C4.3711051 160.0094134 2.5345056 159.19994646 0.69804382 158.39016724 C-6.54600787 155.19650385 -13.79981246 152.02608952 -21.0625 148.875 C-21.99956787 148.46830078 -22.93663574 148.06160156 -23.90209961 147.64257812 C-25.93443658 146.7610349 -27.96715948 145.88038142 -30 145 C-30.2615556 134.75573889 -29.60781635 125.12062972 -28 115 C-31.63 115 -35.26 115 -39 115 C-39 108.4 -39 101.8 -39 95 C-36.69 95 -34.38 95 -32 95 C-32 81.8 -32 68.6 -32 55 C-34.31 55 -36.62 55 -39 55 C-39.85964032 50.44464105 -39.97308767 46.54930832 -39 42 C-36.53194339 38.76096952 -33.60545855 36.35175971 -30.48046875 33.78515625 C-24.98889963 29.27233375 -19.98678013 24.26858148 -14.95581055 19.25601196 C-13.33159422 17.64395132 -11.69297684 16.04763422 -10.05273438 14.4519043 C-9.0304701 13.4400777 -8.00895418 12.42749433 -6.98828125 11.4140625 C-6.07602783 10.5163916 -5.16377441 9.6187207 -4.22387695 8.69384766 C-1.87244007 5.8454829 -0.91803337 3.55033693 0 0 Z " fill="#56A03A" transform="translate(246,137)"/>
<path d="M0 0 C0.32069766 1.5816933 0.6308975 3.16551409 0.9375 4.75 C1.11152344 5.63171875 1.28554688 6.5134375 1.46484375 7.421875 C3.11212943 18.43584352 3.27400325 29.51094463 3.3125 40.625 C3.31611542 41.43016052 3.31973083 42.23532104 3.32345581 43.06488037 C3.35084952 58.33016589 2.86796101 74.39611698 -2 89 C-1.34 89.66 -0.68 90.32 0 91 C-4.99475608 90.42409644 -9.3849608 89.33382819 -14.11328125 87.63671875 C-14.76773727 87.4034639 -15.4221933 87.17020905 -16.09648132 86.92988586 C-17.4732246 86.43787197 -18.84885106 85.94272272 -20.22338867 85.44458008 C-22.2943989 84.69405972 -24.36846789 83.95260458 -26.44335938 83.21289062 C-31.9596996 81.23627072 -37.44649265 79.23339834 -42.87402344 77.02392578 C-47.69740063 75.08381253 -52.57397916 73.42873653 -57.52734375 71.85546875 C-59.36651633 71.26353665 -61.20562485 70.67140546 -63.04467773 70.07910156 C-64.00300507 69.77170044 -64.9613324 69.46429932 -65.94869995 69.14758301 C-86.82146581 62.4426889 -107.54050516 55.35798703 -128.21821594 48.07792664 C-135.81675071 45.40646578 -143.42805825 42.77281713 -151.04296875 40.1484375 C-152.25168137 39.73178833 -153.46039398 39.31513916 -154.70573425 38.88586426 C-159.4932098 37.23616038 -164.28089997 35.58708909 -169.06954956 33.9407959 C-185.09664196 28.43000613 -201.06966804 22.78476899 -217 17 C-217 16.67 -217 16.34 -217 16 C-205.91082798 15.70465916 -194.91583964 16.61109279 -183.8671875 17.42578125 C-181.78779792 17.57591508 -179.70838033 17.72566153 -177.62893677 17.87504578 C-172.15070164 18.26960851 -166.67284996 18.66926485 -161.19506836 19.07006836 C-155.7773935 19.46566738 -150.35939315 19.85674857 -144.94140625 20.24804688 C-138.54429229 20.7102739 -132.14723388 21.17321587 -125.75042725 21.63967896 C-115.40121443 22.39409803 -105.05155169 23.14027706 -94.70019531 23.86474609 C-92.74886917 24.00186313 -90.79754467 24.13900352 -88.84622192 24.27616882 C-85.21772025 24.53115018 -81.58901848 24.78297812 -77.96017456 25.03303528 C-76.33428068 25.14714128 -74.70839516 25.26136662 -73.08251953 25.37573242 C-72.36162266 25.42447447 -71.64072578 25.47321651 -70.89798355 25.52343559 C-66.56265373 25.83176736 -62.29720542 26.35551777 -58 27 C-56.31562963 27.13146687 -54.62913393 27.23918995 -52.94140625 27.31640625 C-51.62172852 27.37924805 -51.62172852 27.37924805 -50.27539062 27.44335938 C-49.38013672 27.48267578 -48.48488281 27.52199219 -47.5625 27.5625 C-46.64017578 27.60568359 -45.71785156 27.64886719 -44.76757812 27.69335938 C-42.51183837 27.79854931 -40.25600501 27.90069107 -38 28 C-38.4365122 18.84473102 -39.10701036 9.99249883 -41 1 C-27.32060126 0.26908428 -13.69890638 -0.14236739 0 0 Z " fill="#A9CDE9" transform="translate(512,205)"/>
<path d="M0 0 C0.72574722 -0.0066568 1.45149445 -0.0133136 2.19923401 -0.02017212 C3.74176501 -0.03031281 5.28434 -0.0349887 6.8269043 -0.03466797 C9.15165401 -0.03898862 11.47442139 -0.07513968 13.79882812 -0.11328125 C23.85484354 -0.19019693 33.45405353 0.30594966 41.44140625 7.2109375 C44.72107108 11.65095158 44.63268408 16.59320488 44.421875 21.9375 C43.40375817 27.11739267 40.84330654 30.12548071 36.75390625 33.3359375 C35.76390625 33.8309375 35.76390625 33.8309375 34.75390625 34.3359375 C35.429375 34.76003906 36.10484375 35.18414063 36.80078125 35.62109375 C42.39948604 39.30232306 46.27382823 42.02301163 48.75390625 48.3359375 C49.43558782 53.78939002 48.3401809 57.52011574 45.75390625 62.3359375 C41.30414665 67.96357464 34.72861371 70.97559921 27.75390625 72.3359375 C25.08613166 72.44254098 22.44520959 72.49988701 19.77734375 72.50390625 C18.6276561 72.50889885 18.6276561 72.50889885 17.45474243 72.51399231 C15.83930052 72.51904333 14.22384823 72.5214012 12.60839844 72.52124023 C10.13068701 72.52343592 7.6534145 72.54163552 5.17578125 72.56054688 C3.60547027 72.56347929 2.03515718 72.5654651 0.46484375 72.56640625 C-0.64922348 72.57718452 -0.64922348 72.57718452 -1.78579712 72.58818054 C-7.0172564 72.56477485 -7.0172564 72.56477485 -9.24609375 70.3359375 C-9.50006104 67.52734375 -9.50006104 67.52734375 -9.50488281 63.8984375 C-9.50838745 63.23811523 -9.51189209 62.57779297 -9.51550293 61.89746094 C-9.52432056 59.71018018 -9.51847118 57.52322167 -9.51171875 55.3359375 C-9.5130654 53.81900978 -9.51500592 52.30208249 -9.51751709 50.78515625 C-9.52046839 47.60412492 -9.51617059 44.42320581 -9.50683594 41.2421875 C-9.49544132 37.15965848 -9.50200077 33.07739241 -9.51398087 28.99487305 C-9.52119936 25.86195892 -9.51891161 22.72910739 -9.51372528 19.59619141 C-9.51238875 18.09065724 -9.51403663 16.58511743 -9.51868439 15.07958984 C-9.52374954 12.97738538 -9.51604002 10.87560992 -9.50488281 8.7734375 C-9.50329163 7.57589844 -9.50170044 6.37835938 -9.50006104 5.14453125 C-8.96536885 -0.76856549 -4.82665706 0.01537097 0 0 Z " fill="#6F6B6C" transform="translate(315.24609375,496.6640625)"/>
<path d="M0 0 C0.77251099 -0.0066568 1.54502197 -0.0133136 2.34094238 -0.02017212 C3.981828 -0.03031252 5.62275496 -0.03498871 7.26367188 -0.03466797 C9.74421082 -0.03899785 12.22290633 -0.07517733 14.703125 -0.11328125 C24.77385633 -0.18455112 32.45183962 0.66087444 41.15625 6.1484375 C45.83776737 10.96764656 47.54119646 14.60885525 47.84375 21.2734375 C47.59908314 28.02286823 45.44181733 32.01907838 40.859375 36.828125 C37.33148923 40.03356959 33.60828967 41.55090577 29.28125 43.3359375 C31.53066937 46.23222227 33.78088929 49.12788409 36.03125 52.0234375 C36.66546875 52.84005859 37.2996875 53.65667969 37.953125 54.49804688 C38.88125 55.69204102 38.88125 55.69204102 39.828125 56.91015625 C40.42536377 57.68117676 41.02260254 58.45219727 41.63793945 59.24658203 C42.97139178 60.94197425 44.35203401 62.60017536 45.74609375 64.24609375 C47.28125 66.3359375 47.28125 66.3359375 47.09375 69.0859375 C46.28125 71.3359375 46.28125 71.3359375 45.28125 72.3359375 C42.90942383 72.60888672 42.90942383 72.60888672 40.28125 72.3359375 C38.6472168 70.93408203 38.6472168 70.93408203 37.23046875 68.96875 C36.70195312 68.25203125 36.1734375 67.5353125 35.62890625 66.796875 C34.80712891 65.64058594 34.80712891 65.64058594 33.96875 64.4609375 C33.09476562 63.30078125 33.09476562 63.30078125 32.203125 62.1171875 C29.73035853 58.82383706 27.43146165 55.60028512 25.39453125 52.015625 C23.52980285 48.91827953 22.37000876 47.26197385 19.28125 45.3359375 C12.39252442 43.89890417 5.28181115 44.07588412 -1.71875 44.3359375 C-1.70827637 45.11308105 -1.69780273 45.89022461 -1.68701172 46.69091797 C-1.64554718 50.1975585 -1.61945422 53.70414756 -1.59375 57.2109375 C-1.57699219 58.43425781 -1.56023437 59.65757812 -1.54296875 60.91796875 C-1.53652344 62.08457031 -1.53007812 63.25117187 -1.5234375 64.453125 C-1.51296387 65.53190918 -1.50249023 66.61069336 -1.49169922 67.72216797 C-1.71875 70.3359375 -1.71875 70.3359375 -3.71875 72.3359375 C-8.27430556 71.78038194 -8.27430556 71.78038194 -9.71875 70.3359375 C-9.82349558 68.22999322 -9.85731457 66.12049984 -9.86401367 64.01196289 C-9.86737228 63.35178665 -9.8707309 62.69161041 -9.87419128 62.01142883 C-9.88372695 59.81879825 -9.8856457 57.62624381 -9.88671875 55.43359375 C-9.88992955 53.9152371 -9.89329349 52.39688077 -9.89680481 50.87852478 C-9.90280265 47.69155154 -9.90464404 44.50460544 -9.90405273 41.31762695 C-9.90395108 37.2272415 -9.91760343 33.13702953 -9.93482494 29.04668522 C-9.94592571 25.90949194 -9.94797254 22.77234084 -9.94744301 19.63512993 C-9.94862603 18.1267989 -9.95306575 16.61846689 -9.96077538 15.11015511 C-9.97053662 13.00308091 -9.96771282 10.89638652 -9.96166992 8.78930664 C-9.96309494 7.58875137 -9.96451996 6.38819611 -9.96598816 5.15126038 C-9.43123019 -0.93807608 -4.9253959 0.0146993 0 0 Z " fill="#6E6B6C" transform="translate(469.71875,496.6640625)"/>
<path d="M0 0 C4.18143548 0.63731916 7.56690991 2.05688573 11.375 3.875 C15.22539863 5.70370961 19.0841516 7.47079275 23.00466919 9.14349365 C26.67594175 10.7194069 30.32864857 12.33765398 33.984375 13.94921875 C35.74345835 14.72337827 37.50257404 15.4974643 39.26171875 16.27148438 C41.98615623 17.47055733 44.71040749 18.67004458 47.43408203 19.87084961 C57.99526395 24.52609469 68.57091413 29.13174401 79.23748779 33.54142761 C84.89469305 35.89469305 84.89469305 35.89469305 86 37 C86.15714654 38.63256758 86.25085414 40.27135338 86.31640625 41.91015625 C86.35830078 42.89951172 86.40019531 43.88886719 86.44335938 44.90820312 C86.48267578 45.94912109 86.52199219 46.99003906 86.5625 48.0625 C86.60568359 49.10728516 86.64886719 50.15207031 86.69335938 51.22851562 C86.79981225 53.81886884 86.9018276 56.40932186 87 59 C58.01259326 60.72808247 27.27723569 49.10158755 3 34 C2.07574219 33.58234375 1.15148437 33.1646875 0.19921875 32.734375 C-2 31 -2 31 -2.5234375 27.78515625 C-2.47445312 26.55667969 -2.42546875 25.32820313 -2.375 24.0625 C-2.34148437 22.83660156 -2.30796875 21.61070312 -2.2734375 20.34765625 C-2.05674781 17.69475534 -1.65740913 15.54432389 -1 13 C-0.7801777 10.75292759 -0.59516013 8.50228762 -0.4375 6.25 C-0.35371094 5.07953125 -0.26992187 3.9090625 -0.18359375 2.703125 C-0.12300781 1.81109375 -0.06242188 0.9190625 0 0 Z " fill="#56A137" transform="translate(208,362)"/>
<path d="M0 0 C0.79470703 -0.00902847 1.58941406 -0.01805695 2.40820312 -0.02735901 C4.09615302 -0.04188858 5.78415957 -0.05075495 7.47216797 -0.05444336 C10.02542068 -0.06623501 12.57617175 -0.11529741 15.12890625 -0.16601562 C25.01825792 -0.2653637 33.5193259 -0.0448987 41.00976562 7.27368164 C46.23493647 13.04774815 46.65481193 17.86668181 46.46875 25.5859375 C45.89224571 30.9574054 44.13836224 33.91062427 40.0625 37.37109375 C36.7106749 39.8218906 33.20922098 41.70761839 29.0625 42.37109375 C30.48469129 45.45504448 32.19214196 47.99384868 34.28515625 50.6640625 C34.90583984 51.45876953 35.52652344 52.25347656 36.16601562 53.07226562 C36.81248047 53.89275391 37.45894531 54.71324219 38.125 55.55859375 C38.77533203 56.39068359 39.42566406 57.22277344 40.09570312 58.08007812 C42.93597196 61.84939439 42.93597196 61.84939439 46.0625 65.37109375 C46.1875 68.37109375 46.1875 68.37109375 46.0625 71.37109375 C45.0625 72.37109375 45.0625 72.37109375 42.75390625 72.71484375 C40.0625 72.37109375 40.0625 72.37109375 38.02734375 70.52734375 C37.35832031 69.65078125 36.68929687 68.77421875 36 67.87109375 C35.20980469 66.88367188 34.41960937 65.89625 33.60546875 64.87890625 C31.72271842 62.38457113 30.12013083 59.8144721 28.55078125 57.11328125 C23.97270975 49.20180185 23.97270975 49.20180185 16.47265625 44.56347656 C10.3367858 43.62710402 4.22799226 43.79578643 -1.9375 44.37109375 C-1.92702637 45.1482373 -1.91655273 45.92538086 -1.90576172 46.72607422 C-1.86429718 50.23271475 -1.83820422 53.73930381 -1.8125 57.24609375 C-1.79574219 58.46941406 -1.77898437 59.69273437 -1.76171875 60.953125 C-1.75527344 62.11972656 -1.74882812 63.28632812 -1.7421875 64.48828125 C-1.73171387 65.56706543 -1.72124023 66.64584961 -1.71044922 67.75732422 C-1.9375 70.37109375 -1.9375 70.37109375 -3.9375 72.37109375 C-8.49305556 71.81553819 -8.49305556 71.81553819 -9.9375 70.37109375 C-10.04224558 68.26514947 -10.07606457 66.15565609 -10.08276367 64.04711914 C-10.08612228 63.3869429 -10.0894809 62.72676666 -10.09294128 62.04658508 C-10.10247695 59.8539545 -10.1043957 57.66140006 -10.10546875 55.46875 C-10.10867955 53.95039335 -10.11204349 52.43203702 -10.11555481 50.91368103 C-10.12155265 47.72670779 -10.12339404 44.53976169 -10.12280273 41.3527832 C-10.12270108 37.26239775 -10.13635343 33.17218578 -10.15357494 29.08184147 C-10.16467571 25.94464819 -10.16672254 22.80749709 -10.16619301 19.67028618 C-10.16737603 18.16195515 -10.17181575 16.65362314 -10.17952538 15.14531136 C-10.18928662 13.03823716 -10.18646282 10.93154277 -10.18041992 8.82446289 C-10.18184494 7.62390762 -10.18326996 6.42335236 -10.18473816 5.18641663 C-9.64423711 -0.96831686 -4.96753128 0.03470312 0 0 Z " fill="#706D6E" transform="translate(244.9375,496.62890625)"/>
<path d="M0 0 C3.67041324 0.71617819 4.42412092 2.47976801 6.5625 5.5 C7.79268163 7.81508534 8.9365862 10.10053954 10.03125 12.4765625 C10.34864136 13.15159821 10.66603271 13.82663391 10.99304199 14.52212524 C12.02356954 16.71972492 13.04364371 18.92196761 14.0625 21.125 C14.77196273 22.64949444 15.48159981 24.17390775 16.19140625 25.69824219 C17.98315967 29.55392956 19.76348021 33.4147771 21.53955078 37.27770996 C22.51669284 39.40048694 23.4979372 41.52131478 24.48046875 43.64160156 C26.19100265 47.33700997 27.87920427 51.04210226 29.5625 54.75 C30.07232422 55.85424316 30.58214844 56.95848633 31.10742188 58.09619141 C31.56697266 59.12147949 32.02652344 60.14676758 32.5 61.203125 C32.90089844 62.08645508 33.30179687 62.96978516 33.71484375 63.87988281 C34.68329019 66.87336414 34.71352517 69.37309242 34.5625 72.5 C32.9125 72.83 31.2625 73.16 29.5625 73.5 C20.5625 59.96311475 20.5625 59.96311475 20.5625 54.5 C7.0325 54.5 -6.4975 54.5 -20.4375 54.5 C-21.4275 57.47 -22.4175 60.44 -23.4375 63.5 C-24.28601455 65.37629274 -25.17334671 67.2363545 -26.125 69.0625 C-26.56199219 69.90941406 -26.99898437 70.75632812 -27.44921875 71.62890625 C-27.93841797 72.55509766 -27.93841797 72.55509766 -28.4375 73.5 C-30.10361905 73.542721 -31.77132885 73.54063832 -33.4375 73.5 C-34.4375 72.5 -34.4375 72.5 -34.67431641 69.84350586 C-34.39937629 65.96174827 -33.34449141 63.50065558 -31.6484375 60.00390625 C-31.35323212 59.38556915 -31.05802673 58.76723206 -30.75387573 58.13015747 C-29.78366837 56.10249807 -28.79809413 54.08271851 -27.8125 52.0625 C-26.43493265 49.19778041 -25.06524344 46.3293151 -23.6953125 43.4609375 C-23.34368042 42.72749619 -22.99204834 41.99405487 -22.62976074 41.23838806 C-20.15440207 36.05872052 -17.765893 30.84535623 -15.4296875 25.6015625 C-15.11208466 24.88965256 -14.79448181 24.17774261 -14.46725464 23.44425964 C-13.23679439 20.68177211 -12.00861735 17.91838183 -10.79217529 15.14968872 C-9.9557495 13.24692095 -9.11131424 11.34788311 -8.265625 9.44921875 C-7.7902832 8.36987061 -7.31494141 7.29052246 -6.82519531 6.1784668 C-5.03878586 2.73041999 -3.87198736 0.79425382 0 0 Z " fill="#726E6F" transform="translate(187.4375,495.5)"/>
<path d="M0 0 C7.11718657 4.89641031 13.25289811 12.37877992 15.37890625 20.8828125 C17.31766083 32.95366709 16.41995089 43.9351997 9.11328125 54.0546875 C3.40151423 60.85381498 -3.26518633 66.06877241 -11.921875 68.4296875 C-23.6064953 69.32850445 -33.88371234 69.12374112 -43.29296875 61.40625 C-51.55279555 53.81613889 -56.45660286 45.86444444 -57.4453125 34.55078125 C-57.78224165 23.15998416 -55.30416436 14.96212245 -47.859375 6.2421875 C-34.95844719 -7.08663178 -15.96234816 -9.70372964 0 0 Z M-44.171875 13.6796875 C-49.21441355 21.14627415 -49.59015495 30.97393226 -48.171875 39.6796875 C-45.46839769 48.20089512 -41.09058861 54.19258987 -33.44140625 58.69921875 C-26.44019311 61.96844194 -17.6052998 61.97903588 -10.29296875 59.8359375 C-2.24743661 56.20009397 3.55000697 49.87498256 6.828125 41.6796875 C8.74924823 33.60006993 9.02267316 25.27874925 5.15625 17.77734375 C-0.07675031 9.5122815 -6.49336297 4.00253039 -16.171875 1.6796875 C-28.03345285 0.39674644 -36.41308212 4.76473698 -44.171875 13.6796875 Z " fill="#706C6D" transform="translate(430.171875,501.3203125)"/>
<path d="M0 0 C1.28344727 1.29077148 1.28344727 1.29077148 2.56640625 3.12109375 C3.04754883 3.80155762 3.52869141 4.48202148 4.02441406 5.18310547 C4.7857666 6.29903076 4.7857666 6.29903076 5.5625 7.4375 C6.08682617 8.19434082 6.61115234 8.95118164 7.15136719 9.73095703 C10.86886985 15.16811316 14.38252143 20.71495334 17.75 26.375 C18.17998291 27.09357178 18.60996582 27.81214355 19.05297852 28.55249023 C22 33.62497255 22 33.62497255 22 37 C17.55419626 38.41103288 13.10674287 39.81669578 8.65771484 41.2175293 C7.1461881 41.69426645 5.63511268 42.1724371 4.12451172 42.65209961 C1.94617502 43.34350971 -0.23376251 44.02965354 -2.4140625 44.71484375 C-3.08305573 44.92842026 -3.75204895 45.14199677 -4.4413147 45.36204529 C-8.27355696 46.5600166 -12.02456235 47.43784407 -16 48 C-16.32162109 47.50709473 -16.64324219 47.01418945 -16.97460938 46.50634766 C-25.25800454 33.79934178 -25.25800454 33.79934178 -34.57421875 21.84765625 C-36 20 -36 20 -37 17 C-36.05382812 16.52691406 -35.10765625 16.05382812 -34.1328125 15.56640625 C-33.50270264 15.25123047 -32.87259277 14.93605469 -32.22338867 14.61132812 C-30.80987822 13.90481958 -29.39597011 13.19910613 -27.98168945 12.49414062 C-23.98986888 10.50280761 -20.00676121 8.49622969 -16.03515625 6.46484375 C-14.82158447 5.84790649 -14.82158447 5.84790649 -13.58349609 5.21850586 C-12.00455184 4.41551923 -10.42798174 3.60784446 -8.85400391 2.79516602 C-8.1326123 2.42963623 -7.4112207 2.06410645 -6.66796875 1.6875 C-6.03141357 1.36136719 -5.3948584 1.03523438 -4.73901367 0.69921875 C-3 0 -3 0 0 0 Z " fill="#6C686A" transform="translate(470,113)"/>
<path d="M0 0 C1.99954746 -0.04254356 4.00041636 -0.04080783 6 0 C7 1 7 1 7.11352539 3.95922852 C7.10828857 5.25272217 7.10305176 6.54621582 7.09765625 7.87890625 C7.09515869 9.13517822 7.09266113 10.3914502 7.09008789 11.68579102 C7.08098389 13.29510498 7.07187988 14.90441895 7.0625 16.5625 C7.0315625 24.2040625 7.0315625 24.2040625 7 32 C20.86 32 34.72 32 49 32 C48.96040178 21.84286908 48.96040178 21.84286908 48.90991211 11.68579102 C48.90741455 10.42951904 48.90491699 9.17324707 48.90234375 7.87890625 C48.89710693 6.5854126 48.89187012 5.29191895 48.88647461 3.95922852 C49 1 49 1 50 0 C52.4375 -0.1875 52.4375 -0.1875 55 0 C57.79622582 2.79622582 57.25358491 4.52081318 57.25878906 8.4375 C57.2622937 9.09782227 57.26579834 9.75814453 57.26940918 10.43847656 C57.27822681 12.62575732 57.27237743 14.81271583 57.265625 17 C57.26697165 18.51692772 57.26891217 20.03385501 57.27142334 21.55078125 C57.27437464 24.73181258 57.27007684 27.91273169 57.26074219 31.09375 C57.24934757 35.17627902 57.25590702 39.25854509 57.26788712 43.34106445 C57.27510561 46.47397858 57.27281786 49.60683011 57.26763153 52.73974609 C57.266295 54.24528026 57.26794288 55.75082007 57.27259064 57.25634766 C57.27765579 59.35855212 57.26994627 61.46032758 57.25878906 63.5625 C57.25719788 64.76003906 57.25560669 65.95757813 57.25396729 67.19140625 C57 70 57 70 55 72 C52.4375 72.1875 52.4375 72.1875 50 72 C49 71 49 71 48.88647461 67.94897461 C48.88672557 66.60008731 48.89228185 65.25119355 48.90234375 63.90234375 C48.90484131 62.60546631 48.90733887 61.30858887 48.90991211 59.97241211 C48.91901611 58.31089111 48.92812012 56.64937012 48.9375 54.9375 C48.9684375 47.0484375 48.9684375 47.0484375 49 39 C35.14 39 21.28 39 7 39 C7.07913959 49.11216734 7.07913959 49.11216734 7.18017578 59.22412109 C7.18766846 61.10478271 7.18766846 61.10478271 7.1953125 63.0234375 C7.20578613 64.31169434 7.21625977 65.59995117 7.22705078 66.92724609 C7 70 7 70 5 72 C0.44444444 71.44444444 0.44444444 71.44444444 -1 70 C-1.09948086 67.89391543 -1.12799637 65.78445767 -1.12939453 63.67602539 C-1.13114685 63.01584915 -1.13289917 62.35567291 -1.13470459 61.67549133 C-1.1391228 59.48285326 -1.13618491 57.29029521 -1.1328125 55.09765625 C-1.13348563 53.57929977 -1.13445573 52.06094339 -1.13571167 50.54258728 C-1.13718866 47.35561093 -1.13503434 44.16866256 -1.13037109 40.98168945 C-1.12467863 36.89135284 -1.12794972 32.80108191 -1.13394356 28.71074772 C-1.13755326 25.57355757 -1.13640861 22.43638304 -1.13381577 19.29919243 C-1.13314738 17.79086741 -1.13397185 16.28254098 -1.13629532 14.77421761 C-1.138828 12.66722979 -1.13497233 10.56034897 -1.12939453 8.45336914 C-1.12859894 7.25281387 -1.12780334 6.05225861 -1.12698364 4.81532288 C-1 2 -1 2 0 0 Z " fill="#6D6A6B" transform="translate(84,497)"/>
<path d="M0 0 C2.41244173 10.21188926 2.61148988 20.56134665 3 31 C-10.42668441 31.35541223 -23.64005361 30.25835166 -37 29 C-37.12117188 27.90042969 -37.24234375 26.80085938 -37.3671875 25.66796875 C-38.29994353 17.37920218 -39.37516775 9.18710877 -41 1 C-27.32060126 0.26908428 -13.69890638 -0.14236739 0 0 Z " fill="#6C6869" transform="translate(512,205)"/>
<path d="M0 0 C15.51 0 31.02 0 47 0 C47 13.2 47 26.4 47 40 C43.7 40 40.4 40 37 40 C36.97421875 38.62585938 36.9484375 37.25171875 36.921875 35.8359375 C36.86557572 34.01559404 36.80822879 32.19528276 36.75 30.375 C36.73582031 29.47136719 36.72164063 28.56773437 36.70703125 27.63671875 C36.49458556 21.81570679 35.80117036 18.47363067 32 14 C29.07327328 11.62697833 27.31690796 11.04033374 23.5625 10.5625 C19.31654773 11.08393274 17.26182423 12.26917041 14 15 C12.11429522 18.02002997 11.71510531 20.45378819 11.5859375 23.984375 C11.52792969 25.38623047 11.52792969 25.38623047 11.46875 26.81640625 C11.42234375 28.26853516 11.42234375 28.26853516 11.375 29.75 C11.31699219 31.22533203 11.31699219 31.22533203 11.2578125 32.73046875 C11.1637203 35.15334289 11.08077848 37.57664545 11 40 C7.37 40 3.74 40 0 40 C0 26.8 0 13.6 0 0 Z " fill="#FEFEFD" transform="translate(225,192)"/>
<path d="M0 0 C5.5344863 1.68124789 10.68914585 4.03636828 15.9375 6.4375 C17.67551677 7.22844601 19.41379334 8.01882142 21.15234375 8.80859375 C21.91538818 9.15720459 22.67843262 9.50581543 23.46459961 9.86499023 C25.97609006 10.98929636 28.50212344 12.0760279 31.03276062 13.15641785 C37.57489243 15.96178342 44.08620494 18.83959776 50.60571289 21.69702148 C52.49141102 22.52306099 54.37747826 23.3482584 56.26391602 24.17260742 C59.00885526 25.37218727 61.75258979 26.57448555 64.49609375 27.77734375 C65.32966904 28.14101547 66.16324432 28.50468719 67.02207947 28.87937927 C72.0959608 31.10820486 77.06234626 33.48321584 82 36 C82 40.29 82 44.58 82 49 C77.08310692 48.18051782 74.1376667 47.35873397 69.7578125 45.33203125 C69.16494949 45.06066345 68.57208649 44.78929565 67.96125793 44.50970459 C66.68149427 43.92319755 65.40317807 43.33352369 64.12619019 42.74099731 C60.6779439 41.14110569 57.21935198 39.56385096 53.76171875 37.984375 C53.04506546 37.65631363 52.32841217 37.32825226 51.59004211 36.99024963 C46.52541202 34.67774545 41.4382143 32.42226372 36.33203125 30.203125 C35.62544373 29.8959404 34.9188562 29.5887558 34.19085693 29.27226257 C31.45013705 28.08241881 28.70867904 26.89437342 25.96417236 25.71328735 C16.80861254 21.7724664 7.87036212 17.54656202 -1 13 C-1.07654536 8.48382401 -1.10228696 4.40914783 0 0 Z " fill="#59A23C" transform="translate(210,338)"/>
<path d="M0 0 C6.435 -0.0928125 6.435 -0.0928125 13 -0.1875 C14.33675781 -0.21481201 15.67351562 -0.24212402 17.05078125 -0.27026367 C25.23346394 -0.32722396 31.10232141 0.26333205 37.9375 5.0625 C40.88655103 9.26266358 41.49549312 12.91345339 41 18 C39.70014962 21.96048161 37.67893876 24.8487672 34.22045898 27.22021484 C27.2115449 30.62932108 20.60478148 30.4603047 12.9375 30.25 C6.5334375 30.12625 6.5334375 30.12625 0 30 C0 20.1 0 10.2 0 0 Z " fill="#F9F9F9" transform="translate(468,504)"/>
<path d="M0 0 C6.2165805 1.97351762 12.06129264 4.31581798 18 7 C19.52299879 7.67936977 21.04643187 8.35776684 22.5703125 9.03515625 C24.8556287 10.05237675 27.14093988 11.06960394 29.42578125 12.08789062 C30.54919922 12.58772461 30.54919922 12.58772461 31.6953125 13.09765625 C32.35547363 13.39164307 33.01563477 13.68562988 33.69580078 13.98852539 C36.7884715 15.34611543 39.89442132 16.67230008 43 18 C44.33591131 18.57238097 45.67176548 19.14489533 47.00756836 19.7175293 C47.70776596 20.01761398 48.40796356 20.31769867 49.12937927 20.62687683 C63.56468964 26.81343842 63.56468964 26.81343842 78 33 C78 37.62 78 42.24 78 47 C74.45627561 46.29125512 72.11420962 45.75828892 68.96118164 44.34863281 C67.81416779 43.84045265 67.81416779 43.84045265 66.64398193 43.32200623 C65.82431946 42.95277542 65.00465698 42.58354462 64.16015625 42.203125 C63.29287903 41.81749893 62.42560181 41.43187286 61.53204346 41.03456116 C58.70686466 39.77747192 55.88474627 38.51365723 53.0625 37.25 C49.17283784 35.51736467 45.2816467 33.78817331 41.390625 32.05859375 C40.42260452 31.62769943 39.45458405 31.19680511 38.45722961 30.75285339 C29.76509288 26.88643061 21.04625103 23.08382717 12.3125 19.3125 C11.67071808 19.03515015 11.02893616 18.75780029 10.3677063 18.4720459 C6.91276766 16.97911513 3.4566168 15.48904529 0 14 C0 9.38 0 4.76 0 0 Z " fill="#58A23C" transform="translate(212,315)"/>
<path d="M0 0 C3.98431666 -0.09241972 7.96586315 -0.1718666 11.95068359 -0.21972656 C13.96347627 -0.24946045 15.97592134 -0.30031729 17.98828125 -0.3515625 C25.46450008 -0.42670038 30.75678455 -0.29221062 37 4 C39.21471096 6.184012 39.87686968 7.327775 40.43359375 10.3671875 C40.44250138 16.08588578 39.99619192 19.58315629 36 24 C31.48111622 27.57884488 28.58970906 28.48871298 22.8515625 28.390625 C22.19417084 28.38496521 21.53677917 28.37930542 20.85946655 28.37347412 C18.78053809 28.35126275 16.70339837 28.3011042 14.625 28.25 C13.20705632 28.22991489 11.78908535 28.21166765 10.37109375 28.1953125 C6.9128361 28.15486504 3.4583955 28.07656964 0 28 C0 18.76 0 9.52 0 0 Z " fill="#FDFDFD" transform="translate(243,505)"/>
<path d="M0 0 C5.5344863 1.68124789 10.68914585 4.03636828 15.9375 6.4375 C17.67551677 7.22844601 19.41379334 8.01882142 21.15234375 8.80859375 C21.91538818 9.15720459 22.67843262 9.50581543 23.46459961 9.86499023 C25.98002331 10.99105714 28.50939553 12.08111965 31.04402161 13.16316223 C37.42039378 15.89120313 43.77566437 18.66882012 50.13574219 21.43457031 C51.9722589 22.23268578 53.80917787 23.02987624 55.64648438 23.82617188 C58.30436249 24.97823435 60.96090894 26.13331765 63.6171875 27.2890625 C64.44314423 27.6463443 65.26910095 28.0036261 66.12008667 28.37173462 C71.88602885 30.88602885 71.88602885 30.88602885 73 32 C73.23527773 34.34987262 73.41386417 36.70556039 73.5625 39.0625 C73.64628906 40.35285156 73.73007812 41.64320313 73.81640625 42.97265625 C73.87699219 43.97167969 73.93757813 44.97070312 74 46 C67.62353767 44.00498732 61.54526954 41.60258573 55.453125 38.8671875 C54.11528961 38.27298508 54.11528961 38.27298508 52.75042725 37.66677856 C49.91519541 36.40675446 47.08247665 35.14120384 44.25 33.875 C40.54777924 32.22452652 36.8444066 30.57665495 33.140625 28.9296875 C32.23026489 28.52417664 31.31990479 28.11866577 30.38195801 27.7008667 C22.76281341 24.31586884 15.10453152 21.02624103 7.4229126 17.78561401 C6.59338074 17.43371002 5.76384888 17.08180603 4.90917969 16.71923828 C4.17624695 16.41027618 3.44331421 16.10131409 2.68817139 15.7829895 C1 15 1 15 0 14 C-0.07271741 11.64686445 -0.08370868 9.29166332 -0.0625 6.9375 C-0.05347656 5.64714844 -0.04445312 4.35679687 -0.03515625 3.02734375 C-0.02355469 2.02832031 -0.01195312 1.02929688 0 0 Z " fill="#58A23B" transform="translate(214,291)"/>
<path d="M0 0 C4.26950028 -0.092369 8.53546837 -0.17182767 12.80517578 -0.21972656 C14.25418917 -0.23971295 15.70312325 -0.26691197 17.15185547 -0.30175781 C26.32100732 -0.51661044 33.6969317 -0.64018476 41 5.75 C42.51119049 9.1501786 42.52593025 12.38332893 42 16 C39.89535094 20.98469515 36.66889539 22.66555231 32 25 C29.59161322 25.08639869 27.21266119 25.11567764 24.8046875 25.09765625 C24.09724396 25.0962413 23.38980042 25.09482635 22.66091919 25.09336853 C20.39890331 25.087766 18.13698602 25.07521318 15.875 25.0625 C14.34244935 25.05748532 12.80989714 25.05292236 11.27734375 25.04882812 C7.51816053 25.03864616 3.75919076 25.01907143 0 25 C0 16.75 0 8.5 0 0 Z " fill="#FBFAFA" transform="translate(313,536)"/>
<path d="M0 0 C4.54202541 -0.08100045 9.08260304 -0.14050969 13.625 -0.1875 C15.55279297 -0.22520508 15.55279297 -0.22520508 17.51953125 -0.26367188 C19.38544922 -0.27817383 19.38544922 -0.27817383 21.2890625 -0.29296875 C23.00150146 -0.31653442 23.00150146 -0.31653442 24.74853516 -0.34057617 C29.36332852 0.14280247 32.5953306 2.03891041 36.375 4.625 C38.87960434 8.28557557 38.60832271 11.7032396 38 16 C36.43163378 20.41102998 33.74719136 22.15251914 29.58984375 24.16870117 C24.22035352 25.8922225 18.57734444 25.40312667 13 25.25 C11.74832031 25.23195313 10.49664062 25.21390625 9.20703125 25.1953125 C6.13768806 25.1484523 3.06874205 25.07671855 0 25 C0 16.75 0 8.5 0 0 Z " fill="#F9F9F9" transform="translate(313,504)"/>
<path d="M0 0 C2.7125806 3.29867273 4.38719998 6.74265609 6.13671875 10.62890625 C6.42102249 11.25981674 6.70532623 11.89072723 6.99824524 12.54075623 C7.59482542 13.86842155 8.1888722 15.19722786 8.78051758 16.52709961 C9.68759774 18.56271935 10.60593908 20.59299014 11.52539062 22.62304688 C12.10485033 23.91636058 12.68364942 25.2099705 13.26171875 26.50390625 C14.05002075 28.26456421 14.05002075 28.26456421 14.85424805 30.06079102 C16 33 16 33 16 36 C5.77 36 -4.46 36 -15 36 C-14.18398498 31.1039099 -13.38633338 28.208821 -11.34765625 23.8671875 C-10.81849609 22.73152344 -10.28933594 21.59585938 -9.74414062 20.42578125 C-9.18919922 19.25402344 -8.63425781 18.08226562 -8.0625 16.875 C-7.23588867 15.10576172 -7.23588867 15.10576172 -6.39257812 13.30078125 C-4.30631459 8.84433983 -2.22063336 4.39137959 0 0 Z " fill="#FAFAFA" transform="translate(187,506)"/>
<path d="M0 0 C-0.99 0.495 -0.99 0.495 -2 1 C0.64 1.33 3.28 1.66 6 2 C6 2.33 6 2.66 6 3 C0.39 3 -5.22 3 -11 3 C-7.74003139 -0.25996861 -4.40088745 -1.46696248 0 0 Z " fill="#70ADDB" transform="translate(309,209)"/>
<path d="M0 0 C-1.28650706 0.69710731 -2.57940665 1.38242876 -3.875 2.0625 C-4.95394531 2.63677734 -4.95394531 2.63677734 -6.0546875 3.22265625 C-6.69664062 3.47917969 -7.33859375 3.73570312 -8 4 C-8.66 3.67 -9.32 3.34 -10 3 C-3.94594595 -1.97297297 -3.94594595 -1.97297297 0 0 Z " fill="#77B1DD" transform="translate(305,198)"/>
</svg>
