<?xml version="1.0" encoding="UTF-8"?>
<svg version="1.1" xmlns="http://www.w3.org/2000/svg" width="2560" height="653">
<path d="M0 0 C36.63 0 73.26 0 111 0 C111.33 103.62 111.66 207.24 112 314 C122.0207279 302.46420429 122.0207279 302.46420429 131.765625 290.734375 C136.56338071 284.86299564 141.50569805 279.11122698 146.41601562 273.33398438 C151.90270514 266.87593074 157.33777129 260.38502384 162.6875 253.8125 C165.7243277 250.1190609 168.81960955 246.47701514 171.91625977 242.83374023 C174.7954532 239.44045891 177.63204237 236.01732214 180.4375 232.5625 C184.39508188 227.69870975 188.46542446 222.94118769 192.55834961 218.19165039 C195.58945289 214.66701081 198.56985316 211.10960118 201.5 207.5 C204.93208635 203.27206753 208.44568514 199.12487739 212 195 C220.77816391 185.35283456 220.77816391 185.35283456 228.28222752 174.79441929 C230.64856787 171.06785913 232.46001375 168.44903333 236.80970573 167.18073845 C240.32880534 166.89104245 243.74898147 166.88663799 247.27905273 166.97827148 C248.61996793 166.98081322 249.96089564 166.97937913 251.30180359 166.97428894 C254.92634992 166.97171549 258.54819389 167.02446963 262.17211413 167.08745456 C265.96494867 167.14387244 269.75785125 167.14901513 273.55104065 167.15968323 C280.72667755 167.18761172 287.9010744 167.26140284 295.07616621 167.35182863 C303.24770231 167.45256777 311.41929892 167.50194462 319.5913018 167.54708755 C336.39492612 167.64105905 353.19730461 167.79927072 370 168 C365.90263558 176.55662687 358.58714951 183.5161774 352.24609375 190.47265625 C349.93812402 193.06962393 347.74444137 195.73404013 345.5625 198.4375 C341.70291397 203.20996203 337.62800009 207.73109109 333.47265625 212.24609375 C330.25290481 215.83207284 327.24094824 219.56701492 324.21484375 223.31640625 C322.04367173 225.94708557 319.79758643 228.47942424 317.5 231 C314.38541332 234.41739372 311.4081338 237.9052235 308.5 241.5 C304.88850866 245.96420457 301.11339306 250.23002114 297.24609375 254.47265625 C294.93812402 257.06962393 292.74444137 259.73404013 290.5625 262.4375 C286.70291397 267.20996203 282.62800009 271.73109109 278.47265625 276.24609375 C275.25290481 279.83207284 272.24094824 283.56701492 269.21484375 287.31640625 C267.04367173 289.94708557 264.79758643 292.47942424 262.5 295 C259.38541332 298.41739372 256.4081338 301.9052235 253.5 305.5 C249.88850866 309.96420457 246.11339306 314.23002114 242.24609375 318.47265625 C239.93812402 321.06962393 237.74444137 323.73404013 235.5625 326.4375 C231.62517119 331.31591268 227.45778634 335.92584627 223.1640625 340.4921875 C221.10250227 342.88121578 219.52925526 345.24734052 218 348 C218.68964844 348.73863281 219.37929687 349.47726562 220.08984375 350.23828125 C224.70862036 355.21438442 229.24227865 360.20682555 233.5 365.5 C236.69931722 369.47629426 240.02584945 373.26668298 243.5 377 C247.7895776 381.61001639 251.80410897 386.37783236 255.75390625 391.28515625 C258.0883059 394.10673495 260.51990598 396.80590712 263 399.5 C266.27418423 403.05670244 269.40642433 406.67161811 272.4375 410.4375 C275.65943101 414.43223986 279.00655495 418.24554349 282.5 422 C286.78955113 426.61004336 290.80410672 431.37782956 294.75390625 436.28515625 C297.0883059 439.10673495 299.51990598 441.80590712 302 444.5 C306.09351091 448.94727112 309.92442499 453.54717463 313.71875 458.25 C316.86194258 462.03905407 320.20158595 465.63269352 323.53515625 469.25390625 C325.92707297 471.91875166 328.19254884 474.64831825 330.4375 477.4375 C333.65943101 481.43223986 337.00655495 485.24554349 340.5 489 C344.78955113 493.61004336 348.80410672 498.37782956 352.75390625 503.28515625 C355.0883059 506.10673495 357.51990598 508.80590712 360 511.5 C364.10270302 515.9578056 367.95302974 520.56215839 371.75 525.28125 C374.81343204 528.98289705 378.06487058 532.4966566 381.34765625 536.00390625 C383 538 383 538 383 540 C364.72804788 540.39827565 346.45723144 540.69745061 328.1818676 540.88080692 C319.69479611 540.9682328 311.21043089 541.08725912 302.72509766 541.2824707 C295.3233521 541.45267139 287.92356665 541.56175972 280.51991856 541.59950441 C276.60348858 541.62155265 272.69266192 541.67278376 268.77804184 541.79741096 C243.1208619 542.58264778 243.1208619 542.58264778 236.11846924 536.3901062 C232.99180084 532.95608103 230.58734561 529.27284243 228.32921219 525.22712517 C226.06443955 521.43244725 223.16972756 518.16872412 220.3125 514.8125 C216.27051354 509.86092118 212.30405976 504.85391555 208.375 499.8125 C204.41468342 494.73108279 200.31789084 489.79205516 196.12890625 484.89819336 C192.2870202 480.3893132 188.62146753 475.75680032 184.97998047 471.08544922 C181.52796049 466.65943571 178.00273873 462.30042871 174.4375 457.96484375 C167.32808998 449.31734021 160.25455952 440.64436695 153.375 431.8125 C149.41129866 426.72644232 145.31010108 421.78366342 141.11791992 416.88500977 C137.87488667 413.07841986 134.76253639 409.19397054 131.6875 405.25 C125.26107239 397.0580703 118.6188905 389.03722418 112 381 C111.67 433.47 111.34 485.94 111 540 C74.37 540 37.74 540 0 540 C0 361.8 0 183.6 0 0 Z " fill="#000000" transform="translate(2173,12)"/>
<path d="M0 0 C0.65097656 0.49886719 1.30195312 0.99773437 1.97265625 1.51171875 C7.69221113 6.05869974 11.14303305 11.06370706 16 17 C16.33 3.8 16.66 -9.4 17 -23 C53.63 -23 90.26 -23 128 -23 C128 99.43 128 221.86 128 348 C91.37 348 54.74 348 17 348 C16.67 334.8 16.34 321.6 16 308 C12.37 312.29 8.74 316.58 5 321 C-21.53114017 345.71121201 -60.76641764 357.50917799 -96.546875 356.28125 C-136.28392492 354.09188086 -172.46650577 340.09851381 -201.82421875 312.98828125 C-203.57001374 311.39293179 -205.33288102 309.90064268 -207.1875 308.4375 C-210.86730485 305.24833579 -213.8932479 301.74196163 -217 298 C-217.43086914 297.49210937 -217.86173828 296.98421875 -218.30566406 296.4609375 C-254.14754085 254.09115875 -269.24998363 198.79886086 -265.375 143.875 C-261.3670936 96.42010113 -242.37537558 53.7905901 -210 19 C-209.38769531 18.33355469 -208.77539062 17.66710937 -208.14453125 16.98046875 C-202.03904585 10.58858532 -195.086253 5.24969529 -188 0 C-187.41863281 -0.43103027 -186.83726563 -0.86206055 -186.23828125 -1.30615234 C-132.68640174 -40.37194759 -52.24446103 -42.62691594 0 0 Z M-132 96 C-132.63550781 96.55171875 -133.27101563 97.1034375 -133.92578125 97.671875 C-148.40885903 111.1228254 -159.10060307 133.65927457 -160.12451172 153.40063477 C-160.90958307 180.60750201 -154.60677423 204.29246094 -136 225 C-135.13761719 225.96873047 -135.13761719 225.96873047 -134.2578125 226.95703125 C-119.01312787 243.11347931 -95.66991426 253.28132364 -73.6171875 254.22265625 C-44.70439253 254.99505583 -17.7088439 245.36121466 3.50097656 225.48974609 C10.95646026 218.08040383 17.28337436 211.28738499 17.35400391 200.48046875 C17.3671463 199.61012497 17.3802887 198.73978119 17.39382935 197.84306335 C17.43329797 194.95787198 17.4566269 192.07288937 17.4765625 189.1875 C17.48471355 188.2000177 17.49286461 187.2125354 17.50126266 186.19512939 C17.54299613 180.96293983 17.57158789 175.73085518 17.59033203 170.49853516 C17.61239958 165.11253506 17.68111904 159.72820178 17.76067543 154.3427887 C17.81317379 150.18696184 17.8297305 146.03152595 17.83689499 141.87539673 C17.84659313 139.89153861 17.86972577 137.90769599 17.90697098 135.92416382 C18.24782586 121.41173577 18.24782586 121.41173577 11.08016968 109.11791992 C10.39371368 108.41900635 9.70725769 107.72009277 9 107 C7.76328794 105.48529607 6.53299848 103.96529847 5.3125 102.4375 C-12.06367256 83.46935842 -38.11663834 71.97983223 -63.6640625 70.71875 C-89.83742596 69.95440923 -112.36036483 78.63968655 -132 96 Z " fill="#000000" transform="translate(1596,203)"/>
<path d="M0 0 C13.70430033 12.32928692 27.5923542 28.6891092 35.60595703 45.44482422 C34.31910423 49.30538261 33.07648644 49.58054464 29.55126953 51.49169922 C28.47554687 52.08144531 27.39982422 52.67119141 26.29150391 53.27880859 C25.10469488 53.91755466 23.91784476 54.5562244 22.73095703 55.19482422 C21.5045039 55.86375391 20.27860026 56.53369197 19.05322266 57.20458984 C16.50423476 58.59914572 13.95292399 59.98930832 11.39990234 61.37646484 C5.61282232 64.52543079 -0.13885403 67.73807095 -5.89404297 70.94482422 C-8.11521176 72.17953275 -10.33656725 73.4139055 -12.55810547 74.64794922 C-13.66831055 75.26476562 -14.77851563 75.88158203 -15.92236328 76.51708984 C-18.95451381 78.20076499 -21.98732249 79.88324194 -25.02056885 81.56494141 C-27.50540874 82.94268075 -29.98990026 84.32104762 -32.47436523 85.69946289 C-34.22524661 86.67053395 -35.97663061 87.64069857 -37.72802734 88.61083984 C-38.79085937 89.20058594 -39.85369141 89.79033203 -40.94873047 90.39794922 C-42.34841064 91.17380371 -42.34841064 91.17380371 -43.77636719 91.96533203 C-45.57670431 92.98287008 -47.35378948 94.04231432 -49.109375 95.13525391 C-51.39404297 96.44482422 -51.39404297 96.44482422 -53.39404297 96.44482422 C-54.62405112 94.7173863 -55.77651329 92.93456983 -56.89404297 91.13232422 C-70.0872688 71.01147263 -89.72282251 57.86988738 -112.99169922 52.13623047 C-137.39842449 47.17642522 -162.39111943 51.62352585 -183.29638672 65.24951172 C-203.93329717 79.87491358 -217.66861349 100.07486722 -222.26904297 125.00732422 C-226.5935099 151.48904944 -219.75915971 175.83879897 -204.39404297 197.44482422 C-190.62980652 216.11291819 -168.39118412 227.05170572 -145.96044922 231.05810547 C-120.52439344 233.816232 -95.39225211 227.60669186 -75.24584961 211.5168457 C-66.32600556 204.09650896 -59.25223434 195.46044172 -53.39404297 185.44482422 C-49.78875828 186.81886628 -46.42344172 188.41775368 -43.02685547 190.24560547 C-41.98875732 190.8036084 -40.95065918 191.36161133 -39.88110352 191.93652344 C-38.77162354 192.5373877 -37.66214355 193.13825195 -36.51904297 193.75732422 C-35.35864502 194.38396973 -34.19824707 195.01061523 -33.00268555 195.65625 C-24.72391839 200.13740781 -16.50979668 204.72732366 -8.33032227 209.38720703 C-2.81636529 212.52443378 2.71790795 215.62051057 8.27783203 218.67529297 C8.93297287 219.03540466 9.58811371 219.39551636 10.2631073 219.76654053 C13.48566414 221.53681469 16.71024101 223.30329616 19.93725586 225.06542969 C21.11983073 225.71395872 22.3023683 226.36255577 23.48486328 227.01123047 C24.52199463 227.577854 25.55912598 228.14447754 26.62768555 228.72827148 C29.72467524 230.51324849 32.65412478 232.43132275 35.60595703 234.44482422 C30.84115957 250.62131159 16.06019014 265.42617962 4.60595703 277.44482422 C3.84025391 278.27498047 3.07455078 279.10513672 2.28564453 279.96044922 C-31.64250399 315.61375783 -81.83513412 333.39297171 -130.23120117 334.73022461 C-164.1430089 335.1319118 -196.69387347 326.56682019 -226.39404297 310.44482422 C-227.43689453 309.88150391 -228.47974609 309.31818359 -229.55419922 308.73779297 C-269.59461773 286.21176042 -300.331036 248.72312239 -315.39404297 205.44482422 C-315.67473633 204.64254395 -315.95542969 203.84026367 -316.24462891 203.01367188 C-332.81261281 154.56841859 -328.60888533 101.46053019 -306.63037109 55.51464844 C-283.47550834 8.39106389 -242.51977363 -26.35511899 -193.01904297 -43.30517578 C-124.80701444 -65.75897941 -52.87620533 -46.9893312 0 0 Z " fill="#000000" transform="translate(2095.39404296875,224.55517578125)"/>
<path d="M0 0 C-0.72411207 4.74278749 -2.42231361 8.96725444 -4.17578125 13.40234375 C-4.49732681 14.22509293 -4.81887238 15.0478421 -5.15016174 15.89552307 C-6.19992449 18.57791134 -7.25586075 21.25781377 -8.3125 23.9375 C-9.03743866 25.78248666 -9.7622097 27.62753919 -10.48681641 29.47265625 C-11.95037236 33.19630524 -13.41711605 36.91867742 -14.88623047 40.64013672 C-16.5294647 44.80336344 -18.16420039 48.96983434 -19.79466248 53.13807678 C-20.89376435 55.94405067 -21.99893228 58.74759973 -23.10629272 61.55032349 C-23.61748889 62.84687314 -24.12647368 64.14429693 -24.63320923 65.44259644 C-25.32962621 67.22473129 -26.03562838 69.0031118 -26.7421875 70.78125 C-27.1326123 71.77189453 -27.52303711 72.76253906 -27.92529297 73.78320312 C-29 76 -29 76 -31 77 C-33.70275641 75.50122693 -36.31200745 73.93798441 -38.9375 72.3125 C-73.52076846 51.70977297 -122.22824679 33.52014265 -163.3125 42.1875 C-171.96701369 44.61944118 -181.35282977 48.49538498 -186.47265625 56.22265625 C-189.56032577 61.78734198 -191.21655414 66.65326002 -190 73 C-187.24101125 81.84499333 -180.92432036 86.14318175 -173.0625 90.375 C-156.07879841 98.6934546 -137.36374446 103.0541644 -119.1875 107.9375 C-23.97745489 133.52314581 -23.97745489 133.52314581 0.0703125 174.48046875 C13.42640423 198.39090543 16.22932051 227.34849685 9.265625 253.8359375 C0.06939417 285.2928858 -21.06089347 309.84122981 -49.44921875 325.6484375 C-104.99079327 355.16889939 -175.89596881 348.30010809 -234.06201172 331.09423828 C-257.9153285 323.75445084 -280.7791332 312.64357482 -301 298 C-293.64983421 278.83973731 -285.26819304 260.11466453 -277.02166748 241.32885742 C-275.33585089 237.48609395 -273.65416945 233.64152306 -271.97265625 229.796875 C-271.67129257 229.10789124 -271.36992889 228.41890747 -271.05943298 227.70904541 C-270.3728959 226.1393896 -269.68643797 224.56969916 -269 223 C-264.83637899 224.58961825 -261.31190121 226.65051705 -257.625 229.125 C-220.33728749 253.44478193 -167.57910266 268.15735402 -123.125 259.8125 C-111.9604785 257.2884494 -100.32738669 253.3157775 -93.3359375 243.71484375 C-89.90637924 237.67000783 -88.74338766 231.87016748 -90 225 C-92.86449969 217.39199393 -98.87904221 213.0440389 -105.9375 209.54296875 C-124.10036887 201.72055136 -143.87908615 197.9870593 -163.10150146 193.70831299 C-233.83511549 177.94819233 -233.83511549 177.94819233 -260 154 C-260.92425781 153.16855469 -261.84851563 152.33710938 -262.80078125 151.48046875 C-278.99048843 136.18645768 -289.15957239 114.4647585 -290.1262207 92.07666016 C-290.93662267 57.06214985 -282.97707403 27.8205001 -258.47436523 2.02319336 C-250.40723098 -6.23732779 -241.87935006 -13.04055319 -232 -19 C-231.38833984 -19.37060547 -230.77667969 -19.74121094 -230.14648438 -20.12304688 C-210.2522154 -31.93994349 -186.91776397 -38.58760379 -164 -41 C-163.01902344 -41.11085937 -162.03804687 -41.22171875 -161.02734375 -41.3359375 C-105.93756316 -46.596123 -44.23148547 -34.50055867 0 0 Z " fill="#000000" transform="translate(1120,214)"/>
<path d="M0 0 C36.63 0 73.26 0 111 0 C111 178.2 111 356.4 111 540 C74.37 540 37.74 540 0 540 C0 361.8 0 183.6 0 0 Z " fill="#000000" transform="translate(1176,12)"/>
<path d="M0 0 C15.91618454 12.30652672 25.7126914 28.05258073 29 48 C29.64699244 54.25511843 29.54938946 60.53972672 29.51757812 66.8203125 C29.52301351 68.64891106 29.53014403 70.47750524 29.53881836 72.30609131 C29.55688643 77.22352818 29.55005323 82.14062533 29.53730202 87.05806732 C29.5270879 92.23419528 29.53659082 97.41029653 29.54284668 102.58642578 C29.5500988 111.27446651 29.54059962 119.96237069 29.52148438 128.65039062 C29.4997204 138.65706134 29.5067735 148.66340591 29.52879 158.67006874 C29.54701372 167.30244526 29.5494684 175.93472431 29.53903532 184.56711388 C29.53283855 189.70497346 29.53185854 194.84268036 29.54518127 199.98052979 C29.55684127 204.81367305 29.5485312 209.64640086 29.52560425 214.47949982 C29.52037084 216.24014856 29.52173725 218.00083304 29.53065491 219.76146698 C29.62314022 239.89647919 25.63596943 258.85491755 11.25512695 273.87060547 C-3.14526978 288.30276958 -19.03094419 295.20236524 -39.375 295.4375 C-58.1901157 295.34103542 -74.24709088 289.07043393 -88 276 C-105.25006819 258.1151293 -108.15346847 237.59532216 -108.14526367 213.84472656 C-108.14825959 212.11081877 -108.15166311 210.37691164 -108.15544128 208.64300537 C-108.16424169 203.9527288 -108.16661773 199.2624705 -108.16725707 194.57218647 C-108.16796985 191.63609187 -108.17010849 188.70000185 -108.17275429 185.76390839 C-108.18199479 175.50438647 -108.18609082 165.24487751 -108.18530273 154.98535156 C-108.18470237 145.4486217 -108.19524937 135.91194847 -108.2110464 126.37523293 C-108.22415734 118.16514708 -108.22948514 109.95507966 -108.22884732 101.74498343 C-108.22859337 96.85139455 -108.23138756 91.95785603 -108.24202538 87.06427765 C-108.25176631 82.45789246 -108.25174478 77.85160518 -108.24450874 73.24521637 C-108.2434703 71.56393286 -108.24578128 69.88264305 -108.2518692 68.20137024 C-108.33156308 44.64915849 -103.94975874 25.00336485 -87.3828125 7.28515625 C-64.08437696 -15.05842537 -26.67276196 -17.97006752 0 0 Z " fill="#2EB67C" transform="translate(451,14)"/>
<path d="M0 0 C1.8277107 -0.00599266 3.65541887 -0.0127999 5.48312378 -0.02035522 C10.42561072 -0.03794975 15.3680283 -0.0427079 20.31054354 -0.0439868 C23.40597399 -0.04541295 26.50138708 -0.04969138 29.5968132 -0.05498123 C40.41741801 -0.07346161 51.23797369 -0.08165456 62.05859375 -0.08007812 C72.1094247 -0.07887807 82.16004044 -0.09995882 92.21081698 -0.13156545 C100.86853205 -0.15781097 109.52617721 -0.16844193 118.18393171 -0.16716731 C123.34202427 -0.16666 128.4999255 -0.17221419 133.65797806 -0.19352341 C138.51563088 -0.21304517 143.37291262 -0.21293604 148.23057938 -0.19849014 C150.00091094 -0.19641794 151.7712666 -0.20100664 153.54155731 -0.21321106 C175.52132874 -0.35477499 194.09954929 4.89137602 210.23583984 20.60302734 C219.30512808 30.16254738 224.67823993 40.54301694 227.86083984 53.29052734 C228.14894531 54.41007812 228.14894531 54.41007812 228.44287109 55.55224609 C231.48498722 75.48237138 227.28758385 93.65800525 215.82958984 110.22802734 C204.24916374 125.33293095 187.88550654 134.11985947 169.22795105 136.81538391 C161.81688976 137.61408015 154.34943328 137.4383955 146.9050293 137.43579102 C145.19244819 137.43878704 143.47986776 137.44219059 141.76728821 137.44596863 C137.13479385 137.4547686 132.50231798 137.45714508 127.86981606 137.45778441 C124.9692257 137.4584973 122.06863997 137.46063614 119.16805077 137.46328163 C109.03056924 137.47252247 98.89310083 137.47661818 88.75561523 137.47583008 C79.33592063 137.47522993 69.91628341 137.4857727 60.49660331 137.50157374 C52.38501478 137.5146911 44.27344491 137.5200122 36.16184586 137.51937467 C31.32802859 137.51912087 26.49426233 137.5219061 21.6604557 137.53255272 C17.10905902 137.54230435 12.55776139 137.54226495 8.00636101 137.53503609 C6.34646076 137.5339989 4.68655411 137.53630091 3.02666473 137.54239655 C-20.63724785 137.623592 -40.83703398 133.61159621 -58.72119141 116.86474609 C-72.42776385 102.27245006 -78.61833365 84.13521681 -78.13916016 64.29052734 C-76.50880842 44.32212455 -67.15949946 27.35700137 -52.13916016 14.29052734 C-36.29416527 2.11973417 -19.27679977 -0.01265007 0 0 Z " fill="#ECB22D" transform="translate(421.13916015625,342.70947265625)"/>
<path d="M0 0 C13.79677885 11.68275629 22.0919561 27.14754194 24.625 45.0625 C24.72076193 47.62785442 24.77285174 50.16607692 24.77217102 52.73091125 C24.77584771 53.48358392 24.7795244 54.23625659 24.7833125 55.01173753 C24.79429024 57.52386396 24.79818317 60.03594894 24.80200195 62.5480957 C24.80827135 64.35388824 24.81491857 66.15967949 24.82191467 67.96546936 C24.84291068 73.88973093 24.85331674 79.81399262 24.86328125 85.73828125 C24.86733125 87.78407492 24.87144825 89.82986845 24.87563133 91.87566185 C24.89467762 101.49453047 24.90890669 111.11339147 24.9172433 120.73227531 C24.92699701 131.80112484 24.95327008 142.8697734 24.99374419 153.9385522 C25.0240166 162.51466574 25.0387229 171.09072206 25.04202431 179.66688794 C25.04436319 184.77869581 25.05317032 189.89028887 25.07848549 195.00203896 C25.101965 199.82104989 25.10592056 204.63970765 25.09572411 209.45876122 C25.09523334 211.21416278 25.10141587 212.96958293 25.11528015 214.72492981 C25.27605873 236.31339783 20.67656498 255.54569263 5.46411133 271.55371094 C-8.73915757 285.63167627 -26.33351096 291.36187514 -46.08203125 291.37719727 C-64.43384883 291.1112973 -80.10102859 283.65096115 -93.375 271.0625 C-106.33755963 257.57412226 -112.47359949 239.92619294 -112.51544189 221.41223145 C-112.51841302 220.67362743 -112.52138414 219.93502341 -112.5244453 219.17403746 C-112.53307025 216.71562263 -112.53463527 214.25725685 -112.53613281 211.79882812 C-112.54076551 210.02905169 -112.54579077 208.25927625 -112.55117798 206.48950195 C-112.56426335 201.69154203 -112.57073976 196.89359608 -112.57518864 192.09562111 C-112.57812653 189.09218282 -112.58223275 186.08874828 -112.58669281 183.08531189 C-112.60035961 173.67147989 -112.6100294 164.25765655 -112.6138947 154.84381533 C-112.61836897 144.00874344 -112.63589102 133.1737981 -112.6648953 122.33876467 C-112.68658128 113.94355151 -112.69660271 105.54837376 -112.69793582 97.15313292 C-112.6989792 92.14875634 -112.70478662 87.14449885 -112.72275543 82.14015198 C-112.73935541 77.42541338 -112.74133437 72.71088186 -112.73261642 67.99612427 C-112.7318523 66.27697694 -112.73610507 64.55781793 -112.74607468 62.83869934 C-112.85309941 43.21407896 -109.72476818 25.97256171 -97.375 10.0625 C-96.92640625 9.44890625 -96.4778125 8.8353125 -96.015625 8.203125 C-72.73081207 -21.65622335 -28.17800831 -21.60031058 0 0 Z " fill="#E01D59" transform="translate(285.375,357.9375)"/>
<path d="M0 0 C0.77364714 -0.00367669 1.54729428 -0.00735338 2.34438527 -0.01114148 C4.93338318 -0.02214265 7.5223409 -0.02601616 10.11135864 -0.02983093 C11.96950914 -0.03609851 13.82765839 -0.04274558 15.68580627 -0.04974365 C21.78744641 -0.07075978 27.88908671 -0.08114704 33.99075317 -0.09111023 C36.0957147 -0.09515937 38.2006761 -0.09927634 40.30563736 -0.10346031 C50.20108418 -0.12251038 60.09652357 -0.13673911 69.9919852 -0.14507228 C81.38913506 -0.15482989 92.78608994 -0.18111164 104.18317115 -0.22157317 C113.0072142 -0.25181703 121.83120165 -0.26654917 130.65529549 -0.26985329 C135.91795837 -0.27219526 141.18041292 -0.28104351 146.44301987 -0.30631447 C151.40236116 -0.3297438 156.36135918 -0.33376917 161.32074165 -0.32355309 C163.13019648 -0.32306113 164.93966907 -0.32927978 166.74907112 -0.34310913 C188.62531995 -0.50080566 206.34632612 5.03404022 222.58840942 20.35420227 C235.20117925 33.35505733 241.51130793 50.31933249 241.68606567 68.33467102 C241.11489604 85.97169684 235.1247004 101.98194084 223.24856567 115.14717102 C222.74196411 115.74529602 222.23536255 116.34342102 221.71340942 116.95967102 C212.33719885 127.28041387 197.90134015 133.94147093 184.24856567 136.14717102 C181.62369949 136.24310889 179.0255647 136.29073584 176.40101624 136.28761292 C175.22511983 136.2920696 175.22511983 136.2920696 174.02546793 136.29661632 C171.40182493 136.30527929 168.77822769 136.30680955 166.15457153 136.30830383 C164.2718496 136.31293381 162.3891286 136.31795872 160.50640869 136.323349 C155.39242613 136.33646017 150.27845669 136.3429158 145.16445994 136.34735966 C141.96640965 136.35029327 138.76836291 136.35439869 135.57031441 136.35886383 C125.55580377 136.37253718 115.5413013 136.38220387 105.52678198 136.38606572 C93.98304703 136.39054215 82.43943074 136.40807146 70.89573187 136.43706632 C61.96303089 136.45872057 53.03036321 136.46877205 44.09763628 136.47010684 C38.76748214 136.47115245 33.43743956 136.47700795 28.10731316 136.49492645 C23.08810628 136.51147125 18.06909406 136.51353163 13.04986954 136.50478745 C11.21497258 136.50402042 9.38006488 136.50831535 7.54519463 136.5182457 C-14.30934118 136.62951654 -30.94569132 131.1897825 -47.08346558 115.94404602 C-59.81714357 102.8415903 -65.68589336 86.1466355 -66.25143433 68.08467102 C-65.66471534 48.87435595 -58.14457839 31.66415361 -44.59518433 17.96748352 C-32.37137509 6.56146434 -16.787078 -0.00430821 0 0 Z " fill="#35C5F0" transform="translate(68.75143432617188,172.8528289794922)"/>
<path d="M0 0 C10.17156436 -0.09324485 20.34302474 -0.16403868 30.51493168 -0.20724869 C35.23968311 -0.22800173 39.96413918 -0.2560908 44.6887207 -0.30175781 C49.25993635 -0.34565898 53.83087039 -0.36922909 58.40228081 -0.37950897 C60.13435732 -0.38682182 61.86642084 -0.4010985 63.59837532 -0.42292023 C83.62667825 -0.66491392 100.92851694 3.61113454 115.88989258 17.81298828 C129.74190886 31.46728476 137.26601654 48.53758965 137.5 68 C137.27033842 87.10292212 130.05875597 103.81434028 116.6171875 117.41015625 C101.71044821 131.40566853 84.44000563 136.57949568 64.2890625 136.2734375 C46.93934385 135.64105873 31.38608968 128.10330224 19 116 C5.91524463 101.07552389 -0.14828378 84.2251865 -0.11352539 64.48242188 C-0.11374443 63.42728394 -0.11374443 63.42728394 -0.1139679 62.35083008 C-0.11327869 60.05677052 -0.10553345 57.76279513 -0.09765625 55.46875 C-0.09578854 53.86592656 -0.0943663 52.26310254 -0.09336853 50.66027832 C-0.08957117 46.46490878 -0.07976496 42.26957448 -0.06866455 38.07421875 C-0.05839031 33.78385901 -0.05385809 29.49349352 -0.04882812 25.203125 C-0.03813991 16.80206726 -0.02109732 8.40103803 0 0 Z " fill="#ECB12D" transform="translate(343,513)"/>
<path d="M0 0 C2.20645163 1.66609613 4.29425529 3.39687369 6.359375 5.234375 C7.27783203 6.03101563 7.27783203 6.03101563 8.21484375 6.84375 C20.59055495 18.31791932 27.85292724 35.69060279 28.6187439 52.41375732 C28.73959138 57.01856978 28.6981177 61.62094448 28.65234375 66.2265625 C28.6467325 67.91048805 28.64246966 69.59441858 28.63948059 71.27835083 C28.6281519 75.66117425 28.59879146 80.04368844 28.56536865 84.4263916 C28.53440595 88.91833313 28.52091989 93.41032575 28.50585938 97.90234375 C28.47390729 106.67982773 28.42286049 115.45706265 28.359375 124.234375 C18.3181955 124.32763035 8.27712139 124.39841887 -1.76440525 124.44162369 C-6.4286246 124.46237451 -11.09254464 124.4904593 -15.7565918 124.53613281 C-20.26945312 124.58004219 -24.78202912 124.60360575 -29.29508781 124.61388397 C-31.00483623 124.62119539 -32.71457151 124.63546913 -34.42419624 124.65729523 C-55.13640074 124.91086547 -73.13878783 119.88218775 -88.640625 105.234375 C-102.26455389 91.09421817 -109.07554993 73.17214694 -108.85546875 53.609375 C-107.69780719 35.42356428 -100.29016732 17.44864001 -86.7578125 4.9140625 C-61.27573184 -15.30234836 -27.49961209 -18.3873146 0 0 Z " fill="#35C5F0" transform="translate(281.640625,14.765625)"/>
<path d="M0 0 C15.20270958 11.43131322 23.30485857 27.25476159 26.97265625 45.59375 C28.92090583 67.80379516 22.36537629 86.03445437 8.640625 103.21484375 C-0.9826503 113.7639025 -15.76305638 120.90465356 -29.71484375 123.15625 C-32.36140801 123.24372331 -34.98039675 123.28280469 -37.6262207 123.26977539 C-38.79774437 123.26999443 -38.79774437 123.26999443 -39.99293518 123.2702179 C-42.56302714 123.2695237 -45.13304577 123.26175446 -47.703125 123.25390625 C-49.48959819 123.25204032 -51.27607189 123.25061724 -53.06254578 123.24961853 C-57.75608746 123.24580716 -62.44959802 123.23598867 -67.14312744 123.22491455 C-71.9359088 123.21467075 -76.72869521 123.21011455 -81.52148438 123.20507812 C-90.91928448 123.19436514 -100.31706152 123.17730531 -109.71484375 123.15625 C-109.80825006 113.54074854 -109.87896203 103.92540745 -109.92209244 94.30954838 C-109.94281128 89.84267513 -109.97083479 85.37611624 -110.01660156 80.90942383 C-110.06062862 76.58458383 -110.08409827 72.26004277 -110.09435272 67.93499565 C-110.10164365 66.29946637 -110.11587473 64.66395015 -110.13776398 63.0285511 C-110.40948527 41.85112327 -105.83021761 22.86865699 -90.92578125 7.16650391 C-86.59281278 2.82607509 -81.97773233 -0.71628266 -76.71484375 -3.84375 C-75.56628906 -4.53210938 -75.56628906 -4.53210938 -74.39453125 -5.234375 C-50.34903493 -18.40781523 -22.17569222 -15.06032623 0 0 Z " fill="#2DB67C" transform="translate(622.71484375,185.84375)"/>
<path d="M0 0 C1.70348436 0.00748517 3.40697749 0.01316729 5.11047363 0.01715088 C9.5361217 0.03222859 13.96122209 0.07134968 18.38665771 0.1159668 C22.92566525 0.15731144 27.46476361 0.17524448 32.00390625 0.1953125 C40.86743536 0.23786675 49.73052405 0.3058931 58.59375 0.390625 C58.68700535 10.4318045 58.75779387 20.47287861 58.80099869 30.51440525 C58.82174951 35.1786246 58.8498343 39.84254464 58.89550781 44.5065918 C58.93941719 49.01945312 58.96298075 53.53202912 58.97325897 58.04508781 C58.98057039 59.75483623 58.99484413 61.46457151 59.01667023 63.17419624 C59.26356681 83.34128105 54.57888548 100.1311325 41.1015625 115.82421875 C27.45314242 129.79152715 10.65598433 136.46352254 -8.61328125 137.38671875 C-27.53701564 137.40620766 -44.474526 130.45065304 -58.28125 117.60546875 C-70.9932278 104.356036 -78.05225288 87.25967722 -77.78125 68.953125 C-77.76964844 67.9417749 -77.75804688 66.9304248 -77.74609375 65.88842773 C-77.35765188 48.17005166 -70.73746076 32.46481744 -58.125 19.94140625 C-41.28835167 4.14495315 -22.4216882 -0.29501671 0 0 Z " fill="#E01D59" transform="translate(81.40625,342.609375)"/>
</svg>
