<?xml version="1.0" encoding="UTF-8"?>
<svg version="1.1" xmlns="http://www.w3.org/2000/svg" width="438" height="115">
<path d="M0 0 C144.54 0 289.08 0 438 0 C438 37.95 438 75.9 438 115 C293.46 115 148.92 115 0 115 C0 77.05 0 39.1 0 0 Z " fill="#FCFCFC" transform="translate(0,0)"/>
<path d="M0 0 C1.7734375 0.9921875 1.7734375 0.9921875 4.8359375 3.2421875 C5.7228125 3.8196875 6.6096875 4.3971875 7.5234375 4.9921875 C12.00703284 9.35460458 14.0613628 13.97634413 14.2734375 20.2421875 C14.04181042 25.8012375 12.8815969 31.1965281 8.8359375 35.2421875 C9.28053986 39.7172069 12.26394246 43.23671122 14.65625 46.90234375 C15.24019531 48.06056641 15.24019531 48.06056641 15.8359375 49.2421875 C14.8359375 52.2421875 14.8359375 52.2421875 8.8359375 55.2421875 C6.1959375 50.9521875 3.5559375 46.6621875 0.8359375 42.2421875 C-1.6390625 42.7371875 -1.6390625 42.7371875 -4.1640625 43.2421875 C-10.1941068 43.7961845 -14.76532784 43.25302029 -20.1640625 40.2421875 C-25.21634828 35.89487183 -29.66722082 30.63568754 -30.4375 23.82421875 C-30.69190571 16.8867706 -29.77720215 12.51269955 -25.1640625 7.2421875 C-18.07295457 0.13525121 -10.16091993 -3.55815608 0 0 Z " fill="#131313" transform="translate(229.1640625,52.7578125)"/>
<path d="M0 0 C2.31 0 4.62 0 7 0 C7.33 8.25 7.66 16.5 8 25 C9.65 23.35 11.3 21.7 13 20 C17.50986332 17.74506834 23.13235152 18.30624636 28 19 C33.54319322 21.95979144 36.62989108 26.25301024 39 32 C40.23855627 40.64109028 39.63165438 47.70694373 34.80078125 55.046875 C32.74566255 57.27585407 30.65358825 58.556896 28 60 C27.1028125 60.5878125 27.1028125 60.5878125 26.1875 61.1875 C22.09820815 62.70637983 18.03218344 62.80415836 13.99609375 61.20703125 C10.81436886 59.47335652 9.02388722 58.03583084 7 55 C6.67 56.98 6.34 58.96 6 61 C4.02 61 2.04 61 0 61 C0 40.87 0 20.74 0 0 Z " fill="#0D0D0D" transform="translate(291,34)"/>
<path d="M0 0 C6.17704161 -0.2777144 10.64613506 0.07999764 15.4296875 4.18359375 C20.98064723 9.72196627 22.59129662 13.46020187 22.7421875 21.43359375 C22.74994459 28.67957597 21.94017571 32.62423563 16.74609375 37.890625 C10.69416998 43.44798296 5.73126252 43.49036649 -2.375 43.390625 C-8.2846395 43.0077266 -11.82548236 41.25844596 -15.8828125 36.87109375 C-21.02532059 30.26125669 -21.40779492 23.3436789 -20.5703125 15.18359375 C-19.00790328 9.25039418 -15.57396247 5.69512465 -10.56640625 2.3046875 C-7.03149374 0.31932568 -3.95805158 0.28271797 0 0 Z " fill="#0A0A0A" transform="translate(57.5703125,51.81640625)"/>
<path d="M0 0 C3.92045515 2.59688269 5.76707682 5.83770202 7.515625 10.0859375 C7.85620117 13.61279297 7.85620117 13.61279297 7.80859375 17.453125 C7.80434891 18.13271271 7.80010406 18.81230042 7.79573059 19.51248169 C7.77906766 21.66238674 7.74144216 23.81132049 7.703125 25.9609375 C7.688062 27.4270697 7.67437643 28.89321674 7.66210938 30.359375 C7.6292058 33.93520625 7.57751163 37.51047691 7.515625 41.0859375 C3.885625 41.0859375 0.255625 41.0859375 -3.484375 41.0859375 C-3.484375 40.0959375 -3.484375 39.1059375 -3.484375 38.0859375 C-4.2475 38.7459375 -5.010625 39.4059375 -5.796875 40.0859375 C-10.32580807 43.10881206 -15.25082379 42.72455536 -20.484375 42.0859375 C-24.11488607 40.85415696 -25.84598319 39.80944822 -28.359375 36.9609375 C-29.94168132 32.91726579 -30.17208952 29.37092799 -29.484375 25.0859375 C-26.71681943 19.7485089 -23.88282695 16.97947842 -18.296875 14.8984375 C-13.92956473 13.96769925 -9.92536985 13.9046724 -5.484375 14.0859375 C-5.75113704 12.10102108 -5.75113704 12.10102108 -6.484375 10.0859375 C-12.29546682 8.14890689 -18.55073777 8.86878114 -24.484375 10.0859375 C-25.144375 7.4459375 -25.804375 4.8059375 -26.484375 2.0859375 C-18.80165276 -1.75542362 -8.22772835 -3.02718307 0 0 Z " fill="#0B0B0B" transform="translate(157.484375,52.9140625)"/>
<path d="M0 0 C4.30887446 2.32992865 7.20907779 5.44094723 9 10 C9.16786322 12.57534673 9.23317374 15.03754393 9.1953125 17.609375 C9.1924826 18.33618469 9.18965271 19.06299438 9.18673706 19.81182861 C9.17557523 22.12472251 9.15047851 24.43722388 9.125 26.75 C9.11496501 28.32160898 9.10584006 29.89322404 9.09765625 31.46484375 C9.07564904 35.31004622 9.04114715 39.15495664 9 43 C4.71 43 0.42 43 -4 43 C-4.05607422 39.91205078 -4.05607422 39.91205078 -4.11328125 36.76171875 C-4.16195717 34.76600608 -4.21073607 32.77029443 -4.26245117 30.7746582 C-4.29568549 29.38870623 -4.32372226 28.00261939 -4.34643555 26.61645508 C-4.38000617 24.62293157 -4.43388 22.62978259 -4.48828125 20.63671875 C-4.51446533 19.43748779 -4.54064941 18.23825684 -4.56762695 17.00268555 C-4.76269225 14.03006668 -4.76269225 14.03006668 -6.34057617 12.10864258 C-8.93413109 10.37591742 -10.97668392 10.61404476 -14 11 C-16.38948197 14.58422296 -16.30233168 16.37232596 -16.4140625 20.63671875 C-16.47207031 22.58481445 -16.47207031 22.58481445 -16.53125 24.57226562 C-16.56270517 25.94400573 -16.59395251 27.31575061 -16.625 28.6875 C-16.66319197 30.07098785 -16.70224442 31.45445223 -16.7421875 32.83789062 C-16.83660267 36.22503472 -16.91939572 39.61249911 -17 43 C-21.62 43 -26.24 43 -31 43 C-31 29.14 -31 15.28 -31 1 C-27.37 1 -23.74 1 -20 1 C-20 2.65 -20 4.3 -20 6 C-19.56171875 5.566875 -19.1234375 5.13375 -18.671875 4.6875 C-12.88912756 -0.39003434 -7.56952008 -1.57828128 0 0 Z " fill="#121212" transform="translate(115,52)"/>
<path d="M0 0 C4.04745778 1.46284523 6.77052687 4.36243858 9 8 C10 11 10 11 10 22 C0.43 22 -9.14 22 -19 22 C-16.1556559 31.00004538 -16.1556559 31.00004538 -10 36 C-6.78767624 36.51814593 -6.78767624 36.51814593 -3.4375 36.3125 C-1.76494141 36.27576172 -1.76494141 36.27576172 -0.05859375 36.23828125 C2.44413537 36.04330491 4.607137 35.71961406 7 35 C7.495 37.475 7.495 37.475 8 40 C-0.33964183 43.17700641 -6.98530305 43.91765209 -15.625 41.19140625 C-20.28191484 38.85528943 -22.73004664 34.53990672 -25 30 C-26.3084005 12.61696483 -26.3084005 12.61696483 -21.4375 6.4453125 C-14.69076695 -0.33808758 -9.37846725 -0.83288091 0 0 Z " fill="#0F0F0F" transform="translate(358,53)"/>
<path d="M0 0 C1.216875 -0.00515625 2.43375 -0.0103125 3.6875 -0.015625 C7 0.25 7 0.25 11 2.25 C10.67 5.22 10.34 8.19 10 11.25 C5.71 10.92 1.42 10.59 -3 10.25 C-3.33 11.57 -3.66 12.89 -4 14.25 C-3.02417969 14.70890625 -2.04835938 15.1678125 -1.04296875 15.640625 C0.24244775 16.25987674 1.52758975 16.8796985 2.8125 17.5 C3.45509766 17.80035156 4.09769531 18.10070312 4.75976562 18.41015625 C8.39751679 20.1819107 11.0797155 21.61815758 13 25.25 C13.91616634 29.78956293 13.37170356 33.44712032 11.4375 37.625 C7.32059796 42.05858681 4.28015622 43.09470287 -1.61328125 43.49609375 C-12.75489332 43.77207237 -12.75489332 43.77207237 -18 41.25 C-17.67 38.61 -17.34 35.97 -17 33.25 C-14 32.25 -14 32.25 -11 33.25 C-8.93854893 33.318991 -6.87498599 33.33467727 -4.8125 33.3125 C-3.72582031 33.30347656 -2.63914062 33.29445312 -1.51953125 33.28515625 C-0.68808594 33.27355469 0.14335937 33.26195312 1 33.25 C0.94038521 31.32620392 0.94038521 31.32620392 0 29.25 C-2.59411687 27.622095 -2.59411687 27.622095 -5.75 26.3125 C-14.46621622 22.14116795 -14.46621622 22.14116795 -17 18.25 C-17.97456099 14.19060818 -17.92961949 10.83124987 -15.78515625 7.18359375 C-11.07701879 1.44517684 -7.48111835 -0.03169965 0 0 Z " fill="#0D0D0D" transform="translate(22,51.75)"/>
<path d="M0 0 C3.82364323 1.60856715 6.17456097 3.74389713 8.4375 7.1875 C9.59319712 12.9659856 9.99025576 18.01948849 7.3125 23.375 C1.69776876 29.7484787 1.69776876 29.7484787 -2.109375 30.3125 C-6.7064924 30.43591255 -10.84025496 30.07987252 -15 28 C-19.00320854 24.1161283 -21.15195122 20.82695774 -21.3125 15.25 C-21.25622052 10.3677549 -20.29587855 7.74126754 -17 4 C-16.34 3.21625 -15.68 2.4325 -15 1.625 C-10.15414803 -0.99983648 -5.37675225 -0.82500431 0 0 Z " fill="#FBFBFB" transform="translate(227,59)"/>
<path d="M0 0 C2.64 0 5.28 0 8 0 C8.01458252 0.85231201 8.02916504 1.70462402 8.04418945 2.58276367 C8.10543285 5.76071175 8.17962029 8.93802546 8.26245117 12.11547852 C8.29559806 13.48775958 8.32366171 14.86017362 8.34643555 16.23266602 C8.38016766 18.21137766 8.4340149 20.18971376 8.48828125 22.16796875 C8.51446533 23.35672607 8.54064941 24.5454834 8.56762695 25.77026367 C9.03531893 29.263825 9.90543572 31.19216035 12 34 C14.52475462 35.26237731 16.31200466 35.09856404 19.125 35.0625 C20.03507812 35.05347656 20.94515625 35.04445312 21.8828125 35.03515625 C22.58148438 35.02355469 23.28015625 35.01195312 24 35 C24.309375 34.38125 24.61875 33.7625 24.9375 33.125 C25.625 31.75 26.3125 30.375 27 29 C27.15441209 26.89625004 27.24992639 24.78804881 27.31640625 22.6796875 C27.35830078 21.42285156 27.40019531 20.16601562 27.44335938 18.87109375 C27.48267578 17.55238281 27.52199219 16.23367187 27.5625 14.875 C27.60569512 13.53514249 27.64930973 12.19529844 27.69335938 10.85546875 C27.79970981 7.57042185 27.90173808 4.28529719 28 1 C30.31 1 32.62 1 35 1 C35 14.53 35 28.06 35 42 C33.02 42 31.04 42 29 42 C28.67 40.02 28.34 38.04 28 36 C27.278125 36.78375 26.55625 37.5675 25.8125 38.375 C22.05272523 41.88412312 19.63610247 42.82151609 14.5625 43.375 C9.61500609 42.85421117 7.04790882 41.15021259 3.63647461 37.56835938 C-1.46704597 30.78032146 -0.55472638 23.05654064 -0.3125 15 C-0.28737943 13.54300712 -0.2645729 12.08597241 -0.24414062 10.62890625 C-0.18945637 7.08505803 -0.10339531 3.54280068 0 0 Z " fill="#101010" transform="translate(247,53)"/>
<path d="M0 0 C0 3.96 0 7.92 0 12 C-1.98567708 12.16276042 -3.97135417 12.32552083 -5.95703125 12.48828125 C-8.57546048 13.1441402 -9.36945975 13.8456005 -11 16 C-11.50664617 18.90087655 -11.50664617 18.90087655 -11.51171875 22.19921875 C-11.54716797 23.40771484 -11.58261719 24.61621094 -11.61914062 25.86132812 C-11.65297852 27.7552832 -11.65297852 27.7552832 -11.6875 29.6875 C-11.72166016 30.96173828 -11.75582031 32.23597656 -11.79101562 33.54882812 C-11.87360195 36.69890643 -11.93847391 39.84943999 -12 43 C-16.62 43 -21.24 43 -26 43 C-26 29.14 -26 15.28 -26 1 C-22.37 1 -18.74 1 -15 1 C-15 3.31 -15 5.62 -15 8 C-14.34 8 -13.68 8 -13 8 C-12.62875 6.8553125 -12.62875 6.8553125 -12.25 5.6875 C-9.52523258 -0.17074995 -6.14375359 -0.35444732 0 0 Z " fill="#151515" transform="translate(197,52)"/>
<path d="M0 0 C24.77753636 0.84854577 46.24515603 10.27127565 63.578125 28.15625 C68.02230293 33.37457505 71.53807264 39.09979527 75 45 C75.64775391 46.07894531 75.64775391 46.07894531 76.30859375 47.1796875 C81.35619863 56.33215393 84.20338021 67.9498648 84.0625 78.375 C84.05347656 79.24898438 84.04445313 80.12296875 84.03515625 81.0234375 C84.02355469 81.67570312 84.01195312 82.32796875 84 83 C82.02 83 80.04 83 78 83 C77.97421875 82.15179688 77.9484375 81.30359375 77.921875 80.4296875 C76.90372143 59.37242053 68.67683427 41.36964119 53.58203125 26.640625 C38.35971297 13.28367401 20.13327815 6.6790313 0 6 C0 4.02 0 2.04 0 0 Z " fill="#54A2D4" transform="translate(337,12)"/>
<path d="M0 0 C7.39129486 4.26420857 7.39129486 4.26420857 8.60546875 7.7265625 C9.62982837 13.62930801 10.63166699 21.37347008 7.25 26.625 C6.5075 27.40875 5.765 28.1925 5 29 C4.443125 29.61875 3.88625 30.2375 3.3125 30.875 C-0.39919411 32.68068903 -3.9674793 32.77770042 -8 32 C-11.35071155 29.43349754 -13.45421414 26.9015905 -15 23 C-16.33230187 10.1417378 -16.33230187 10.1417378 -13.3125 5.3125 C-9.1471014 1.1471014 -6.01590456 -0.85941494 0 0 Z " fill="#F7F7F7" transform="translate(313,58)"/>
<path d="M0 0 C14.76501227 1.55421182 26.64199335 11.10551861 37 21 C37.61488281 21.54011719 38.22976563 22.08023437 38.86328125 22.63671875 C48.74879981 31.65867476 54.94038917 44.43908648 59 57 C59 57.99 59 58.98 59 60 C57.35 60 55.7 60 54 60 C53.78085937 59.26136719 53.56171875 58.52273437 53.3359375 57.76171875 C46.77511761 36.77242911 33.36159857 20.46275804 14 10 C9.42816765 7.7671667 4.74360769 5.83832821 0 4 C0 2.68 0 1.36 0 0 Z " fill="#53A1D4" transform="translate(370,6)"/>
<path d="M0 0 C3.64909866 0.76022889 5.37904668 2.00404668 8 4.625 C9.65235053 9.5820516 10.22831325 15.73846386 8.140625 20.64453125 C6.92002847 22.46215869 5.54913534 24.07586466 4 25.625 C-0.39971278 26.21726903 -2.33125645 26.12300051 -5.9375 23.4375 C-9.44715344 18.55196914 -8.89305447 12.30741916 -8 6.625 C-6.33406266 2.69310551 -4.27556789 0.89074331 0 0 Z " fill="#F3F3F3" transform="translate(58,60.375)"/>
<path d="M0 0 C2.64015065 1.75000811 3.3517964 3.12893567 5 6 C5 7.98 5 9.96 5 12 C-1.93 12 -8.86 12 -16 12 C-15.05034634 6.30207802 -14.70282493 4.92723856 -11 1 C-7.49945062 -0.75027469 -3.80988517 -0.68972059 0 0 Z " fill="#F5F5F5" transform="translate(356,58)"/>
<path d="M0 0 C9.63630415 1.58767482 19.26869191 13.21088418 25.01171875 20.58203125 C28.05003916 24.8305841 31.09298351 29.11327025 33 34 C32.67 34.99 32.34 35.98 32 37 C31.34 37 30.68 37 30 37 C28.74698831 35.08292217 27.57402736 33.11334888 26.4375 31.125 C20.25094066 20.68687191 11.8271046 11.31269794 1.73828125 4.46484375 C1.16464844 3.98144531 0.59101563 3.49804688 0 3 C0 2.01 0 1.02 0 0 Z " fill="#54A2D4" transform="translate(400,4)"/>
<path d="M0 0 C0.48076923 6.25 0.48076923 6.25 -1.5625 9.4375 C-4.84315915 11.54048663 -7.17988724 11.360388 -11 11 C-12 10 -12 10 -12.3125 6.625 C-12 3 -12 3 -10.5 1.0625 C-6.87802345 -0.47684003 -3.92037077 -0.19601854 0 0 Z " fill="#EEEEEE" transform="translate(153,75)"/>
<path d="M0 0 C0.33 0 0.66 0 1 0 C1 3.96 1 7.92 1 12 C0.01 11.34 -0.98 10.68 -2 10 C-2.36328125 8.125 -2.36328125 8.125 -2.3125 6 C-2.30669922 4.948125 -2.30669922 4.948125 -2.30078125 3.875 C-2 2 -2 2 0 0 Z " fill="#BBBBBB" transform="translate(332,68)"/>
</svg>
