<?xml version="1.0" encoding="UTF-8"?>
<svg version="1.1" xmlns="http://www.w3.org/2000/svg" width="307" height="164">
<path d="M0 0 C101.31 0 202.62 0 307 0 C307 54.12 307 108.24 307 164 C205.69 164 104.38 164 0 164 C0 109.88 0 55.76 0 0 Z " fill="#FCFCFD" transform="translate(0,0)"/>
<path d="M0 0 C12.12174215 4.00928848 12.12174215 4.00928848 16 8 C17.1390034 12.50820169 16.69899027 16.77382425 16.3125 21.375 C15.45818841 41.35383346 20.83446049 56.66946066 34 72 C34.49757812 72.59296875 34.99515625 73.1859375 35.5078125 73.796875 C43.60972763 82.67233982 55.07642463 88.42390762 66 93 C66 99.93 66 106.86 66 114 C62.82506662 112.73002665 60.10075858 111.59844601 57.171875 109.96875 C56.46345459 109.57558594 55.75503418 109.18242187 55.02514648 108.77734375 C54.27434814 108.35582031 53.5235498 107.93429688 52.75 107.5 C51.95859619 107.05785156 51.16719238 106.61570312 50.35180664 106.16015625 C42.88515063 101.9702235 35.50577223 97.63844455 28.14404297 93.26757812 C25.92537877 91.95588323 23.70005177 90.65618234 21.47265625 89.359375 C20.7237915 88.92238281 19.97492676 88.48539062 19.20336914 88.03515625 C17.79355629 87.21285654 16.38268432 86.3923683 14.97045898 85.57421875 C13.69148362 84.82626141 12.42372234 84.05865937 11.17028809 83.26864624 C9.0267678 81.94608043 9.0267678 81.94608043 6.67152405 81.05606079 C3.77934517 79.6729721 2.06191275 78.47813056 0 76 C-1.30022251 70.26894068 -1.04870874 64.6349802 -0.87890625 58.7890625 C-0.86210779 57.09373356 -0.84930245 55.39836076 -0.84031677 53.70297241 C-0.80604756 49.25317508 -0.71773178 44.80604667 -0.61798096 40.3572998 C-0.52570193 35.81278592 -0.48476428 31.26783814 -0.43945312 26.72265625 C-0.34309901 17.8139352 -0.18961735 8.90719001 0 0 Z " fill="#1906DA" transform="translate(3,45)"/>
<path d="M0 0 C0 25.41 0 50.82 0 77 C-9.24 82.28 -18.48 87.56 -28 93 C-33.98053322 96.52575262 -39.9438496 100.07271624 -45.890625 103.65429688 C-52.14488006 107.39391532 -58.4382992 110.82830913 -65 114 C-65 107.07 -65 100.14 -65 93 C-62.421875 91.700625 -59.84375 90.40125 -57.1875 89.0625 C-38.17820991 79.14933547 -24.86028151 64.69618657 -18.03515625 44.30859375 C-17.69355469 43.21675781 -17.35195312 42.12492187 -17 41 C-16.75121094 40.20722656 -16.50242188 39.41445312 -16.24609375 38.59765625 C-13.70579608 29.05821676 -14.66592788 18.67202286 -16 9 C-14.41906946 7.87162591 -12.83515284 6.74743482 -11.25 5.625 C-10.36828125 4.99851562 -9.4865625 4.37203125 -8.578125 3.7265625 C-3.01357466 0 -3.01357466 0 0 0 Z " fill="#09B1D5" transform="translate(138,45)"/>
<path d="M0 0 C3.32442073 1.83820911 6.61108292 3.72483435 9.86572266 5.68310547 C16.38932892 9.56649279 22.9524265 13.37002653 29.55322266 17.12060547 C32.21541963 18.6415412 34.87633351 20.16469196 37.53662109 21.68896484 C39.50454849 22.81524155 41.47407022 23.9387352 43.44482422 25.06005859 C46.52922782 26.81902037 49.60447975 28.59309444 52.67822266 30.37060547 C53.64590576 30.91885986 54.61358887 31.46711426 55.6105957 32.03198242 C56.49529541 32.54720459 57.37999512 33.06242676 58.29150391 33.59326172 C59.47353394 34.27207397 59.47353394 34.27207397 60.67944336 34.96459961 C61.23591553 35.40795654 61.7923877 35.85131348 62.36572266 36.30810547 C62.36572266 37.29810547 62.36572266 38.28810547 62.36572266 39.30810547 C54.94072266 43.26810547 54.94072266 43.26810547 47.36572266 47.30810547 C46.23134766 45.82310547 45.09697266 44.33810547 43.92822266 42.80810547 C33.69365397 30.11795726 21.69457173 22.58920196 5.36572266 20.30810547 C-10.36471003 19.04827104 -24.80864472 22.93225995 -37.53271484 32.48388672 C-42.62418618 36.91025594 -46.87940313 41.70632158 -50.63427734 47.30810547 C-54.67728909 45.82291748 -58.24573991 43.87932549 -61.94677734 41.68310547 C-63.01541016 41.05146484 -64.08404297 40.41982422 -65.18505859 39.76904297 C-65.99330078 39.28693359 -66.80154297 38.80482422 -67.63427734 38.30810547 C-65.21920244 35.62996795 -62.62374822 34.00375436 -59.49755859 32.22607422 C-58.45680176 31.63052734 -57.41604492 31.03498047 -56.34375 30.42138672 C-55.22274902 29.78587891 -54.10174805 29.15037109 -52.94677734 28.49560547 C-51.18567996 27.49000643 -49.42559808 26.48264488 -47.66552734 25.47525024 C-46.45848847 24.78456987 -45.25112804 24.09445119 -44.04345703 23.40487671 C-37.9264471 19.91077456 -31.84073519 16.36368094 -25.75927734 12.80810547 C-24.81737549 12.25791748 -23.87547363 11.70772949 -22.9050293 11.14086914 C-21.99325928 10.60824463 -21.08148926 10.07562012 -20.14208984 9.52685547 C-19.2490918 9.01123047 -18.35609375 8.49560547 -17.43603516 7.96435547 C-15.41854446 6.77172242 -13.4256213 5.53717491 -11.44970703 4.27685547 C-10.39428711 3.61685547 -9.33886719 2.95685547 -8.25146484 2.27685547 C-7.2961084 1.66261719 -6.34075195 1.04837891 -5.35644531 0.41552734 C-2.63427734 -0.69189453 -2.63427734 -0.69189453 0 0 Z " fill="#FFC905" transform="translate(72.63427734375,3.69189453125)"/>
<path d="M0 0 C4.31549741 3.4674739 8.43455801 7.63704595 11.0390625 12.5625 C9.73237604 16.48255939 8.25238555 16.84282042 4.6640625 18.75 C3.68695313 19.27980469 2.70984375 19.80960938 1.703125 20.35546875 C-0.9609375 21.5625 -0.9609375 21.5625 -3.9609375 21.5625 C-5.25 20.0234375 -5.25 20.0234375 -6.5859375 17.9375 C-11.43501931 11.11734504 -18.56858489 6.78803468 -26.7109375 4.9375 C-38.69424982 3.55481012 -49.1869108 5.89939815 -59.046875 13.08203125 C-62.10611144 15.63139495 -64.76711542 18.20724271 -66.9609375 21.5625 C-71.02319298 20.98426904 -73.80856096 19.67132263 -77.2734375 17.5 C-78.15644531 16.95214844 -79.03945312 16.40429688 -79.94921875 15.83984375 C-80.61308594 15.41832031 -81.27695313 14.99679688 -81.9609375 14.5625 C-76.73969849 3.17303255 -64.86178394 -4.92101083 -53.4609375 -9.4375 C-34.57217995 -14.83428787 -15.78435599 -11.571002 0 0 Z " fill="#FFC903" transform="translate(105.9609375,38.4375)"/>
<path d="M0 0 C5.60660317 1.43759056 11.1068778 3.61198938 15 8 C15.74888479 11.22733685 15.81404278 14.18578183 15.85546875 17.49609375 C16.36027941 29.73434145 22.45467972 41.00493451 31.25 49.3125 C36.08736827 53.36452696 41.38419198 56.1565529 47 59 C47 65.27 47 71.54 47 78 C41.60690147 77.10115024 38.31287271 75.82859696 33.8125 73.0625 C33.15830078 72.66281006 32.50410156 72.26312012 31.83007812 71.85131836 C21.9638625 65.64153382 14.03433599 58.0413885 8 48 C7.53980469 47.24460938 7.07960938 46.48921875 6.60546875 45.7109375 C-1.26297745 31.49543651 -2.4774358 15.81127728 0 0 Z " fill="#1907DA" transform="translate(22,56)"/>
<path d="M0 0 C3.73709597 7.47419194 2.10019517 22.32519883 0.12890625 30.28125 C-1.03825205 33.6794027 -2.37073956 36.79922506 -4 40 C-4.51949219 41.0415625 -5.03898437 42.083125 -5.57421875 43.15625 C-9.46219682 50.33405567 -14.25274264 56.23316084 -20 62 C-20.66386719 62.68707031 -21.32773438 63.37414062 -22.01171875 64.08203125 C-27.45356008 69.33729516 -39.07060402 79 -47 79 C-47 72.4 -47 65.8 -47 59 C-39.875 55.3125 -39.875 55.3125 -37.66748047 54.18481445 C-27.35371022 48.7621826 -20.43571004 41.00337787 -16.625 29.875 C-15.3029993 25.33935531 -14.93082643 21.40098306 -14.98608398 16.73681641 C-15.00911438 13.24185234 -14.83787001 10.43413986 -14 7 C-10.30067659 3.41508866 -5.35065809 0 0 0 Z " fill="#0CB1D5" transform="translate(119,56)"/>
<path d="M0 0 C2.64 0 5.28 0 8 0 C8.01401855 1.08885498 8.01401855 1.08885498 8.02832031 2.19970703 C8.08221281 5.50881214 8.16582439 8.81653238 8.25 12.125 C8.26417969 13.26710938 8.27835937 14.40921875 8.29296875 15.5859375 C8.53947869 24.08705624 8.53947869 24.08705624 13 31 C17.24582147 33.83054764 21.01484837 33.77409187 26 33 C29.62259904 31.1162485 31.68975631 28.93073106 33 25 C33.14939774 23.08234406 33.24810283 21.16053478 33.31640625 19.23828125 C33.37924805 17.56088867 33.37924805 17.56088867 33.44335938 15.84960938 C33.48267578 14.68236328 33.52199219 13.51511719 33.5625 12.3125 C33.62727539 10.54422852 33.62727539 10.54422852 33.69335938 8.74023438 C33.79951176 5.82694117 33.90156242 2.91356243 34 0 C36.64 0 39.28 0 42 0 C42.07631204 7.25904578 42.12870984 14.51798737 42.16479492 21.77734375 C42.17984452 24.24483099 42.2002889 26.71229165 42.22631836 29.1796875 C42.26286926 32.73444191 42.27976518 36.28884139 42.29296875 39.84375 C42.30845261 40.93989624 42.32393646 42.03604248 42.33988953 43.16540527 C42.3415392 50.74042705 41.33109103 56.201185 37.3125 62.75 C32.21698808 67.70779538 27.54914685 69.2629451 20.4375 69.5 C14.79966091 69.34266496 11.49904178 68.34812411 7 65 C8.65 63.02 10.3 61.04 12 59 C12.66 59.33 13.32 59.66 14 60 C17.73646737 61.24548912 21.12590825 61.62167421 25 61 C29.03873396 58.90584165 31.40997525 57.25899487 33 53 C33.29414765 50.3915208 33.50637617 47.86466689 33.625 45.25 C33.66367187 44.55261719 33.70234375 43.85523438 33.7421875 43.13671875 C33.83598624 41.42489182 33.91906174 39.71248318 34 38 C32.865625 38.66 31.73125 39.32 30.5625 40 C25.91716475 42.27776544 22.1065596 42.96906659 17 42 C10.5193444 39.72693423 5.71578042 36.80590691 2 31 C-0.45929666 24.57659229 -0.23009738 18.3736189 -0.125 11.5625 C-0.11597656 10.44939453 -0.10695313 9.33628906 -0.09765625 8.18945312 C-0.0742224 5.45940977 -0.041414 2.7298199 0 0 Z " fill="#0F2A32" transform="translate(265,90)"/>
<path d="M0 0 C4.62870493 2.85951104 9.65370205 6.50606313 11.34375 11.875 C11.44042969 12.45378906 11.53710938 13.03257813 11.63671875 13.62890625 C9.39718819 15.02412181 7.14785265 16.39453409 4.88671875 17.75390625 C4.2525 18.15222656 3.61828125 18.55054687 2.96484375 18.9609375 C1.08984375 20.07421875 1.08984375 20.07421875 -2.36328125 21.62890625 C-5.28263109 20.83181414 -6.60660146 19.43193275 -8.98828125 17.50390625 C-13.53185678 14.97969762 -17.2681153 14.78522617 -22.36328125 15.62890625 C-25.60267781 17.36429727 -27.78649259 19.05211759 -30.36328125 21.62890625 C-34.76648677 21.32816192 -37.9559086 19.31468093 -41.67578125 17.06640625 C-43.27873047 16.10541016 -43.27873047 16.10541016 -44.9140625 15.125 C-45.72230469 14.63128906 -46.53054687 14.13757813 -47.36328125 13.62890625 C-37.36669325 -3.16536159 -17.52480912 -8.39182538 0 0 Z " fill="#FFC903" transform="translate(88.36328125,49.37109375)"/>
<path d="M0 0 C3.87476425 3.21731327 6.14078722 5.50612 7.7890625 10.359375 C8.63210937 9.91464844 9.47515625 9.46992187 10.34375 9.01171875 C11.43945312 8.44582031 12.53515625 7.87992188 13.6640625 7.296875 C14.75460938 6.72839844 15.84515625 6.15992188 16.96875 5.57421875 C17.89945313 5.17332031 18.83015625 4.77242187 19.7890625 4.359375 C20.7790625 4.854375 20.7790625 4.854375 21.7890625 5.359375 C20.73340717 8.64363603 19.17245898 9.93089056 16.2890625 11.609375 C12.7890625 13.359375 12.7890625 13.359375 10.7890625 13.359375 C10.83546875 14.47957031 10.881875 15.59976563 10.9296875 16.75390625 C10.96720673 18.22653585 11.00360673 19.69919427 11.0390625 21.171875 C11.08933594 22.27885742 11.08933594 22.27885742 11.140625 23.40820312 C11.1796875 25.56640625 11.1796875 25.56640625 10.7890625 29.359375 C9.4690625 30.349375 8.1490625 31.339375 6.7890625 32.359375 C6.2940625 24.934375 6.2940625 24.934375 5.7890625 17.359375 C3.02217715 18.83343619 0.27859571 20.33592726 -2.4609375 21.859375 C-3.23824219 22.26929687 -4.01554687 22.67921875 -4.81640625 23.1015625 C-9.80119362 25.91349384 -12.14173037 28.24180175 -14.36035156 33.51757812 C-15.55445864 36.10321068 -17.25826224 37.59723479 -19.4609375 39.359375 C-20.16734375 39.936875 -20.87375 40.514375 -21.6015625 41.109375 C-22.13265625 41.521875 -22.66375 41.934375 -23.2109375 42.359375 C-29.27912482 39.74172557 -31.70475658 36.8522943 -34.40234375 30.8203125 C-35.46978206 27.57158721 -35.31096391 25.58611913 -34.2109375 22.359375 C-33.9428125 21.286875 -33.6746875 20.214375 -33.3984375 19.109375 C-32.2109375 16.359375 -32.2109375 16.359375 -30.44140625 15.2109375 C-26.43205658 13.68022256 -22.42828215 13.79884185 -18.2109375 14.359375 C-14.8359375 16.234375 -14.8359375 16.234375 -12.2109375 18.359375 C-10.47843969 19.82989015 -10.47843969 19.82989015 -8.2109375 20.359375 C-5.14603086 19.05435723 -5.14603086 19.05435723 -2.0859375 16.984375 C3.63848335 13.359375 3.63848335 13.359375 5.7890625 13.359375 C1.43406129 6.04297297 -4.11108694 0.97041562 -12.21875 -1.9375 C-24.23371057 -4.76085888 -33.61625057 -2.7361983 -44.2109375 3.359375 C-44.2109375 0.359375 -44.2109375 0.359375 -42.6484375 -1.640625 C-30.43301318 -11.66353726 -11.95736569 -8.87295687 0 0 Z " fill="#F6F6EB" transform="translate(94.2109375,49.640625)"/>
<path d="M0 0 C0.74794373 13.09732569 -0.40237338 22.90761509 -9.1875 33.375 C-14.7645882 39.15692283 -20.94732476 43.72927642 -29 45 C-30.23160074 29.63920193 -30.23160074 29.63920193 -27.359375 25.81640625 C-25.25 24.4375 -25.25 24.4375 -23.0390625 23.24609375 C-19.54457671 21.11057466 -18.38211263 17.72212509 -17 14 C-16.78214844 13.01773438 -16.56429687 12.03546875 -16.33984375 11.0234375 C-14.5331774 6.9465869 -11.74332479 5.57534292 -7.9375 3.625 C-7.28716797 3.27050781 -6.63683594 2.91601562 -5.96679688 2.55078125 C-1.23455598 0 -1.23455598 0 0 0 Z " fill="#0AB1D5" transform="translate(101,66)"/>
<path d="M0 0 C13.47103055 5.24407975 13.47103055 5.24407975 16.58203125 10.8515625 C17.39711029 12.93712981 18.1777261 15.03652196 18.921875 17.1484375 C20.97835482 22.58767761 23.75457827 25.37728913 29 28 C29 33.61 29 39.22 29 45 C18.46083981 41.4869466 9.8974623 33.94449078 4.6875 24 C4.1004913 22.67727372 3.53789843 21.3434468 3 20 C2.70222656 19.30261719 2.40445313 18.60523437 2.09765625 17.88671875 C-0.21125273 11.89632355 -0.32129691 6.36643868 0 0 Z " fill="#1B0ADA" transform="translate(40,66)"/>
<path d="M0 0 C2.31 0 4.62 0 7 0 C7 5.61 7 11.22 7 17 C11.62 17 16.24 17 21 17 C21 19.64 21 22.28 21 25 C16.38 25 11.76 25 7 25 C7.05806004 36.49586357 7.05806004 36.49586357 11 47 C14.17368645 49.50554193 17.02233079 50.43176154 21 51 C21 53.64 21 56.28 21 59 C13.69774959 58.49639652 9.20810939 56.67109021 4.25 51.0625 C-0.14349662 45.08246293 -0.27654069 40.30375229 -0.1953125 33.10546875 C-0.1924826 32.15811356 -0.18965271 31.21075836 -0.18673706 30.23469543 C-0.17557187 27.21883334 -0.15047389 24.20327184 -0.125 21.1875 C-0.11496547 19.13867617 -0.10584045 17.08984768 -0.09765625 15.04101562 C-0.07564449 10.02722852 -0.04113971 5.01366517 0 0 Z " fill="#0D2630" transform="translate(156,73)"/>
<path d="M0 0 C2.97 0 5.94 0 9 0 C14.95703125 11.9140625 14.95703125 11.9140625 16.00244141 14.01269531 C16.90736935 15.81546414 17.83337298 17.60761529 18.76171875 19.3984375 C20 22 20 22 20 24 C20.66 24 21.32 24 22 24 C22.23460937 23.20335938 22.46921875 22.40671875 22.7109375 21.5859375 C24.33483055 17.06856229 26.44537895 12.89569499 28.625 8.625 C29.25535156 7.37783203 29.25535156 7.37783203 29.8984375 6.10546875 C30.92864639 4.06846481 31.96382401 2.0339751 33 0 C35.97 0 38.94 0 42 0 C35.55530072 13.78051747 28.85352882 27.41839416 22 41 C21.34 41 20.68 41 20 41 C19.5153125 40.030625 19.030625 39.06125 18.53125 38.0625 C18.21124023 37.42256104 17.89123047 36.78262207 17.56152344 36.12329102 C16.84576895 34.69161743 16.13027993 33.25981111 15.41503906 31.82788086 C13.55882791 28.11262155 11.69874873 24.39943225 9.828125 20.69140625 C6.38624433 13.85882529 3.01510441 7.03524363 0 0 Z " fill="#0D2731" transform="translate(220,90)"/>
<path d="M0 0 C6.52299338 5.2989052 12.52785619 10.81262601 17 18 C17.91523437 17.48308594 18.83046875 16.96617188 19.7734375 16.43359375 C20.9737254 15.76780906 22.17425906 15.10246729 23.375 14.4375 C23.97828125 14.09525391 24.5815625 13.75300781 25.203125 13.40039062 C26.76978241 12.53872905 28.38290862 11.76281817 30 11 C30.66 11.33 31.32 11.66 32 12 C29.60249883 15.49635587 27.44649855 17.38560182 23.75 19.3125 C21.62536105 20.44403395 21.62536105 20.44403395 20 22 C19.27425751 24.94695436 19.583897 26.93124037 20 30 C19.67 30 19.34 30 19 30 C18.67 35.28 18.34 40.56 18 46 C17.67 46 17.34 46 17 46 C16.67 38.74 16.34 31.48 16 24 C14.35 24.66 12.7 25.32 11 26 C11.495 25.05125 11.99 24.1025 12.5 23.125 C13.31788145 20.2390469 13.13034848 19.24577755 11.703125 16.5546875 C3.33444497 5.60845402 -8.44823915 -1.53292283 -22 -4 C-25.15227025 -4.26370213 -28.27578129 -4.28062197 -31.4375 -4.25 C-32.23220703 -4.25773437 -33.02691406 -4.26546875 -33.84570312 -4.2734375 C-41.93584394 -4.24710669 -49.01742111 -2.85732012 -56.25 0.875 C-57.22453125 1.36742187 -58.1990625 1.85984375 -59.203125 2.3671875 C-62.09121388 3.94555048 -62.09121388 3.94555048 -64.671875 6.2578125 C-65.82429688 7.12019531 -65.82429688 7.12019531 -67 8 C-67.99 7.67 -68.98 7.34 -70 7 C-54.50305236 -13.53707641 -20.04872193 -13.56609102 0 0 Z " fill="#F3F7EE" transform="translate(103,32)"/>
<path d="M0 0 C2.31 0 4.62 0 7 0 C7.33 1.32 7.66 2.64 8 4 C8.51949219 3.71125 9.03898438 3.4225 9.57421875 3.125 C16.50087873 -0.56239016 16.50087873 -0.56239016 21 0 C21 2.64 21 5.28 21 8 C20.07767578 8.25523438 20.07767578 8.25523438 19.13671875 8.515625 C14.11319162 9.94773996 14.11319162 9.94773996 10 13 C8.20268999 16.59462001 7.83046528 19.57743747 7.68359375 23.54296875 C7.64169922 24.61611328 7.59980469 25.68925781 7.55664062 26.79492188 C7.49766602 28.47424805 7.49766602 28.47424805 7.4375 30.1875 C7.39431641 31.31865234 7.35113281 32.44980469 7.30664062 33.61523438 C7.20050901 36.41003354 7.09845615 39.20492162 7 42 C4.69 42 2.38 42 0 42 C0 28.14 0 14.28 0 0 Z " fill="#0B242E" transform="translate(183,90)"/>
<path d="M0 0 C3.70390021 2.02666238 5.65363011 3.48044516 8 7 C8.14221065 9.60245498 8.18802932 12.09117684 8.125 14.6875 C8.11597656 15.38939453 8.10695312 16.09128906 8.09765625 16.81445312 C8.07413704 18.54311525 8.03826713 20.27160145 8 22 C5.43571485 22.13559675 2.87864784 22.23433188 0.3125 22.3125 C-0.40873047 22.35439453 -1.12996094 22.39628906 -1.87304688 22.43945312 C-6.09649312 22.53587884 -7.53826981 22.37389777 -10.95703125 19.60546875 C-13.78505337 15.99879427 -14.39319753 13.7476104 -14.359375 9.10546875 C-13.72418186 5.38406547 -11.66020984 3.59687151 -9 1 C-5.89046621 -0.5547669 -3.43733239 -0.28644437 0 0 Z " fill="#0C242E" transform="translate(170,32)"/>
<path d="M0 0 C3.69687089 1.68039586 5.97235325 3.487723 8 7 C8.21326685 9.6729445 8.28545631 12.0926212 8.1875 14.75 C8.16719727 15.79607422 8.16719727 15.79607422 8.14648438 16.86328125 C8.1112945 18.57585541 8.05749155 20.28802941 8 22 C-7.03655096 22.86087124 -7.03655096 22.86087124 -10.875 19.6875 C-14.16424791 15.52756882 -14.53029447 12.21456229 -14 7 C-10.35973954 0.90120542 -6.94453392 -0.47081586 0 0 Z " fill="#0E2630" transform="translate(245,32)"/>
<path d="M0 0 C4.61180231 0.63299247 7.37097615 2.76552765 10.1875 6.4375 C11.02028 10.67710728 10.57955864 12.66906507 8.625 16.5 C5.78147717 19.92680957 2.66880115 22.6798401 -0.8125 25.4375 C-6.87254184 22.82336431 -9.31229928 19.9404354 -11.9921875 13.90625 C-13.09513072 10.5869161 -13.19818914 8.67077465 -11.8125 5.4375 C-7.99073497 1.61573497 -5.13105566 0.79816421 0 0 Z " fill="#FF0739" transform="translate(71.8125,66.5625)"/>
<path d="M0 0 C2.64 0 5.28 0 8 0 C8 13.86 8 27.72 8 42 C5.36 42 2.72 42 0 42 C0 28.14 0 14.28 0 0 Z " fill="#142F38" transform="translate(208,90)"/>
<path d="M0 0 C0.99 0.66 1.98 1.32 3 2 C5.5976939 18.14782692 -0.88692095 35.79245153 -9.984375 48.84765625 C-11.90842022 51.31983063 -13.90384831 53.67280955 -16 56 C-16.52980469 56.61101562 -17.05960938 57.22203125 -17.60546875 57.8515625 C-24.08004755 64.85369957 -32.80076644 71.38548099 -42 74 C-42 72.68 -42 71.36 -42 70 C-41.01773438 69.54173828 -41.01773438 69.54173828 -40.015625 69.07421875 C-21.60582986 59.84331864 -10.28422328 43.91571325 -2.86328125 25.12109375 C-0.32270325 17.00363722 -0.28691807 8.43934889 0 0 Z " fill="#E9F7FA" transform="translate(121,61)"/>
<path d="M0 0 C3.02508145 1.73602105 5.41790069 3.83580137 7 7 C7.08510205 8.9593604 7.10717656 10.92162794 7.09765625 12.8828125 C7.09443359 14.04941406 7.09121094 15.21601562 7.08789062 16.41796875 C7.07951172 17.64128906 7.07113281 18.86460938 7.0625 20.125 C7.05798828 21.35605469 7.05347656 22.58710937 7.04882812 23.85546875 C7.0370133 26.90369392 7.02054028 29.95182314 7 33 C5.68 33 4.36 33 3 33 C2.97494385 32.2886792 2.9498877 31.5773584 2.92407227 30.84448242 C2.80811561 27.62530483 2.68538755 24.40642015 2.5625 21.1875 C2.52318359 20.06794922 2.48386719 18.94839844 2.44335938 17.79492188 C2.40146484 16.72177734 2.35957031 15.64863281 2.31640625 14.54296875 C2.27974854 13.55321045 2.24309082 12.56345215 2.20532227 11.54370117 C2.09209669 8.8781649 2.09209669 8.8781649 1 6 C-0.45742463 5.91903197 -1.91612807 5.86082226 -3.375 5.8125 C-4.59316406 5.76029297 -4.59316406 5.76029297 -5.8359375 5.70703125 C-6.55007812 5.80371094 -7.26421875 5.90039062 -8 6 C-10.33296251 8.82717213 -10.33296251 8.82717213 -9.75 12.0625 C-9.2406756 15.099459 -9.2406756 15.099459 -7 17 C-4.67724823 17.40047444 -2.34260643 17.7397104 0 18 C-1.125 20 -1.125 20 -3 22 C-5.875 22.5625 -5.875 22.5625 -9 22 C-13.07819268 18.55619284 -14.84357366 16.56426342 -15.375 11.25 C-15.35058775 7.89941932 -14.75601354 6.15105468 -12.625 3.5625 C-8.73548173 -0.2344107 -5.34613705 -0.91251319 0 0 Z " fill="#0C252F" transform="translate(196,32)"/>
<path d="M0 0 C1.32 0 2.64 0 4 0 C4.02578125 0.81984375 4.0515625 1.6396875 4.078125 2.484375 C4.13484375 3.56203125 4.1915625 4.6396875 4.25 5.75 C4.29640625 6.81734375 4.3428125 7.8846875 4.390625 8.984375 C5.11492143 12.56871373 6.09563595 13.82964796 9 16 C12.13362718 16.08892339 12.13362718 16.08892339 15 15 C17.26954631 11.59568053 17.36549949 9.83475798 17.625 5.8125 C17.69976562 4.72582031 17.77453125 3.63914063 17.8515625 2.51953125 C17.90054688 1.68808594 17.94953125 0.85664062 18 0 C19.32 0 20.64 0 22 0 C22.054138 2.24973447 22.09285491 4.49984383 22.125 6.75 C22.14820313 8.00296875 22.17140625 9.2559375 22.1953125 10.546875 C22.01348048 13.76166517 21.77804421 15.38232381 20 18 C16.56750316 20.8267621 13.45928231 21.58624785 9 21.42578125 C5.34818324 20.6483437 3.54951566 18.67388228 1 16 C-0.14077657 12.57767028 -0.09815117 9.91326783 -0.0625 6.3125 C-0.05347656 5.13300781 -0.04445312 3.95351563 -0.03515625 2.73828125 C-0.02355469 1.83464844 -0.01195312 0.93101563 0 0 Z " fill="#07212B" transform="translate(206,33)"/>
<path d="M0 0 C-1.0625 1.5625 -1.0625 1.5625 -3 3 C-6.1015625 2.69921875 -6.1015625 2.69921875 -10 2 C-13.12517837 1.82052745 -16.24524449 1.8149998 -19.375 1.8125 C-20.17421875 1.80025391 -20.9734375 1.78800781 -21.796875 1.77539062 C-29.9258137 1.75566019 -36.98036618 3.12355795 -44.25 6.875 C-45.22453125 7.36742187 -46.1990625 7.85984375 -47.203125 8.3671875 C-50.09121388 9.94555048 -50.09121388 9.94555048 -52.671875 12.2578125 C-53.82429688 13.12019531 -53.82429688 13.12019531 -55 14 C-55.99 13.67 -56.98 13.34 -58 13 C-44.65770318 -4.68166064 -19.59679003 -5.46887164 0 0 Z " fill="#FFF6DA" transform="translate(91,26)"/>
<path d="M0 0 C3.625 0.375 3.625 0.375 5.82714844 2.04589844 C8.06106495 4.93991847 8.09264166 6.39584212 8.015625 10.015625 C8.00273437 11.08554687 7.98984375 12.15546875 7.9765625 13.2578125 C7.94304687 14.36898437 7.90953125 15.48015625 7.875 16.625 C7.85695312 17.75164063 7.83890625 18.87828125 7.8203125 20.0390625 C7.77320222 22.81856896 7.70743361 25.5963534 7.625 28.375 C7.295 28.375 6.965 28.375 6.625 28.375 C6.295 23.755 5.965 19.135 5.625 14.375 C4.3875 14.313125 3.15 14.25125 1.875 14.1875 C-1.43635069 13.76402354 -2.28123747 13.45504118 -4.9375 11.1875 C-6.72162188 7.69682676 -6.52607386 6.07488026 -5.375 2.375 C-3.375 0.375 -3.375 0.375 0 0 Z " fill="#E9EBEC" transform="translate(191.375,36.625)"/>
<path d="M0 0 C3.625 0.375 3.625 0.375 6.0625 1.8125 C8.36284649 5.58506824 7.95648757 9.06566159 7.625 13.375 C-1.39530277 14.14964432 -1.39530277 14.14964432 -5.0625 11.25 C-6.6685919 7.73189394 -6.51335964 6.03401314 -5.375 2.375 C-3.375 0.375 -3.375 0.375 0 0 Z " fill="#EEF0F0" transform="translate(166.375,36.625)"/>
<path d="M0 0 C2.375 1.4375 2.375 1.4375 4 4 C4.32338916 7.03046934 4.23343996 9.96528054 4 13 C-3.90069513 13.45580933 -3.90069513 13.45580933 -7.5625 11.9375 C-9.79083695 8.93408933 -9.45264211 6.62113687 -9 3 C-6.84532543 -0.71082843 -4.00794956 -0.57256422 0 0 Z " fill="#F4F5F5" transform="translate(245,37)"/>
<path d="M0 0 C1.6990771 5.09723131 -0.72919916 9.32658403 -3 14 C-9.40188065 23.91429964 -17.70133022 30.54257396 -29 34 C-29 32.68 -29 31.36 -29 30 C-28.38253906 29.731875 -27.76507813 29.46375 -27.12890625 29.1875 C-15.35758838 23.74080193 -8.97689775 16.9978785 -4 5 C-3.67 4.01 -3.34 3.02 -3 2 C-2.01 1.34 -1.02 0.68 0 0 Z " fill="#E7F6FA" transform="translate(103,80)"/>
<path d="M0 0 C0.33 0 0.66 0 1 0 C1 1.65 1 3.3 1 5 C1.66 5 2.32 5 3 5 C3.08302368 5.91495239 3.08302368 5.91495239 3.16772461 6.84838867 C3.42155316 9.62835273 3.67948775 12.40792124 3.9375 15.1875 C4.02451172 16.14720703 4.11152344 17.10691406 4.20117188 18.09570312 C4.28818359 19.02705078 4.37519531 19.95839844 4.46484375 20.91796875 C4.543396 21.77156982 4.62194824 22.6251709 4.70288086 23.50463867 C5.00481544 26.0404426 5.46631375 28.50359947 6 31 C4.68 31 3.36 31 2 31 C-0.0655473 24.23411279 -0.23960929 18.04406312 -0.125 11 C-0.11597656 9.93910156 -0.10695313 8.87820312 -0.09765625 7.78515625 C-0.07427524 5.18986362 -0.04150556 2.59505535 0 0 Z " fill="#E3E1FA" transform="translate(18,58)"/>
<path d="M0 0 C0 0.66 0 1.32 0 2 C-0.75023438 2.27972656 -1.50046875 2.55945313 -2.2734375 2.84765625 C-8.88218412 5.43622073 -14.3522314 8.35528179 -19.94140625 12.7421875 C-20.62074219 13.15726563 -21.30007812 13.57234375 -22 14 C-22.99 13.67 -23.98 13.34 -25 13 C-21.54387854 8.38748252 -18.31319054 5.61187173 -13.0625 3.125 C-12.46759766 2.81820313 -11.87269531 2.51140625 -11.25976562 2.1953125 C-7.3560469 0.28398355 -4.32391911 -0.33007016 0 0 Z " fill="#FFF9E8" transform="translate(58,26)"/>
<path d="M0 0 C2.64 0 5.28 0 8 0 C8 2.64 8 5.28 8 8 C5.36 8 2.72 8 0 8 C0 5.36 0 2.72 0 0 Z " fill="#223A42" transform="translate(208,73)"/>
<path d="M0 0 C-3.01921056 3.01921056 -6.39705255 4.75438957 -10.1875 6.625 C-11.08855469 7.07101563 -11.98960938 7.51703125 -12.91796875 7.9765625 C-13.94857422 8.48316406 -13.94857422 8.48316406 -15 9 C-15 6 -15 6 -13.4375 4 C-9.53972788 0.801828 -5.02756308 -2.21212776 0 0 Z " fill="#FFF7E1" transform="translate(65,44)"/>
<path d="M0 0 C1.485 0.99 1.485 0.99 3 2 C3.29296875 5.2578125 3.29296875 5.2578125 3.1875 9.125 C3.16042969 10.40632813 3.13335937 11.68765625 3.10546875 13.0078125 C3.07066406 13.99523437 3.03585938 14.98265625 3 16 C2.01 16.33 1.02 16.66 0 17 C0 11.39 0 5.78 0 0 Z " fill="#E6F6FA" transform="translate(121,61)"/>
<path d="M0 0 C0.66 0 1.32 0 2 0 C2 4.95 2 9.9 2 15 C2.66 15.33 3.32 15.66 4 16 C2.68 16.33 1.36 16.66 0 17 C0 11.39 0 5.78 0 0 Z " fill="#3EBEDC" transform="translate(72,94)"/>
<path d="M0 0 C0.33 0.99 0.66 1.98 1 3 C-1.97 5.475 -1.97 5.475 -5 8 C-5 5 -5 5 -2.5 2.3125 C-1.675 1.549375 -0.85 0.78625 0 0 Z " fill="#EBF7FB" transform="translate(80,85)"/>
<path d="M0 0 C2.97 0 5.94 0 9 0 C9 0.66 9 1.32 9 2 C6.69 2.33 4.38 2.66 2 3 C1.34 2.01 0.68 1.02 0 0 Z " fill="#263941" transform="translate(220,90)"/>
<path d="M0 0 C-1.0625 1.5625 -1.0625 1.5625 -3 3 C-6.6875 2.6875 -6.6875 2.6875 -10 2 C-6.5980513 -0.09350689 -3.94727588 -0.17942163 0 0 Z " fill="#FFF2C8" transform="translate(91,26)"/>
<path d="M0 0 C0.66 0 1.32 0 2 0 C1.67 2.31 1.34 4.62 1 7 C0.01 6.67 -0.98 6.34 -2 6 C-1.34 4.02 -0.68 2.04 0 0 Z " fill="#F0F9FC" transform="translate(83,76)"/>
</svg>
