<?xml version="1.0" encoding="UTF-8"?>
<svg version="1.1" xmlns="http://www.w3.org/2000/svg" width="311" height="162">
<path d="M0 0 C102.63 0 205.26 0 311 0 C311 53.46 311 106.92 311 162 C208.37 162 105.74 162 0 162 C0 108.54 0 55.08 0 0 Z " fill="#FEFEFE" transform="translate(0,0)"/>
<path d="M0 0 C0.495 0.99 0.495 0.99 1 2 C2.9865375 2.37247578 4.99172193 2.6472092 7 2.875 C17.93554266 4.44063507 25.79938246 8.48481395 32.76171875 17.20703125 C38.24048524 24.99404319 40.05175924 32.53416686 39 42 C37.7623659 46.7005709 36.39081185 51.25332314 33.3359375 55.08984375 C31.26718901 58.04779115 32.42907136 60.57442813 33 64 C32.34 64.66 31.68 65.32 31 66 C29.4840625 65.690625 29.4840625 65.690625 27.9375 65.375 C23.31966083 64.93520579 21.14722445 65.94297302 17.11328125 67.9921875 C9.84273961 71.45946983 0.30812065 71.17587012 -7.1875 68.5625 C-16.19455778 64.39636904 -23.23179074 57.16638811 -27 48 C-28.33941021 44.11914478 -28.18379988 40.12153458 -28.1875 36.0625 C-28.19974609 35.35931641 -28.21199219 34.65613281 -28.22460938 33.93164062 C-28.23622028 29.80202892 -27.73721301 26.7353513 -26 23 C-25.8423415 20.87957244 -25.8423415 20.87957244 -27 19 C-29.97763043 16.73674754 -29.97763043 16.73674754 -33 15 C-32.75 13.14453125 -32.75 13.14453125 -32 11 C-28.99138645 8.79229052 -25.40919779 7.48875028 -22 6 C-21.32114746 5.69562012 -20.64229492 5.39124023 -19.94287109 5.07763672 C-17.69845514 4.07555032 -15.44506787 3.09706222 -13.1875 2.125 C-12.45853516 1.80233154 -11.72957031 1.47966309 -10.97851562 1.1472168 C-7.02617727 -0.50852936 -4.20598167 -1.68239267 0 0 Z " fill="#0D63AE" transform="translate(96,32)"/>
<path d="M0 0 C5.6326743 5.6326743 5.6326743 5.6326743 7.640625 8.4453125 C8.07117188 9.04730469 8.50171875 9.64929688 8.9453125 10.26953125 C9.37585938 10.88183594 9.80640625 11.49414062 10.25 12.125 C10.69601563 12.74503906 11.14203125 13.36507812 11.6015625 14.00390625 C13.47831803 16.6484254 14.96868741 18.90606224 16 22 C14.02 22.99 14.02 22.99 12 24 C12.7940625 24.91523437 13.588125 25.83046875 14.40625 26.7734375 C15.43775748 27.97373711 16.46899349 29.17427005 17.5 30.375 C18.02464844 30.97828125 18.54929688 31.5815625 19.08984375 32.203125 C23 36.7734375 23 36.7734375 23 39 C21.35 39.66 19.7 40.32 18 41 C18.37809814 41.46374023 18.75619629 41.92748047 19.14575195 42.40527344 C20.86880281 44.51953054 22.5906616 46.63475538 24.3125 48.75 C24.90740234 49.47960937 25.50230469 50.20921875 26.11523438 50.9609375 C26.69208984 51.66992188 27.26894531 52.37890625 27.86328125 53.109375 C28.39219971 53.75874023 28.92111816 54.40810547 29.46606445 55.07714844 C31.01818419 57.02279463 32.51670952 59.0015431 34 61 C33.505 61.99 33.505 61.99 33 63 C7.0298471 47.93673978 7.0298471 47.93673978 -4 41 C-3.01 39.68 -2.02 38.36 -1 37 C-2.010625 36.30132812 -3.02125 35.60265625 -4.0625 34.8828125 C-5.37524473 33.96389119 -6.68773151 33.04460128 -8 32.125 C-8.66773437 31.66480469 -9.33546875 31.20460938 -10.0234375 30.73046875 C-11.71859351 29.53694054 -13.3637578 28.27309661 -15 27 C-15 26.34 -15 25.68 -15 25 C-14.01 24.34 -13.02 23.68 -12 23 C-13.010625 22.30132812 -14.02125 21.60265625 -15.0625 20.8828125 C-16.37524473 19.96389119 -17.68773151 19.04460128 -19 18.125 C-19.66773437 17.66480469 -20.33546875 17.20460938 -21.0234375 16.73046875 C-22.71859351 15.53694054 -24.3637578 14.27309661 -26 13 C-26 12.34 -26 11.68 -26 11 C-17.42 7.37 -8.84 3.74 0 0 Z " fill="#F9F9F9" transform="translate(92,33)"/>
<path d="M0 0 C10.01127536 -0.65647707 17.69674131 1.64418754 25.375 8.25 C32.84366576 15.48156526 36.91092966 22.69614233 37.375 33.25 C37.2057561 42.05068301 33.57818651 49.64220025 29 57 C25.50029814 53.6965431 22.64207096 50.07526827 19.75 46.25 C19.29109375 45.64800781 18.8321875 45.04601562 18.359375 44.42578125 C17.23691381 42.95255094 16.11808466 41.47655456 15 40 C15.99 39.34 16.98 38.68 18 38 C17.4887988 33.49656089 15.82478642 31.12474574 12.9375 27.6875 C12.20402344 26.80449219 11.47054687 25.92148437 10.71484375 25.01171875 C10.14894531 24.34785156 9.58304688 23.68398438 9 23 C9.66 22.34 10.32 21.68 11 21 C10.86507275 15.98970127 7.84184212 12.63568488 4.9375 8.8125 C0 2.24488404 0 2.24488404 0 0 Z " fill="#0D63AE" transform="translate(98,35)"/>
<path d="M0 0 C0.9075 -0.02900391 1.815 -0.05800781 2.75 -0.08789062 C7.10080562 -0.129236 9.54643716 -0.12688982 13.30859375 2.22265625 C16.8937842 6.08196589 17.70496228 8.89059369 17.57421875 14.28125 C17.04002404 17.62801204 15.38123774 19.75501471 13.25 22.3125 C9.45548348 24.84217768 6.43802503 24.53610092 2.0625 24.4375 C-1.8046875 24.375625 -1.8046875 24.375625 -5.75 24.3125 C-5.75 29.5925 -5.75 34.8725 -5.75 40.3125 C-7.73 40.8075 -7.73 40.8075 -9.75 41.3125 C-11.61962718 39.44287282 -10.87886303 36.76586439 -10.88894653 34.27868652 C-10.8869223 33.43390747 -10.88489807 32.58912842 -10.8828125 31.71875 C-10.88376923 30.85689087 -10.88472595 29.99503174 -10.88571167 29.10705566 C-10.8863935 27.28116788 -10.88453904 25.45527769 -10.88037109 23.62939453 C-10.87502286 20.82448922 -10.88031599 18.01974405 -10.88671875 15.21484375 C-10.88605797 13.44531214 -10.88477681 11.67578064 -10.8828125 9.90625 C-10.88483673 9.06147095 -10.88686096 8.21669189 -10.88894653 7.34631348 C-10.85320132 -1.47053544 -7.83240185 0.08204332 0 0 Z " fill="#0A569F" transform="translate(230.75,45.6875)"/>
<path d="M0 0 C1.32 0 2.64 0 4 0 C6.14765917 5.03062504 8.2835228 10.06603373 10.40869141 15.10620117 C11.13302101 16.81947566 11.86053411 18.53140792 12.59130859 20.24194336 C13.64223142 22.70339049 14.68154455 25.16946551 15.71875 27.63671875 C16.04685669 28.39836838 16.37496338 29.16001801 16.7130127 29.94474792 C18.30588553 33.76563962 19.43833015 36.77376683 19 41 C17.140625 40.78515625 17.140625 40.78515625 15 40 C13.2465367 37.13709234 12.23779514 34.13869481 11 31 C4.73 31 -1.54 31 -8 31 C-9.98 35.95 -9.98 35.95 -12 41 C-13.32 40.67 -14.64 40.34 -16 40 C-15.30594027 35.4285489 -13.64249903 31.34972371 -11.875 27.109375 C-11.41456299 25.99154633 -11.41456299 25.99154633 -10.94482422 24.85113525 C-10.29805406 23.28365472 -9.64908437 21.71708014 -8.99804688 20.15136719 C-7.99848118 17.74634562 -7.00653531 15.33828633 -6.015625 12.9296875 C-5.38586193 11.40606588 -4.75566869 9.88262198 -4.125 8.359375 C-3.82706543 7.63651306 -3.52913086 6.91365112 -3.22216797 6.16888428 C-1.11586085 1.11586085 -1.11586085 1.11586085 0 0 Z " fill="#0C579F" transform="translate(194,46)"/>
<path d="M0 0 C1.74511719 1.77832031 1.74511719 1.77832031 3.296875 4.078125 C3.86277344 4.90957031 4.42867187 5.74101563 5.01171875 6.59765625 C5.87216797 7.91056641 5.87216797 7.91056641 6.75 9.25 C7.33910156 10.10980469 7.92820313 10.96960938 8.53515625 11.85546875 C13.60358917 19.41733764 13.60358917 19.41733764 14 24 C13.34 24.66 12.68 25.32 12 26 C12.66128906 26.73605469 13.32257813 27.47210938 14.00390625 28.23046875 C14.84824219 29.20628906 15.69257812 30.18210937 16.5625 31.1875 C17.40941406 32.15042969 18.25632813 33.11335938 19.12890625 34.10546875 C21 37 21 37 20.90234375 39.80078125 C20 42 20 42 18 43 C18.34780518 43.43344727 18.69561035 43.86689453 19.05395508 44.31347656 C20.64078767 46.29179659 22.22665185 48.27089077 23.8125 50.25 C24.35970703 50.93191406 24.90691406 51.61382812 25.47070312 52.31640625 C28.02871205 55.51004163 30.57717396 58.70155612 33 62 C32.01 63.98 32.01 63.98 31 66 C26.80112401 65.40633106 23.82269046 63.96667114 20.17578125 61.83203125 C19.06396484 61.18556641 17.95214844 60.53910156 16.80664062 59.87304688 C15.6418575 59.18631593 14.47714428 58.49946639 13.3125 57.8125 C12.17876953 57.15185547 11.04503906 56.49121094 9.87695312 55.81054688 C7.63970751 54.50430491 5.40668662 53.19079673 3.17822266 51.86962891 C1.12374698 50.6610581 -0.94370385 49.4741634 -3.02587891 48.31396484 C-3.93128418 47.80172363 -4.83668945 47.28948242 -5.76953125 46.76171875 C-6.96412964 46.10175903 -6.96412964 46.10175903 -8.18286133 45.4284668 C-10 44 -10 44 -10.8894043 41.95239258 C-10.92590088 41.30810303 -10.96239746 40.66381348 -11 40 C-10.34 39.34 -9.68 38.68 -9 38 C-9.86625 37.39671875 -10.7325 36.7934375 -11.625 36.171875 C-12.75049342 35.36527138 -13.87546674 34.55794169 -15 33.75 C-15.57234375 33.35425781 -16.1446875 32.95851562 -16.734375 32.55078125 C-18.375 31.359375 -18.375 31.359375 -21 29 C-21 25 -21 25 -20 23 C-20.56203125 22.73445313 -21.1240625 22.46890625 -21.703125 22.1953125 C-24.17930222 20.90668966 -26.43844882 19.43869639 -28.75 17.875 C-29.54921875 17.33617188 -30.3484375 16.79734375 -31.171875 16.2421875 C-31.77515625 15.83226563 -32.3784375 15.42234375 -33 15 C-32.75 13.14453125 -32.75 13.14453125 -32 11 C-28.99138645 8.79229052 -25.40919779 7.48875028 -22 6 C-21.32114746 5.69562012 -20.64229492 5.39124023 -19.94287109 5.07763672 C-17.69845514 4.07555032 -15.44506787 3.09706222 -13.1875 2.125 C-12.45853516 1.80233154 -11.72957031 1.47966309 -10.97851562 1.1472168 C-10.27791016 0.85371338 -9.57730469 0.56020996 -8.85546875 0.2578125 C-8.23309326 -0.0088623 -7.61071777 -0.27553711 -6.96948242 -0.55029297 C-4.28185776 -1.16397893 -2.60864107 -0.88203433 0 0 Z M-4 1 C-6.75243935 1.90610139 -6.75243935 1.90610139 -9.8828125 3.30859375 C-11.04941406 3.80810547 -12.21601562 4.30761719 -13.41796875 4.82226562 C-14.65371866 5.36050992 -15.8893948 5.89892359 -17.125 6.4375 C-18.36818263 6.97271875 -19.61166876 7.50723314 -20.85546875 8.04101562 C-23.90671038 9.35375912 -26.95463609 10.67369129 -30 12 C-28.64185223 16.0744433 -25.8691574 17.42021951 -22.4375 19.6875 C-21.82197266 20.10322266 -21.20644531 20.51894531 -20.57226562 20.94726562 C-19.05293329 21.97193162 -17.52707343 22.98690678 -16 24 C-16.99 24.66 -17.98 25.32 -19 26 C-19 26.66 -19 27.32 -19 28 C-16.69833213 29.79083852 -14.39761099 31.47259242 -12 33.125 C-11.33226563 33.59292969 -10.66453125 34.06085938 -9.9765625 34.54296875 C-8.32185734 35.70126236 -6.66144693 36.85139765 -5 38 C-5.99 39.32 -6.98 40.64 -8 42 C4.15040041 49.64146276 16.58540117 56.79925946 29 64 C29 59.64876195 26.38680391 57.35223328 23.75 54.125 C23.01330078 53.20654297 23.01330078 53.20654297 22.26171875 52.26953125 C20.84722305 50.50801261 19.42394404 48.7538823 18 47 C16.66558924 45.33419584 15.33178597 43.66790338 14 42 C15.65 41.34 17.3 40.68 19 40 C17.3718356 36.24269753 14.98598083 33.383177 12.375 30.25 C11.55773437 29.26515625 10.74046875 28.2803125 9.8984375 27.265625 C9.27195313 26.51796875 8.64546875 25.7703125 8 25 C9.32 24.34 10.64 23.68 12 23 C9.82586724 18.41778446 6.92091859 14.44243088 4 10.3125 C3.4534375 9.52810547 2.906875 8.74371094 2.34375 7.93554688 C1.8178125 7.18982422 1.291875 6.44410156 0.75 5.67578125 C0.27046875 4.99427002 -0.2090625 4.31275879 -0.703125 3.6105957 C-1.92547861 1.86385382 -1.92547861 1.86385382 -4 1 Z " fill="#0B0C0E" transform="translate(96,32)"/>
<path d="M0 0 C9.9 0 19.8 0 30 0 C30.495 1.485 30.495 1.485 31 3 C29.37623946 5.50610589 27.71900308 7.78829007 25.875 10.125 C25.34036133 10.81916016 24.80572266 11.51332031 24.25488281 12.22851562 C23.11056412 13.71314475 21.96196788 15.19448464 20.80957031 16.67285156 C18.40398522 19.76648852 16.02982797 22.88361355 13.65576172 26.00146484 C11.11002447 29.33903531 8.55397464 32.66872873 6 36 C13.92 36.33 21.84 36.66 30 37 C30 38.32 30 39.64 30 41 C19.77 41 9.54 41 -1 41 C-1.33 39.68 -1.66 38.36 -2 37 C-0.29324941 34.49113695 1.40832975 32.28921812 3.375 30 C4.48853977 28.66014964 5.60050156 27.31898637 6.7109375 25.9765625 C7.26749023 25.30915039 7.82404297 24.64173828 8.39746094 23.95410156 C11.42183558 20.26624436 14.2271191 16.42014576 17.0625 12.5859375 C18.98791638 10.01612774 20.99404297 7.50744628 23 5 C15.74 4.67 8.48 4.34 1 4 C0.67 2.68 0.34 1.36 0 0 Z " fill="#05519D" transform="translate(143,46)"/>
<path d="M0 0 C4.59306496 1.4859916 7.43569245 3.85014682 11 7 C10.34 7.66 9.68 8.32 9 9 C8.93467649 11.0141582 8.93467649 11.0141582 10 13 C12.24750978 14.72215329 12.24750978 14.72215329 15.09375 16.1640625 C16.12371094 16.72867188 17.15367188 17.29328125 18.21484375 17.875 C19.29894531 18.4525 20.38304688 19.03 21.5 19.625 C23.63796533 20.77914538 25.77352056 21.93777022 27.90625 23.1015625 C28.85822266 23.61025879 29.81019531 24.11895508 30.79101562 24.64306641 C33 26 33 26 34 28 C28.98778704 29.74337842 25.27569668 30 20 30 C20 29.34 20 28.68 20 28 C19.42378906 28.19980469 18.84757812 28.39960937 18.25390625 28.60546875 C14.29065429 29.29920956 11.26798445 27.09539555 8 25 C5.45209574 22.37247373 5 21.69284426 5 18 C4.01 17.67 3.02 17.34 2 17 C-0.74005895 11.32416361 -1.4529155 6.07582847 0 0 Z " fill="#1C69B3" transform="translate(77,63)"/>
<path d="M0 0 C13.02955667 4.00254355 13.02955667 4.00254355 16.75 10.3125 C18.58555017 13.85661259 19.8028442 16.95830611 20 21 C19.67 21.66 19.34 22.32 19 23 C19.66 23 20.32 23 21 23 C19.07289294 33.55808656 19.07289294 33.55808656 17 38 C16.01 38 15.02 38 14 38 C12.39453125 36.03125 12.39453125 36.03125 10.8125 33.5 C10.28269531 32.6646875 9.75289062 31.829375 9.20703125 30.96875 C8.80871094 30.3190625 8.41039063 29.669375 8 29 C8.99 28.67 9.98 28.34 11 28 C10.4887988 23.49656089 8.82478642 21.12474574 5.9375 17.6875 C5.20402344 16.80449219 4.47054687 15.92148437 3.71484375 15.01171875 C3.14894531 14.34785156 2.58304687 13.68398438 2 13 C2.66 12.34 3.32 11.68 4 11 C3.69253971 7.10550297 2.38362882 5.00544504 0 2 C0 1.34 0 0.68 0 0 Z " fill="#1D69B2" transform="translate(105,45)"/>
<path d="M0 0 C13.33573123 -0.49391597 13.33573123 -0.49391597 16.421875 1.80078125 C18.73207372 5.02019184 18.54309458 7.13045109 18 11 C16.421875 13.703125 16.421875 13.703125 14 16 C9.25427262 16.67105874 4.81611726 16.22296839 0 16 C0 10.72 0 5.44 0 0 Z " fill="#FBFCFD" transform="translate(225,50)"/>
<path d="M0 0 C5.29583541 5.00957404 8.75393316 9.30899745 9.25 16.75 C9.21772968 21.10649276 7.93461671 24.13076659 6 28 C4.35 26.35 2.7 24.7 1 23 C1.99 22.34 2.98 21.68 4 21 C3.4887988 16.49656089 1.82478642 14.12474574 -1.0625 10.6875 C-1.79597656 9.80449219 -2.52945313 8.92148437 -3.28515625 8.01171875 C-4.13400391 7.01591797 -4.13400391 7.01591797 -5 6 C-2.25 1.125 -2.25 1.125 0 0 Z " fill="#306DB4" transform="translate(112,52)"/>
<path d="M0 0 C4.875 1.75 4.875 1.75 6 4 C5.01 4.495 5.01 4.495 4 5 C4.16324298 6.91902543 4.16324298 6.91902543 5 9 C6.9705248 10.55965646 6.9705248 10.55965646 9.47265625 11.796875 C10.37177734 12.28027344 11.27089844 12.76367188 12.19726562 13.26171875 C13.61555664 13.99841797 13.61555664 13.99841797 15.0625 14.75 C16.01189453 15.25660156 16.96128906 15.76320313 17.93945312 16.28515625 C20.28688815 17.53554877 22.64022263 18.77310569 25 20 C25 20.33 25 20.66 25 21 C19.26157749 21.20413361 14.39460953 21.27141454 9 19 C9 18.34 9 17.68 9 17 C8.13375 16.9071875 8.13375 16.9071875 7.25 16.8125 C3.90718005 15.60537057 2.87940514 14.00704822 1 11 C-1.55089192 3.10178384 -1.55089192 3.10178384 0 0 Z " fill="#306DB4" transform="translate(82,67)"/>
<path d="M0 0 C3.39655838 1.69827919 3.90662542 5.64930231 5.125 9.0625 C5.40214844 9.82111328 5.67929688 10.57972656 5.96484375 11.36132812 C6.64962223 13.23856568 7.32563763 15.11899554 8 17 C3.38 17 -1.24 17 -6 17 C-5.19980115 12.19880692 -4.45116558 9.35886096 -2.4375 5.125 C-1.75494141 3.67480469 -1.75494141 3.67480469 -1.05859375 2.1953125 C-0.70925781 1.47085938 -0.35992187 0.74640625 0 0 Z " fill="#F6F8FB" transform="translate(195,54)"/>
<path d="M0 0 C0.66 0 1.32 0 2 0 C5.21553868 7.42157812 6.87361418 13.87968463 6 22 C5.67 22.66 5.34 23.32 5 24 C4.34 24 3.68 24 3 24 C3.01160156 23.07058594 3.02320313 22.14117187 3.03515625 21.18359375 C3.11753537 12.04290683 3.11753537 12.04290683 2 3 C1.34 3 0.68 3 0 3 C0 2.01 0 1.02 0 0 Z " fill="#2A70B0" transform="translate(129,52)"/>
<path d="M0 0 C0.66 0.33 1.32 0.66 2 1 C2 1.66 2 2.32 2 3 C-4.625 6 -4.625 6 -8 6 C-8.33 6.66 -8.66 7.32 -9 8 C-9.99 8.495 -9.99 8.495 -11 9 C-10.80859375 7.17578125 -10.80859375 7.17578125 -10 5 C-7.78515625 3.48046875 -7.78515625 3.48046875 -5.0625 2.1875 C-4.16660156 1.74792969 -3.27070312 1.30835938 -2.34765625 0.85546875 C-1.57292969 0.57316406 -0.79820313 0.29085937 0 0 Z " fill="#1A1A1A" transform="translate(74,38)"/>
<path d="M0 0 C2.97 0 5.94 0 9 0 C6.08235 1.9451 4.37462715 2.45276317 1 3 C0.67 2.01 0.34 1.02 0 0 Z " fill="#1F69AB" transform="translate(98,35)"/>
</svg>
